<?xml version="1.0" encoding="UTF-8" standalone="no"?>
<svg
   xmlns:dc="http://purl.org/dc/elements/1.1/"
   xmlns:cc="http://creativecommons.org/ns#"
   xmlns:rdf="http://www.w3.org/1999/02/22-rdf-syntax-ns#"
   xmlns:svg="http://www.w3.org/2000/svg"
   xmlns="http://www.w3.org/2000/svg"
   xmlns:sodipodi="http://sodipodi.sourceforge.net/DTD/sodipodi-0.dtd"
   xmlns:inkscape="http://www.inkscape.org/namespaces/inkscape"
   viewBox="0 0 196.52 112.61"
   id="svg4191"
   version="1.1"
   inkscape:version="0.91 r13725"
   sodipodi:docname="anchor-skills.svg">
  <metadata
     id="metadata4206">
    <rdf:RDF>
      <cc:Work
         rdf:about="">
        <dc:format>image/svg+xml</dc:format>
        <dc:type
           rdf:resource="http://purl.org/dc/dcmitype/StillImage" />
        <dc:title></dc:title>
      </cc:Work>
    </rdf:RDF>
  </metadata>
  <defs
     id="defs4393">
    <style
       id="style6">.cls-2 {
        fill: #ffffff;
      }</style>
    <style
       id="style4295">.cls-2 {
        fill: #555555;
      }</style>
    <style
       id="style4308">.cls-2 {
        fill: #000000;
      }</style>
    <style
       id="style6-0">.cls-2 {
        fill: #ffffff;
      }</style>
    <style
       id="style4295-0">.cls-2 {
        fill: #555555;
      }</style>
    <style
       id="style4308-7">.cls-2 {
        fill: #000000;
      }</style>
  </defs>
  <sodipodi:namedview
     pagecolor="#ffffff"
     bordercolor="#666666"
     borderopacity="1"
     objecttolerance="10"
     gridtolerance="10"
     guidetolerance="10"
     inkscape:pageopacity="0"
     inkscape:pageshadow="2"
     inkscape:window-width="1270"
     inkscape:window-height="799"
     id="namedview4391"
     showgrid="false"
     inkscape:zoom="3.7349887"
     inkscape:cx="90.667897"
     inkscape:cy="43.301365"
     inkscape:window-x="1653"
     inkscape:window-y="155"
     inkscape:window-maximized="0"
     inkscape:current-layer="svg4191" />
  <path
     id="path4135"
     fill-rule="evenodd"
     transform="matrix(1.3816 0 0 .88627 51.367 3.0875)"
     fill="#f7f1e3"
     d="m33.943 123.58c-6.238 0-74.138-117.61-71.019-123.01 3.119-5.4043 138.92-5.4043 142.04-0.00192s-64.779 123.01-71.017 123.01z"
     style="fill:#f7f1e3;fill-opacity:1" />
  <g
     style="fill-rule:evenodd"
     transform="matrix(0.16394942,0,0,0.16394942,81.044734,47.816347)"
     id="g5077">
    <path
       style="fill:#ffffff"
       inkscape:connector-curvature="0"
       d="m 88.481421,-210.40051 c 3.1535,-29.745 -37.128,2.781 -41.545,-3.9819 15.546,-0.32929 21.326,-25.755 2.4204,-10.018 -7.4549,3.9444 -23.372,15.897 -10.661,2.1775 1.2828,-7.6109 -34.6179989,19.587 -10.464,7.0728 7.6972,-2.533 -14.965999,12.953 5,2.9999 8.6359,-2.8449 -21.722999,19.141 -1.2501,12.25 15.12,-0.3671 -25.351999,9.341 -14.999999,3.75 -9.8857,8.8926 -2.1583,2.7046 -11.5,4.75 0.1602,-2.4055 -13.3610005,14.171 -4,-1 -12.133001,19.854 -34.893001,10.998 -44.000001,32 8.6488,-19.268 -14.906,22.125 -7,3 -12.823,-2.1808 -14.379,39.39 -12.5,12.75 0.41203,-11.058 -12.778,20.501 -5.4999,1.2504 -7.1754,5.9623 -8.1306,22.852 -5.867,3.217 10.088,-8.5272 4.2899,-14.772 1.867,-9.717 1.043,-12.654 -6.418897,22.783 -6.999997,5.5 -3.2378,10.958 -10.229,19.767 -4.6271,2.6132 6.4203,-13.398 -3.0912,-17.396 -3.597,-1.031 -4.284502,16.722 4.249,-20.233 -7.775902,-2.5823 -7.346302,-18.15 1.5579,14.686 -5.2162,-3.391 -13.489002,-11.245 -16.494002,12.702 -30.966002,6.9822 -7.1074,1.8071 -5.919,16.261 -7.6352,2.044 2.7802,-10.2 6.6498,3.2216 3.3793,-9.323 -11.971,-13.085 24.426,-7.5335 9.4382,-16.312 22.622,-9.7753 27.643002,-40.213 52.043001,-47.904 17.431,-7.3822 45.289,-27.796 53.487,-14.414 7.7004,-6.0259 38.345001,-14.151 22.836001,-0.11946 -5.2951995,14.44 18.446999,-20.053 22.633999,-5.5624 13.476,-14.795 37.647,-6.7441 44,-3.5 -1.0944,1.1134 24.366,13.123 25,0.5 -2.7709,13.597 12.242999,-9.4147 12.999999,8 10.077,-3.7966 29.057,6.5031 8,7 6.9592,6.4227 -24.057999,6.9372 -3.7498,8.7501 9.3389,5.1815 -20.307999,0.0234 -23.249999,2.2499 z m -38,-30 c -7.5545,4.2828 -17.909,6.8779 -2.5018,5.8735 -4.0163,3.9833 11.806,-9.22 2.5018,-5.8735 z m -24,1 c 10.277,-1.3179 -5.1087,7.3494 0,0 z m 28,5 c -4.3808,5.0884 5.6118,-1.459 0,0 z m -34.999999,1 c -9.8798,5.5378 -25.4770005,29.41 -6.375,12.375 8.683799,-14.657 16.010999,-2.3998 2.375,4.6246 6.607199,0.38449 33.997999,-18.037 14.999999,-12 3.3784,-10.469 -6.201,1.4102 -10.999999,-5 z m 13.999999,0 2,1 -2,-1 z m -53,1 c 5.6,-1.5859 -2.2921,4.62 0,0 z m 61,0 c -2.025,7.8176 4.6286,1.8684 0,0 z m 4,0 c -0.0951,5.5017 4.7725,-2.1197 0,0 z m -50.9999985,3 c -0.840071,3.9165 1.7788,1.1996 0,0 z m 33.9999985,1 c 5.5751,-1.4508 -4.4186,5.111 0,0 z m 22,0 c -13.39,7.1582 6.9672,-1.0799 0,0 z m -78,2 c -2.3471,5.8666 8.2495,2.3929 0,0 z m 8,1 2,1 -2,-1 z m 3,1 c -6.5073,5.013 -1.4391,16.751 0,0 z m -9,2 c -4.4505,5.0646 3.3747,-0.98081 0,0 z m -6,5 0,0 z m 26.0000015,0 c -6.5734015,5.2046 1.6697,2.6825 0,0 z m 43.9999985,3 c 12.808,0.86595 -6.5004,7.0471 0,0 z m -82,1 0,0 z m 19,0 c -6.4355,6.6334 -13.674,14.566 -11.875,7.875 -5.2127,4.9276 -19.731,22.109 -10.625,4.125 9.4781,-28.212 -16.751,42.614 -14.894,14.57 -7.2311,-13.162 -5.8476,16.039 -14.605997,8.7521 -4.8652,19.672 5.400197,4.9375 7.999997,4.678 -0.22153,11.625 18.266,-1.8993 12,11 1.1427,-19.392 38.226,-24.173 31.141,-47.804 l 0.82572,-1.2454 0.0335,-1.9511 z m 96,1 c 12.956,2.3883 -2.0144,0.97027 5,6 -11.059,1.7715 -27.508,0.85171 -8.2499,-4.7499 l 3.2499,-1.2501 z m -97,3 c -2.1534,5.8704 -3.1592,0.28541 0.67803,0 l -0.67803,0 z m 11,0 c -1.4145,10.363 -6.3157,-4.3666 -10.118,11.104 -3.0208,11.161 5.0545,6.2804 -3.8818,15.896 7.2841,5.0324 29.29700097,-19.499 36.130001,-16.13 -1.6454,8.01 26.504999,-16.536 2.5854,-8.5977 -4.9369999,-0.59198 -15.9150005,11.494 -5.7158999,5.7281 -8.3406996,13.152 -5.6958996,-4.84 -10.8080006,8.1581 -3.8834005,4.4397 -1.938,-7.4185 -8.8661005,2.5157 -7.2511,1.781 15.34200097,-23.983 0.67385,-18.674 z m 59,0 c 13.395,2.8713 -15.744,6.5887 0,0 z m -43.99999903,2 c -13.12900097,10.223 -8.12200047,20.149 0,0 z m 48.99999903,1 c 2.5383,0 1.9555,0 0,0 z m -3,1 c 2.5383,0 1.9555,0 0,0 z m 38,0 c 7.9463,1.3244 7.9463,1.3244 0,0 z m -103,2 1,2 -1,-2 z m 24.000001,0 c 5.5751,-1.4508 -4.4186,5.111 0,0 z m 95.999998,0 c 2.5383,0 1.9555,0 0,0 z m -132.999999,1 c 3.9165,-0.84007 1.1996,1.7788 0,0 z m 15,1 1,2 -1,-2 z m 26.000001,0 c 3.1829,0 4.3737,0 0,0 z m 86.999999,0 c 8.945499,-1.789 -5.206,7.7103 0,0 z m -15,2 c 15.738,-1.6067 -9.4482,7.1924 0,0 z m -12,2 c 2.5383,0 1.9555,0 0,0 z m 6,0 c 6.6528,4.584 -8.8282,3.5965 0,0 z m -97,1 c 8.1938,-1.0041 -4.1777,9.5702 0,0 z m 5,0 c 2.1473,6.44 -5.5704,1.7208 0,0 z m 83,0 c 3.1829,0 4.3737,0 0,0 z m -15,1 c 10.595,1.3244 10.595,1.3244 0,0 z m 26,1 c 2.5383,0 1.9555,0 0,0 z m 70.999999,0 c 10.766,0.31772 -10.052,12.107 0,0 z m -68.999999,1 c 2.6995,-1.4603 7.8609,6.6219 0,0 z m -18,1 5,1 -5,-1 z m -144.999997,1 2,1 -2,-1 z m 64.999997,0 c 4.1671,8.2473 -11.183,5.757 0,0 z m 106,0 c 19.410999,4.1264 -20.282,2.9714 0,0 z m -100,1 c -2.588,9.4875 -8.293,3.6754 0,0 z m 68,0 c 21.344,0.80101 -9.7222,8.8573 0,0 z m 46.999999,0 c 2.5383,0 1.9555,0 0,0 z m 2,1 c 3.1829,0 4.3737,0 0,0 z m -14.999999,2 c 2.5383,0 1.9555,0 0,0 z m -124,1 c -4.0205,4.4008 6.4563,1.0824 0,0 z m -37,1 2,1 -2,-1 z m 112,0 c 3.1829,0 4.3737,0 0,0 z m -136.999999,1 c 8.401802,16.551 9.250802,6.1098 0,0 z m 131.999999,0 c 2.5383,0 1.9555,0 0,0 z m -124.999997,1 2,1 -2,-1 z m 122.999997,0 c 2.5383,0 1.9555,0 0,0 z m -66,1 c -12.077,7.8104 11.133,3.1019 0,0 z m 19,0 c -4.4505,5.0646 3.3747,-0.98081 0,0 z m 37,0 c 2.5383,0 1.9555,0 0,0 z m -32.9999995,1 1,2 -1,-2 z m 44.9999995,0 c 2.2181,2.7291 -6.9027,5.1363 0,0 z m -64,1 c -4.4505,5.0646 3.3747,-0.98081 0,0 z m -85.000001,2 c 2.3352,2.3352 2.846,2.846 0,0 z m 173.000001,0 c 2.5383,0 1.9555,0 0,0 z m 106.999999,0 c 12.134,-2.2397 13.33,1.7885 9.8428,11.618 28.379,0.16084 -11.504,18.528 -13.374,0.71475 -11.027,-4.5465 -1.5652,-8.6754 3.5314,-12.333 z m -203.999999,1 c -13.88,12.813 -4.057,17.541 0,0 z m 96,0 c 2.228,3.9075 -9.5804,6.6382 0,0 z m -142.999997,1 c 1.8234,9.2388 7.3284,7.3571 0,0 z m 128.999997,2 c 4.112,-1.7813 4.2387,3.5576 0,0 z m 9,1 c 2.5383,0 1.9555,0 0,0 z m 8,0 c 10.822,0.36784 -14.452,8.1807 0,0 z m 27,0 c 25.090999,-1.4996 -12.97,6.608 0,0 z m 25.999999,0 c 3.1662,4.6619 -8.7705,1.8273 0,0 z m 77,1 c 9.6464,-1.2866 -7.093,9.1822 0,0 z m -305,3 c 2.3352,2.3352 2.846,2.846 0,0 z m 62.000001,0 c -8.9232,8.2636 10.018,2.1646 0,0 z m 90,0 c 10.226,-2.034 -9.1585,9.6636 0,0 z m 36,0 c 2.5383,0 1.9555,0 0,0 z m -104,1 1,2 -1,-2 z m 60,0 c 12.985,3.1301 -4.5163,5.4442 0,0 z m 24,0 c -8.5042,16.128 -24.617,8.7486 0,0 z m -15,1 c 4.0083,3.622 -5.6991,7.2199 0,0 z m -149.000001,1 2,1 -2,-1 z m 79.000001,0 1,2 -1,-2 z m 12,1 c 2.5383,0 1.9555,0 0,0 z m 42,0 c 5.5751,-1.4508 -4.418599,5.111 0,0 z m -72,1 c -2.2036,2.5481 4.7341,10.631 0,0 z m 28,0 c 2.5383,0 1.9555,0 0,0 z m -11,1 1,2 -1,-2 z m 151.999999,0 c 14.681,-0.19197 -13.568,3.6809 0,0 z m -137.999999,1 c 3.9165,-0.84007 1.1996,1.7788 0,0 z m 144.999999,0 c 3.1829,0 4.3737,0 0,0 z m -195.999999,2 c -4.6634,17.148 14.007,0.948 0,0 z m 25,0 c 2.6275,5.3042 -1.1823,2.9417 0,0 z m 96,0 c 2.8762,8.0121 -5.4867,9.1544 0,0 z m -146.999999,2 0,0 z m 26.999999,0 1,2 -1,-2 z m 49,0 c 6.3533,-0.37686 -6.5477,3.1008 0,0 z m 99,0 c 2.5383,0 1.9555,0 0,0 z m -53,6 c 8.888,2.9716 -15.172999,12.42 0,6 -8.792799,11.665 -13.410999,14.649 -21.999999,11 8.2419,5.9158 -12.6230005,2.4785 0.98712,-6.219 4.7625,-16.034 7.4962,5.216 17.447999,-7.9137 l 3.5652,-2.8673 z m -118.999999,1 0,0 z m 111.999999,0 1,2 -1,-2 z m -98.999997,1 c -4.8205,7.4803 2.226097,3.1411 0,0 z m -35.000004,2 c 3.8126,5.7652 0.96673,7.3947 0,0 z m -13,2 c -2.3437,4.9917 5.392,6.2264 0,0 z m 70.000001,0 c 2.6275,5.3042 -1.1823,2.9417 0,0 z m -42.999999,3 c 4.7829,9.0006 -0.23724,12.689 0,0 z m -6.000002,1 c 2.6275,5.3042 -1.1823,2.9417 0,0 z m 58.000001,0 1,2 -1,-2 z m 107,0 1,2 -1,-2 z m 6,2 c 0.7136,1.7945 -3.327,6.149 0,0 z m -51.999999,1 2,1 -2,-1 z m -71.000001,1 0,0 z m -3,1 c 0.46921,2.7608 -0.67092,13.96 -0.5,4 l 0.5,-4 z m 101,0 c 16.687,7.3089 -13.635,7.5364 7.0482,8.174 16.339,1.9679 -26.581,8.2575 -21.048,-1.174 3.7297,8.5226 2.3607,-12.484 4.322,0 10.935,-1.1863 -7.6814,-3.9771 9.678,-7 z m 22,0 c 3.9165,-0.84007 1.1996,1.7788 0,0 z m -138.999997,1 0.999997,2 -0.999997,-2 z m 33.999997,0 1,2 -1,-2 z m 204.999999,0 c 17.318,-0.26682 -14.819,9.7907 0,0 z m -302,2 c 5.4519,4.0891 -4.7066,9.6907 0,0 z m 38,0 c 3.758802,9.757 0.42531,6.3044 0,0 z m 60.000001,0 c 2.2569,0.41657 3.064,7.4635 0,0 z m 6,0 c 25.7670005,1.3485 -11.325,14.083 0,0 z m -89.000001,1 2,3 -2,-3 z m 57.000001,0 c -1.3244,13.244 -1.3244,13.244 0,0 z m -14.999997,1 c 0.64153,8.1364 -1.615,13.129 0,0 z m 23.999997,0 1,2 -1,-2 z m 46,0 c 7.4714015,-3.3257 -3.0397,7.9848 0,0 z m -65.999997,1 c 6.722197,5.2783 -2.6225,18.443 0,2.7462 l 0,-2.7462 z m 82.9999981,0 c 2.5382999,0 1.9554999,0 0,0 z m -64.0000011,1 1,2 -1,-2 z m 5,0 c 3.9165,-0.84007 1.1996,1.7788 0,0 z m 207.999999,1 c 3.1433,-1.1853 8.1159,2.1997 0,0 z m -193.999999,1 c 3.1374,2.3755 -5.3187,7.9989 0,0 z m -77.000001,2 3,2 -3,-2 z m 45.000001,1 c 2.3419,11.032 -8.206797,11.563 0,0 z m -22.999999,1 2,3 -2,-3 z m 59.999999,1 c 9.7353,3.2004 23.345,4.7975 6.5255,10.13 -13.971,21.065 -9.3075,-2.8161 -6.5255,-10.13 z m -57.999999,2 c 2.2569,0.41657 3.064,7.4635 0,0 z m 8.000002,1 c 2.6275,5.3042 -1.1823,2.9417 0,0 z m 22.999997,0 c 2.916,11.628 -10.286,15.356 0,0 z m 18,0 c 7.3385,0.99362 2.2043,23.959 -3.1595,7.3521 -2.6172,-6.5467 1.3844,-3.0633 3.1595,-7.3521 z m -45.999999,3 1.000002,2 -1.000002,-2 z m -33.000002,1 5,1 -5,-1 z m 34.000004,1 c 2.6275,5.3042 -1.182302,2.9417 0,0 z m 21.999997,0 c 2.6275,5.3042 -1.1823,2.9417 0,0 z m -59.000001,1 c 2.5383,0 1.9555,0 0,0 z m 7,0 c 14.148,7.6257 -17.251,10.538 5.2129,15.243 11.723,5.721 23.849002,19.554001 4.7871,11.757 -0.56538,6.7859 -28.211,-5.4685 -17.878,4.3366 -15.808,3.293101 -22.298,-0.84382 -6.8719,-10.087 6.7191,-7.0878 -12.443,-2.634 -5.2502,-13.25 12.746,11.768 15.547,5.3653 11,1 6.4955,3.7804 -3.4361,-9.048 6.5988,-4.9795 l 2.4012,-4.0205 z m 43.000004,1 c 5.651397,8.4103 3.742297,27.244 -0.75009,11.25 0.25003,-3.7501 0.50028,-7.5002 0.75009,-11.25 z m -12,1 c 2.3352,2.3352 2.846,2.846 0,0 z m 36.999997,1 c 15.273,13.126 -8.0701,8.6664 0,0 z m 250.999999,0 c 0.44463,5.2463 -4.7907,3.1635 0,0 z m -342,3 c 2.2569,0.41657 3.0641,7.4635 0,0 z m 49.000002,0 1,2 -1,-2 z m 1,2 1,2 -1,-2 z m 28.999999,0 c 4.8091,7.3542 3.3807,12.607 -1,4 8.1369,15.511 -5.7502,8.3723 1,-4 z m 18,1 c 2.5383,0 1.9555,0 0,0 z m -7,3 c 8.1808,4.8384 4.4172,6.4187 0,0 z m -42.999999,3 c 2.5383,0 1.9555,0 0,0 z m -8.000002,1 c 9.172102,3.9671 10.919002,14.938 2.25,2.4999 l -2.25,-2.4999 z m 14.000004,0 c 7.2204,2.6649 4.5918,8.319 0,0 z m -38.000004,2 c -4.7468,7.1888 12.989,5.4093 0,0 z m 50.000004,1 c 9.605997,5.3364 -0.70775,17.232001 0,0 z m 6.999997,4 c 2.5383,0 1.9555,0 0,0 z m -9.999997,6 c 8.010297,4.1968 -1.3524,5.510201 0,0 z m 4.999997,2 c 5.6,-1.5859 -2.292097,4.620001 0,0 z m 12,1 c 12.616,-0.9643 7.7569,3.964401 0,0 z m -28.999999,1 c 8.780202,6.990601 1.6256,6.311701 0,0 z m 16.999999,1 c 2.5383,0 1.9555,0 0,0 z m -9.999997,2.000001 c 2.5383,0 1.9555,0 0,0 z m 9,1 c 5.672397,-0.98035 -5.8132,4.5728 0,0 z m -5,2 c 17.713997,4.1323 -5.5826,6.3976 -1.2105,1.1124 l 1.2105,-1.1124 z m -56.000004,3 c 3.9165,-0.84007 1.1996,1.7788 0,0 z m 64.000001,1 c 9.3807,-0.66667 -6.161797,7.1046 0,0 z m 12,0 c 2.5383,0 1.9555,0 0,0 z m -26.999997,2 c 3.1829,0 4.3737,0 0,0 z m -48.000004,2 c 4.8569,-1.8822 4.2764,6.9878 0,0 z m 48.000004,2 c 2.3352,2.3352 2.846,2.846 0,0 z m -4.000002,1 1,2 -1,-2 z m 8.000002,0 c 2.5383,0 1.9555,0 0,0 z m 9.999997,2 c 2.3352,2.3352 2.846,2.846 0,0 z m -3.999997,3 c 5.658897,-1.3749 -4.2535,5.1738 0,0 z m 2.999997,1 c 8.5818,3.2386 -4.314697,6.0555 0,0 z m -4.999997,3 c 2.5383,0 1.9555,0 0,0 z m 9.999997,6 c 5.8782,6.6715 -6.693497,0.17142 0,0 z m -5,23 c 12.581,1.5282 0.25995,9.6963 0,0 z m 5,5 1,2 -1,-2 z m -4,1 c 4.7671,12.284 -5.011397,15.222 0,0 z m 9,4 c 4.7697,2.952 -4.7401,2.7605 0,0 z m -2,2 1,2 -1,-2 z m -11.999997,4 c 4.769697,2.952 -4.7401,2.7605 0,0 z m -14.000002,1 c 5.592702,5.3975 -4.5927,2.3166 0,0 z m 19.999999,0 c 2.9515,2.2662 -4.355597,10.87 0,0 z m -22.999999,1 c 0.7136,1.7945 -3.327,6.149 0,0 z m 13.000002,3 c 0.38329,10.699 -11.923002,15.454001 -1.7499,3 l 1.7499,-3 z m 7.999997,1 0,0 z m -16.999999,5 c 3.916502,-0.84007 1.1996,1.7788 0,0 z m 14.000002,0 1,2 -1,-2 z m -3,1 c 0.96117,4.0374 -1.8323,11.870001 0,0 z m 5.999997,5 0,0 z m -14.999999,1 1.000002,2 -1.000002,-2 z m 7.000002,1 0,0 z m 286.999996,58 c 19.509,0.6417 7.1394,7.3815 0,1.3561 l 0,-1.322 0,-0.0341 z"
       id="path-1" />
    <path
       style="fill:#555555"
       inkscape:connector-curvature="0"
       d="m 45.224328,-245.8302 c 7.8719,-2.3006 -5.148,7.6467 0,0 z m -7,4 c 7.4112,3.4154 -7.1707,4.4632 0,0 z m 19,2 c 11.591,2.1266 -25.957,14.679 -6.5,4.5 l 3.25,-2.25 3.25,-2.25 z m 20,3 c 5.6,-1.5859 -2.2921,4.62 0,0 z m -16,1 c 2.2181,2.7291 -6.9027,5.1363 0,0 z m 58.000002,5 c 10.073,8.2456 -29.254002,15.046 -7,4 l 3.5,-2 3.5,-2 z m -67.000002,4 c 7.9898,-0.0713 21.961,2.0735 5,3 14.499,11.74 -38.452,4.0076 -11.928,1.089 l 3.82,-1.73 3.11,-2.359 z m -11,1 c 10.842,-1.5312 -8.1738,5.4894 0,0 z m 81.000002,1 c 9.0103,0.51228 15.036,4.7458 17.321,13.642 5.35,8.86 -21.52,17.384 1.18,15.858 17.739,0.99288 2.2055,5.2254 -6.5,4.5 -1.2256,4.0569 16.868,2.4141 2.9214,7.2376 -11.237,4.7578 -24.334,6.4599 -4.7105,9.9143 14.71,1.873 6.97,13.738 -2.21,8.848 2.6301,-11.205 -13.663,9.1656 2,4 -11.07,7.1338 9.5277,3.06 5,17 13.941,-2.7834 12.889,9.1091 8,5 1.8278,-7.8553 -21.766,20.718 -1,9 1.882,-9.8645 28.898,-13.479 11,-19 4.84,-7.8014 17.768,-6.6782 17.5,-8.5 10.002,-10.14 -23.249,2.0292 -16.448,-8.3516 -9.5,-2.928 -18.74,-9.112 -4.05,-7.148 6.5185,-17.31 15.434,8.6433 28.209,-1.3487 9.2346,-1.4323 -6.576,17.423 10.482,14.573 16.064,10.306 -2.5092,19.059 19.309,26.026 5.6383,3.723 1.1315,9.0057 7.4087,9.9322 -9.5902,11.226 36.081,7.7494 13.527,1.215 -0.69968,-7.6517 23.605,9.072 27.267,18.103 12.36,14.21 -26.93,-0.4 -20.2,15.5 24.17,-7.4729 54.578,29.924001 44.2,42.466001 -24.742,-1.924 3.4934,32.823 8.6625,44.748 13.355,23.777001 34.089,51.457 21.646,79.591 -5.4223,10.253 -21.154,16.361 -3.653,22.479999 2.09,13.48 -24.32,-9.879999 -34.86,-2.279999 -3.9944,-13.849 -18.056,-15.841 -25.065,-7.0652 22.681,3.5616 22.3,24.284999 10.963,41.230999 -1.6176,16.965 -39.188,28.486 -35.398,12.834 19.21,-4.75 -18.59,-15.13 -6.5,-26 1.2694,-10.787 -27.501,-37.449999 -19,-17 -20.618,-1.9196 -20.568,17.927 -1.2498,21 8.8979,2.8936 -10.432,2.4764 3.2498,11 10.185,9.3945 -4.3537,7.7683 9.521,17.072 14.546,5.4523 6.9644,7.4932 4.6614,14.293 14.014,15.819 -15.022,22.649 -26.288,14.9 -18.479,-4.9988 5.6872,-13.973 -5.6787,-10.05 -9.8931,-5.7303 -42.319,-7.6934 -16.215,0.2852 23.589,4.8404 -16.297,4.3154 0.25009,14.25 4.7977,-0.61378 31.818,-1.6767 12.587,5.7041 -22.818,-2.966 -34.701,36.846 -55.147,19.371 -11.96,-9.56 27.33,3.85 17.31,-13.82 -13.47,4.5564 -19.046,-1.1413 -25,-8.2499 -19.863002,-4.2512 11.736,15.433 -10.44,19.995 -11.338002,-5.1585 -21.470002,35.137 -24.311002,16.765 9.6077,-14.281 6.2985,-23.983 -5.6138,-30.24 -7.6928,-25.007 -11.061,20.219 -21.17,7.8812 -7.74,-5.33 -25.1,-23.83 -25.46,-6.15 -16.806,3.4585 -31.5599995,37.903 -44,20 17.804,-7.4665 44.169,-28.842 22.51,-46.073 -20.88,-23.03 -56.852,-29.75 -69.76,-60.43 -0.908,-21.179999 -17.556,-34.469999 -29.676996,-51.039999 -12.744002,-11.18 -6.304,-37.079999 -5.573,-43.459999 -13.405002,10.87 -15.614002,-25.490001 -3.5,-13.750001 7.799,-8.06 16.672996,1.05 15.999996,-15.25 3.027,2.9303 -1.1141,22.247 2.1824,18.635 17.564,-1.0386 0.32895,-28.385 12.491,-40.309 4.82,2.3 3.889,11.22 7.327,-3.83 10.397,-12.7 -8.373,-4.15 -3.768,-8.79 5.642,-3.7 14.324,-2.05 2.768,-5.71 12.46,-1.4154 -8.3329,-7.912 -8,1 -5.1149,-10.669 18.151,-1.0357 9,-13 22.219,10.869 0.51191,-28.274001 18,-17.000001 1.8028,-7.3912 1.7779,-34.24 20,-41 -5.5865,8.9486 18.5050005,-5.1998 -1,-5 5.5022,-11.504 20.2800005,13.488 13,-3 -17.785,-11.164 23.187,-22.274 15.678,-7 -8.8424995,5.7437 23.071,-3.6161 28.572,-6 13.457,-10.365 11.828,10.613 3.7497,12 8.862,-2.1384 42.802,-7.439 16,-7.7501 -16.08,-1.87 19.29,-12.408 9,-0.25 16.267,-2.6185 -11.633,-13.541 8.7501,-9.2499 9.0366,-2.405 -3.1735,-7.0162 -4.2571,-6.1394 1.18,-6.21 -13.77,3.189 -2.49,-3.611 -5.38,-11.19 -11.99,-2.637 -16.95,-8.074 -8.77,6.586 -37.99,22.354 -18.05,4.074 -8.4578,5.3064 -8.2227,-8.8782 0,-2 7.231,-20.866 -11.193,-3.4837 -18.409,-4.1824 6.41,-14.706 -13.4899995,7.375 -8.34,1.182 1.33,-9.153 0.64,-10.176 -5.2499995,-3 1.2827,-7.1021 -11.7770005,4.8323 -4.7045,10.365 -4.6985005,10.115 -1.5451005,1.5447 -10.6990005,5.2078 -9.5403,-4.0899 6.3162,23.662 -9.9121,13.149 -9.98,2.06 -21.657,-16.098 -7.68,-3.72 9.955,-0.98548 3.7507,-16.195 11,-3 3.0971,-4.9492 -8.6549,-13.169 7,-12 2.8553,-12.531 16.9800005,-18.129 12.2320005,-22.73 6.96109947,-7.3934 18.9579995,-6.0173 16.5169995,-1.7702 5.783,-5.7172 14.782,-4.0309 3.2502,1.5 10.807,0.37464 26.56,-3.6576 21,5 13.486,1.9227 19.197,15.654 16,-5 5.7082,-2.4125 -2.1194,-3.3158 11.128,-4.5213 14.96,-2.493 29.91,-4.986 44.870002,-7.479 -12.310002,9.684 -9.840002,17.325 -2.46,6.808 1.17,-5.813 1.56,3.071 7.46,-2.808 -7.988,18.239 3.6759,-7.91 6,2 1.1808,-10.518 -20.445002,-4.6215 -2,-11 -11.466,-1.3236 -24.524002,3.7335 -33.327002,3.1876 12.324,-8.1092 -10.784,-7.0982 -4.7357,3.577 -8.18,9.39 -23.19,-1.256 -4.94,-0.765 -5.15,0.539 -15.02,-12.864 -11,-1 -4.86,-12.288 -35.11,15.334 -15.36,-2.185 19.14,-5.175 3.18,-6.803 5,-8.815 10.43,-0.76 15.99,-0.37 16.36,6 7.3956,2.6812 -1.1502,-3.4846 8,-3 -3.3147,-9.7691 23.907,1.3407 34.214002,-4.2492 9.5153,-1.5137 3.2796,-7.5487 16.598,-4.3396 16.46,-11.949 -16.32,-3.455 -3.81,-11.411 z m 18,2 c 2.5383,0 1.9555,0 0,0 z m -60.000002,2 c 13.028,6.9339 -17.183,4.322 0,0 z m -53,2 c 2.5383,0 1.9555,0 0,0 z m 5,0 c 11.617,1.9723 39.778,1.8615 12.682,4.6684 -8.33,1.847 -31.88,8.377 -12.68,-4.668 z m -76,2 c 3.9302,13.382 -17.604,10.673 0,0 z m 110,1 c 16.259,0.18353 6.5962,9.3485 -2,5 l 1,-2.5 1,-2.5 z m 84.000002,2 c 10.14,-2.2141 -0.22063,5.9817 0,0 z m -89.000002,1 c 2.5383,0 1.9555,0 0,0 z m 71.000002,1 c -16.004,5.3121 5.9688,5.1539 0,0 z m -122.000002,1 c 11.594,0.38373 -12.6349995,23.782 -13.4469995,12.271 -10.1590005,5.8017 -15.0880005,11.108 -8.2295005,12.635 -3.55,12.449 -13.46,17.665 -3.32,3.094 -8.0125,-1.6836 2.1505,-10.133 -9,-9 5.7355,-3.2185 16.4750005,-10.212 23.99999997,-18 -12.86899997,10.389 6.21610003,7.5751 9.00000003,1.5 l 1,-2.5 z m 22,1 c 10.14,-2.2141 -0.22063,5.9817 0,0 z m -14,2 c 6.8928,-0.10668 -6.9354,10.705 7,3 -6.8294,16.388 27.695,-9.2213 16.272,1.5245 -1.4801,3.3541 5.8031,1.3611 -5.4851,5.8576 -7.0103,13.237 -12.676,1.0001 -11.536,1.6178 -9.95,6.157 -9.91,-7.61 -19.25,3 1.7384,-6.8837 8.7325,-9.9729 13,-15 z m 11,0 c 2.5383,0 1.9555,0 0,0 z m 39,1 c 2.5383,0 1.9555,0 0,0 z m 25,0 2,1 -2,-1 z m 41.000002,0 c -17.182,7.7729 -0.0919,11.538 0,0 z m -193.000002,2 c 6.4699,-2.3041 -5.9167,7.7165 0,0 z m 33,6 c 13.643,0.76765 -21.327,31.416 -5,8 l 2.5,-4 2.5,-4 z m 104,1 c 2.6275,5.3042 -1.1823,2.9417 0,0 z m -81.9999995,1 c 0.31659,9.3919 -9.2051005,10.889 0,0 z m 96.9999995,1 1,2 -1,-2 z m -44,2 c 2.5383,0 1.9555,0 0,0 z m 73.000002,1 c -14.07,9.0739 13.141,0.84306 0,0 z m -36.000002,4 c -7.3537,8.2055 7.9656,2.4649 0,0 z m -127,1 c 9.7531,1.9236 -9.111,12.613 0,0 z m 46,0 c -11.4139995,4.6086 7.4751,6.6215 0,0 z m 110.000002,0 c -13.797,6.1571 -8.0573,9.6021 -18.000002,23 6.609002,-12.654 21.631002,-10.142 31.000002,-23 -4.0494,2.7078 -8.8723,1.9704 -13,0 z m 34,0 c 7.2156,-2.2724 3.7014,6.6064 0,0 z m -83.000002,1 c -7.8685,4.4573 -23.465,13.199 -3.4675,6.9609 8.87,-4.785 14.16,-2.823 5.47,6.039 12.01,-3.971 11.17,-9.08 8.5,-10.5 11.47,-3.208 -9.07,-2.509 -10.5,-2.5 z m -95,3 c 9.5543,-1.7752 -7.4499,9.0498 0,0 z m 48,1 c -0.64434,3.0467 8.4983,7.5498 0,0 z m 8,0 0,0 z m -27.99999953,1 c -0.84006997,3.9165 1.77879953,1.1996 0,0 z m -47.00000047,1 1,2 -1,-2 z m -4,1 c 4.8347,7.3157 10.518,-0.42315 7,13 -16.139,-2.187 -7.8293,23.117 -3.8695,22.87 -4.2111,4.5474 -6.7294,-2.2479 -10.269,9.4073 -4.593,11.12 -7.101,13.41 -5.862,-0.18 7.645,-4.12 9.317,-26.064 2,-15.422 1.909,-9.849 11.016,-18.628 11,-29.678 z m 21,23 c -15.144,4.8628 1.0014,-24.251 -9,-7 -1.8736,-16.314 -4.5823,17.24 -7,4 -1.9977,7.1985 -2.7089,14.237 -5,1 7.7717,-5.4179 20.718,-31.135 22,-15.5 -7.7333,13.14 15.973,-15.607 5.6871,1.1235 -3.77,4.669 -6.49,10.28 -6.69,16.376 z m -9,-22 1,2 -1,-2 z m 76,0 c -9.716,13.07 7.1099,0.0375 0,0 z m 20,2 c -7.242,7.4381 -2.0323,9.1011 0,0 z m -16,2 c -10.251,9.3102 -3.2232,10.932 3,1 l -3,-1 z m 53,0 c -7.623,8.4457 5.6518,1.5839 0,0 z m 28.000002,0 c 3.0178,6.2456 -10.503,-1.2925 -1,7 6.4397,-3.0563 5.2519,-2.9192 1,-7 z m -49.000002,1 c -14.4,4.3063 -2.9984,6.1644 4,1 l -4,-1 z m -130,1 c 2.3386,10.216 -6.4802,12.479 0,0 z m 89,2 c -7.2964,10.012 8.8276,3.2858 0,0 z m 77.000002,0 c -12.576002,8.0169 7.9506,1.6886 -3,10 13.309,-3.274 11.101,-2.0124 3,-10 z m -18.000002,1 c -13.905,3.8461 -31.655,1.4136 -13,10 -11.916,5.1037 6.2225,8.9808 8.6684,-2.0918 -1.59,-1.184 11.34,-9.307 4.33,-7.908 z m -202.999998,2 c 6.8507,9.3891 18.454002,31.188 8,31 6.496202,10.578 15.157998,33.757 -2.2504,14.25 -10.122,-18.066 20.694998,19.373 4.6135,-3.164 -14.295,-16.581 -4.3603,15.239 -17.159,0.3237 -5.9411,-6.2158 15.692,-1.1354 -1.1884,-9.5717 -9.286,-9.14 -3.821,-28.18 2.984,-7.84 8.2913,15.878 9.1012,4.0396 0,-4 20.939002,8.634 -7.3234,-14.019 4,-11 l 0.5,-5 0.5,-5 z m 174.999998,1 c 3.3347,3.3347 4.39,4.39 0,0 z m -16,1 c 2.225,4.8036 -6.1802,5.1026 0,0 z m -112,2 1,2 -1,-2 z m 59.0000005,0 1,2 -1,-2 z m 126.0000015,0 c -13.177,5.109 9.0015,4.7417 0,0 z m -254,1 c 11.541,12.562 -14.901,17.98 -1.2704,2.541 0.4235,-0.847 0.8469,-1.694 1.2704,-2.541 z m 150.999998,3 c 2.5383,0 1.9555,0 0,0 z m 107.000002,0 c 6.118,12.464 -13.857,-3.9607 -14.5,11 -5.0342,11.225 20.328,0.39027 3.5,-2 5.3537,3.7529 21.682,-7.5453 11,-9 z m -13,1 3,2 -3,-2 z m -230,1 1,2 -1,-2 z m 19,2 c 4.571002,11.188 -1.3793,7.6914 0,0 z m 89.999998,1 1.0000005,2 -1.0000005,-2 z m -76,1 c 2.5383,0 1.9555,0 0,0 z m 135,0 c 6.361,-2.6374 0.0339,5.2252 0,0 z m 7,0 c 2.8459,3.7398 -5.3508,6.9784 0,0 z m -42,1 c 4.4132,-1.9859 3.8404,3.9838 0,0 z m -133.999998,1 c 3.3347,3.3347 4.39,4.39 0,0 z m 48.999998,0 c 3.8609,4.7697 -0.10626,8.1644 0,0 z m 62.0000005,0 c 5.893,5.7469 -0.6719505,2.1938 0,0 z m 134.0000015,0 c -5.0258,7.2333 4.2299,-0.26983 0,0 z m -201.000002,1 c 2.3352,2.3352 2.846,2.846 0,0 z m 71.0000005,0 c 6.32819947,-2.7628 1.7926,11.139 0,0 z m 107.0000015,0 2,1 -2,-1 z m -55.000002,1 c 6.4147,6.7982 -4.0613,3.5279 0,0 z m 37,0 3,2 -3,-2 z m -178.999996,1 c 7.506496,7.3341 -1.1828,14.783 0,0 z m 193.999996,0 3.000002,1 -3.000002,-1 z m -237.999998,2 c 10.616,3.7493 -0.19823,11.125 0,0 z m 48.000002,0 1,2 -1,-2 z m 178.999996,0 c -12.271,0.33799 -17.744,11.522 -2.8779,4.6465 2.01,-0.86 9.26,-5.966 2.88,-4.65 z m 12,0 c -3.8632,1.3792 -1.3912,2.6488 0,0 z m -230.999998,1 3,2 -3,-2 z m 61.999998,0 c 2.6275,5.3042 -1.1823,2.9417 0,0 z m 4,0 c 6.1446,11.596 -5.2741,13.146 0,0 z m 135,0 2,1 -2,-1 z m 50.000002,0 c 0.17097,7.8326 8.8264,-1.4666 0,0 z m -195.000002,1 c 8.52,6.2746 -7.3261,27.818 -1.5,7.4996 l 0.75,-3.75 0.75,-3.75 z m 248.000002,0 c -2.9551,8.4038 27.602,3.9579 8.7991,1.711 l -4.37,-0.92 -4.43,-0.79 z m -129.000002,1 c 2.5383,0 1.9555,0 0,0 z m 27,0 c -0.84007,3.9165 1.7788,1.1996 0,0 z m 24,0 c -2.426,4.5455 6.333602,7.8485 3,7.5 10.118002,-0.9756 -0.99353,-5.3362 -3,-7.5 z m 31.000002,1 c -9.4309,10.454 6.95,-2.4016 0,0 z m 9,0 c -1.1697,7.5014 7.5298,-2.2043 0,0 z m 31,0 c -4.3808,5.0884 5.6118,-1.459 0,0 z m -254.000002,1 c 7.456,1.5237 -3.143096,13.682 0,0.0682 l 0,-0.07 z m 206.000002,0 c -10.163,7.1651 10.741,0.95295 0,0 z m -10,1 c -7.233002,3.7666 6.3942,-0.60866 0,0 z m 23,0 c -11.627,7.9966 2.8845,6.8978 0,0 z m -142.000002,3 c 8.2960005,6.5338 10.7370005,3.0681 0,0 z m 118.000002,0 c -8.774802,6.7639 3.129,5.1097 0,0 z m 69,0 c -13.39,7.1582 6.9672,-1.0799 0,0 z m -274.999998,1 c 6.6647,1.0652 19.306996,29.483 13.163996,27.481 -4.292996,1.49 -11.647996,-13.88 -3.164,-4.48 -3.332996,-7.67 -6.666996,-15.33 -9.999996,-23 z m 168.999996,0 c -10.415,15.875 8.2877,1.5034 0,0 z m -154,1 c 1.0336,6.1316 -1.9573,7.1288 0,0 z m 271.000002,0 c -14.764,7.4368 0.53868,22.654 12.795,23.598 18.395,10.4 -17.396,-20.962 5.5121,-7.3407 6.4989,16.245 15.535,-3.2392 0.67634,-6.4316 -4.35,-8.09 -5.72,-9.44 -18.98,-9.83 z m -100.000002,1 c -10.114,9.8873 9.041,-1.5057 0,0 z m 32.000002,0 c -5.3614,7.494 5.8012,-2.0074 0,0 z m -165.000002,2 c 2.3352,2.3352 2.846,2.846 0,0 z m 94,0 c -16.321,20.857 -46.51000003,-0.40465 -66.27,14.901 -22.118,6.84 -17.37,34.22 -17.73,49.600001 4.0095,12.612 7.8911,-10.155 12,6.5 -15.783,0.44212 13.126,14.598 -3.9431,10.171 -7.41,7.39 -15.934,21.87 -1.06,9.83 13.603,-11.003 7.8194,1.2334 12.055,-1.5298 3.2278,-3.0259 -7.2977,-13.143 3.945,-6.4702 -4.2653,6.8411 5.0446005,22.544 0,7 7.2681005,-1.9637 21.269,4.5223 31.042,-6.7989 14.682,-5.4794 30.46,-17.311 26.958,-34.777001 -6.2001,-13.908 21.355,-24.763 8,-9.4243 4.956,-2.7621 16.399,-13.161 3,-9 -2.5554,-3.5722 -4.6737,-15.515 -13,-9 0.4714,-7.2879 5.2957,-13.632 5,-21 z m 80.000002,0 c -0.84007,3.9165 1.7788,1.1996 0,0 z m -64.000002,1 c -4.5103,5.8345 2.2358,1.9635 0,0 z m 15,0 c -26.064,12.29 13.373,2.2684 0,0 z m 29.000002,1 c -19.585002,7.8131 12.341,2.6166 0.0341,0 l -0.03,0 z m -181.000002,1 1,2 -1,-2 z m 56,0 c -4.7697,2.952 4.7401,2.7605 0,0 z m 44,0 c -8.3838,7.0018 6.7981,5.6129 0,0 z m 31,0 c -1.6781,5.4563 4.6345,2.2962 0,0 z m 73.000002,0 2,1 -2,-1 z m -217.000002,1 c 0.7136,1.7945 -3.326996,6.149 0,0 z m 181,0 c -10.794,4.6624 -35.468,6.42 -26,12 -17.757,4.3091 -8.9806,7.3799 3.5972,1.7468 11.81,-0.4 13.1,-7.07 27.4,-6.75 -1.727,-2.756 0.0185,-8.5749 -5,-7 z m 27.000002,0 c -4.9559,8.1116 2.6147,2.3228 0,0 z m 97,0 c 13.207,2.0937 -2.1949,8.337 0,0.0341 l 0,-0.03 z m -246.000002,1 c 7.2122,3.6431 -9.1721,6.22 0,0 z m 83,0 0,0 z m 112.000002,1 c -9.3854,7.3016 -15.215,-0.73791 -16.5,1.5001 -16.15,-1.76 -7.39,5.88 -9.5,15.5 9.0992,-15.29 21.947,3.9227 26,-17 z m -102.000002,2 c -3.4496,3.7708 0.95103,1.4811 0,0 z m 50.000002,0 c -18.400002,8.662 14.031,-0.35395 0,0 z m -188.000002,1 c 10.706,18.213 -11.22,5.1951 0,0 z m 194.000002,3 c -3.0314,10.033 6.7657,3.7774 0,0 z m -61.000002,1 c 2.3352,2.3352 2.846,2.846 0,0 z m -89,2 c -4.7697,2.952 4.7401,2.7605 0,0 z m 145.000002,0 c -15.947,9.3537 8.4809,8.8534 0,0 z m 57,1 c -13.149,14.88 13.201,0.28731 0,0 z m -281,1 0.58706,0.58706 -0.587,-0.59 z m 196.999998,0 c 3.159,9.8244 -16.116,-3.6832 -5,7 4.164,-2.2114 13.683,-3.8395 5,-7 z m 41.000002,0 c -11.936,6.6958 -2.7252,11.821 -4,7 2.4938,-0.97136 5.6001,-3.9719 4,-7 z m 50,0 c -3.9365,6.3873 15.275,0.27656 0,0 z m -184.0000015,1 c 11.9509995,-5.7883 37.4749995,16.821 16.0169995,7.2262 -23.593,-15.196 -30.856,19.833 -33.914,20.563 -7.22,-10.48 10.38,-22.28 17.9000005,-27.79 z m 106.0000015,0 c 6.0493,11.649 10.449,-3.901 0,0 z m -196.999998,3 c 9.492496,2.3478 11.880996,19.217 1,6 3.1305,-1.0559 -0.72452,-5.0903 -1,-6 z m 248.999998,1 c -14.51,2.5825 -23.699,20.516 -4.2318,9.3508 4.79,-1.77 16.79,-10.8 4.23,-9.35 z m -45,1 2,1 -2,-1 z m -155.000002,1 c 2.5383,0 1.9555,0 0,0 z m 255.000002,0 c 3.7051,12.019 16.768,2.7482 0,0 z m -332,2 c 17.045,2.3313 10.569,7.4316 -3.0467,8.2177 -12.596,2.537 13.644,18.047 -5.8858,16.153 -1.3283,3.935401 20.948,1.7792 3.9323,9.879701 -0.9403,3.6279 17.893,-1.0069 13.489,-11.834001 13.481,-17.653 -1.2384,21.286001 14.061,25.302001 12.264998,14.33 0.198,-0.93 -4.55,2.28 3.383,11.059 19.567998,10.409 13.644002,5 10.773996,3.3093 -8.8073,-35.339001 3.787796,-15.65 5.2139,9.7903 -0.85988,27.239 5.5683,24.15 -0.88605,14.713 -17.483996,20.276 -17.848996,2.7572 -0.555582,-18.507 -25.062002,2.0656 -16.651002,2.7431 24.503002,-13.99 -4.623,38.58 14.5,19 -2.7921,12.862 -15.401,28.424 -10.735,5.4664 5.7042,-14.897 -3.0878,-5.079 -7.0585,-9.3038 -6.511,-14.06 -17.137,-37.76 -8.714,-46 -13.503,-0.98 -9.9364,-40.990001 5.508,-38.160001 z m 122.99999797,1 c 3.91650003,-0.84007 1.19960003,1.7788 0,0 z m 98.00000003,0 c -9.0942,6.5691 22.986002,8.981 2.499902,1.5 l -2.500002,-1.5 z m -171,2 c 6.219,6.8453 -1.9646,3.6869 0,0 z m 147,0 c 1.8906,4.6262 7.7212,-1.956 0,0 z m -158,2 c 2.5383,0 1.9555,0 0,0 z m 81.0000005,0 1,2 -1,-2 z m 162.0000015,0 c -22.229,18.891 34.71,4.0293 0,0 z m 25,0 c 7.1385,5.7766 9.1394,0.11521 0,0 z m -161.000002,1 1,2 -1,-2 z m 6,0 c 15.525,8.4902 -2.4834,41.109001 -4.528,31.959001 5.95,-9.48 8.12,-21.200001 4.53,-31.960001 z m 105.000002,1 c -4.3808,5.0884 5.6118,-1.459 0,0 z m -21,1 c -8.8712,1.0009 -14.159002,1.9898 -3,7 -8.0223,-4.4348 6.5369,-3.6217 3,-7 z m 9,0 c -12.241,7.6795 -6.7598,5.0741 2.824,0.088 0.52936,-0.27186 -2.5491,0.0123 -2.824,-0.088 z m 93,0 c 0.18536,10.654 17.959,16.55 3.2725,2.5531 l -3.27,-2.55 z m -190.000002,2 1,2 -1,-2 z m 119.000002,0 c -5.5912,5.4712 12.185,-0.81499 0,0 z m -67.000002,1 2,1 -2,-1 z m -127,1 1,2 -1,-2 z m 119,0 c -14.218,9.4803 12.096,-0.13712 0,0 z m -43,1 c 3.1699,13.497 0.93057,13.82 0,0 z m 67,0 c 7.884302,7.7215 13.290002,-2.5697 0,0 z m -181,1 4,2 -4,-2 z m 145,0 c 1.7684,12.992001 15.668,10.9 4,2.4996 l -4,-2.5 z m 30,0 c -10.226,5.1259 -28.452,12.735 -8,7 3.4246,10.267001 6.9112,-13.282 11.915,1.9251 6.209,9.477801 19.261002,-3.1584 10.085002,12.075001 10.767,0.56056 25.316,-22.929001 5,-10.000001 7.0857,-7.7565 -5.0858,-1.2436 2,-9 -24.633002,-1.1056 4.9286,11.921001 -21.000002,-2 z m 35.000002,1 c -12.808,5.1357 1.2122,5.0524 0,0 z m 19,2 c -7.9787,4.8421 5.0118,3.1515 0,0 z m 14,0 c -14.09,3.592 -9.8174,4.1002 3,7 -5.2668,-7.0649 14.256,-4.9542 -3,-7 z m -239.000002,1 c 7.5775,4.5071 -12.366996,12.664001 0,0 z m 252.000002,0 c -4.0205,4.4008 6.4563,1.0824 0,0 z m 19,0 c -4.5019,8.2334 8.4126,-3.0953 0,0 z m -12,63.000001 c 7.3605,22.912 -10.994,-8.6559 -11.533,0.19988 10.71,13.645 -6.9793,-4.8874 -0.46659,8.8001 -10.896,-4.3742 -24.063,-6.168 -7,2.2501 -2.0551,4.1898 7.9095,10.845 18,13.75 -12.371,-8.267 -4.8971,-8.256 5,-3 -5.2884,-2.8924 41.527,14.960001 17.892,-2.1344 -10.729,-13.438 27.252,-30.718 25.86,-32.765 -16.9,-8.3 24.99,-30.51 -3.75,-32.1 15.31,-7.63 -0.44,-16.060001 -5,-12.750001 -20.38,-13 -5.29,7.900001 2,15.750001 -12.089,0.2069 8.9989,28.168 -8.2502,11.25 -4.8043,-6.8314 -1.7308,19.229 -11.75,7.75 5.0558,8.8488 -18.102,-8.6267 -6,6 -14.978,-6.1632 -15.066,3.2825 -18,5 -5.849,-2.0081 6.267,9.7813 -7,3 0.897,3.024 27.644,8.0913 10,9 z m -43,-61.000001 c -4.3808,5.0884 5.6118,-1.459 0,0 z m -156.000002,1 c 4.8716,8.189401 6.2744,23.957001 1.5,7.000001 l -0.75,-3.500001 -0.75,-3.5 z m 72,2 c -8.2867,7.575001 7.4404,-1.6395 0,0 z m 137.000002,9.000001 c 6.3371,-19.540001 -33.105,3.1035 -8.5,0.5 l 4.2502,-0.25009 4.25,-0.25 z m -46,-7.000001 c -12.845,10.740001 2.9118,4.852301 1.678,0 l -1.322,0 -0.36,0 z m -235.999998,1 c 4.7072,2.832301 -5.484302,7.652801 0,0 z m 185.999996,0 c 3.6825,7.098301 -5.5665,7.012801 5,9.000001 2.4748,-8.0529 4.5779,-5.7307 -5,-9.000001 z m 37.000002,0 c -16.445,3.698201 -8.2752,14.634001 1.5001,2.250001 6.286,-3.388401 0.18748,-1.939001 -1.5001,-2.250001 z m 51,0 c 6.5029,2.785101 -4.3717,3.251701 0,0 z m -266.000002,1.000001 c 8.5164,7.2931 -4.863996,2.9941 0,0 z m 169,2 c -0.66907,15.929 13.282,9.3552 0,0 z m -15,1 c -12.824,9.9366 11.68,5.1838 0,0 z m -148,1 c 6.8682,-1.2883 13.065,1.9037 2,3 l -2,-3 z m 231.000002,0 c 4.1547,7.308 11.956,-2.6428 0,0 z m 50,0 c -5.117,6.3533 -1.5692,13.875 11,14 -0.93252,-6.1519 -4.6219,-12.318 -11,-14 z m -285.000002,1 3,2 -3,-2 z m 251.000002,0 c -15.427,11.461 -7.9856,16.049 9,8 -2.1004,-3.5008 -5.1443,-6.5016 -9,-8 z m -90.000002,2 c -20.391,6.3722 19.096,5.2189 0,0 z m 82.000002,0 c -14.381,1.3685 -14.895,7.8248 0.25028,1.9999 l 3.75,-1 -4,-1 z m -231.000002,4 c 16.744,13.433 -22.951996,-1.15 -3,5 l 0.26,-3.18 2.74,-1.82 z m 160,0 c -2.3587,6.6681 8.5224,0.1777 0,0 z m 6,0 c 2.3352,2.3352 2.846,2.846 0,0 z m 42.000002,0 2,1 -2,-1 z m -91.000002,1 c 5.0726,10.136 7.7336,-1.7496 0,0 z m 60.000002,0 c 1.767,7.2945 7.8142,-2.7389 0,0 z m 12,0 c -16.581002,8.7756 16.677,0.0657 0,0 z m 130,0 c -18.375,17.974 15.946,3.9916 0,0 z m -96,1 2,1 -2,-1 z m -218.000002,1 c 7.8176,-2.025 1.8684,4.6286 0,0 z m 195.000002,0 c -15.772,12.123 13.31,-0.96683 1.0341,0 l -1.03,0 z m -241,1 c 3.5966,7.9432 4.8957,4.943 0,0 z m 49.999998,0 1,2 -1,-2 z m 141,0 c 2.1801,5.8441 14.499,12.38 18,9 3.6372,-4.8603 22.670002,5.1968 7.000202,-3.5 -5.161802,-0.30354 -19.686002,-9.6902 -13.000002,1.5 -3.8685,-2.5599 -7.4171,-5.7021 -12,-7 z m 43.000002,0 c -4.7697,2.952 4.7401,2.7605 0,0 z m 141,0 c -7.8006,7.5702 14.521,2.2824 0,0 z m -279.000002,1 c 8.122,4.5061 6.1014,10.374 0,0 z m 119,0 4.000002,2 -4.000002,-2 z m 12.000002,1 c -5.5008,8.262 14.449,7.5985 0,0 z m 28,0 c -4.4505,5.0646 3.3747,-0.98081 0,0 z m -222.000002,1 c 10.009,5.6609 -1.9138,13.761 0,0 z m 96,0 c 16.896,1.7764 -24.886,5.8861 0,0 z m 25,0 c -3.3359,13.32 -16.485,11.036 -23,20.5 -1.9749,0.59723 -12.26,5.4639 0.11527,12.385 7.0932,2.8104 19.749,14.402 16.885,0.11498 12.274,14.181 8.2316,-0.64916 -2,-6 -1.8923,-11.146 3.6746,-8.6522 8,-7.322 -0.61616,-7.5571 9.3362,4.1052 1,-7.678 4.5256,-7.2071 8.5215,-4.3511 18,-5 -6.3334,-2.3332 -12.667,-4.6668 -19,-7 z m 69.000002,0 c 2.3352,2.3352 2.846,2.846 0,0 z m -53.000002,1 c -4.2731,3.4201 9.1145,4.5554 0,0 z m 5,1 c 0.41657,2.2569 7.4635,3.064 0,0 z m -174.999998,1 c -0.11894,12.921 10.647,-0.45936 0,0 z m 281,0 4,2 -4,-2 z m -180.000002,1 c 2.6275,5.3042 -1.1823,2.9417 0,0 z m -59,1 c 5.5751,-1.4508 -4.4186,5.111 0,0 z m -52.999998,1 c -4.0205,4.4008 6.4563,1.0824 0,0 z m 204.999998,0 c 12.249,15.903 -29.404,-2.4731 -11.611,8.4392 17.018,-0.73345 24.398,14.407 31.546,20.626 5.809402,-5.4593 -12.411,-5.2556 3.315402,-3.5653 11.591,8.5324 -9.905302,-9.3491 0.74981,-10.5 -10.624002,2.508 -15.171002,-10.021 -24.000002,-15 z m 36.000002,0 c -9.4161,7.4873 5.1955,1.7651 2.9348,6.0652 4.51,-5.44 9.21,-5.39 -2.93,-6.07 z m -181.000002,1 c 6.4695,4.6114 -5.4353,7.359 0,0 z m 103,0 1,2 -1,-2 z m 4,1 1,2 -1,-2 z m 194.000002,0 c -7.0945,10.125 27.354,1.1182 7.3902,0 l -7.3902,0 z m -174.000002,1 0,0 z m 29,1 c 2.2552,8.3148 9.3259,2.9336 0,0 z m 15.000002,0 c -9.684002,7.4055 6.9973,-1.8704 0,0 z m 153,0 c 3.9065,5.9914 10.271,0.40469 0,0 z m -112,1 c -6.4702,7.1499 12.052,-1.601 0,0 z m -266,1 c -6.1971,10.119 9.3529,-2.1703 0,0 z m 106.999998,1 c 5.2562005,0.27319 -1.8574,9.5766 0,0 z m 119.000002,0 c -5.906202,10.457 4.6731,-1.2166 0,0 z m 34,0 c -9.4275,4.0037 10.95,8.0908 1,0 l -1,0 z m 109,0 c -5.6566,4.6424 13.158,3.8121 0,0 z m -289.000002,1 c -6.2898,5.5382 -18.127,15.89 -3.0606,6.4461 1.967,-2.02 12.401,-7.93 3.061,-6.45 z m 94,0 c -14.288,6.913 14.343,7.297 0,0 z m 177.000002,1 c -15.293,15.61 42.96,9.6986 11.176,1.6442 -3.62,-1.13 -7.41,-1.57 -11.18,-1.64 z m -326.999998,1 c -1.8663,4.7211 6.882996,16.719 11.608996,5.3914 0.953,-6.78 -8.119996,-4 -11.608996,-5.39 z m 121.999996,0 c 2.5383,0 1.9555,0 0,0 z m 90.000002,0 c 4.26,5.1 10.173,-1.041 0,0 z m -188.000002,1 c 3.1374,2.3755 -5.3187,7.9989 0,0 z m -50.999998,1 c -4.4481,5.5821 7.0564,-1.9813 0,0 z m 271,0 c -0.80851,10.669 14.031,-2.7192 0,0 z m 114,0 c -0.54939,13.689 13.334,3.4231 0,0 z m -150,1 c -5.3768,4.7248 7.5997,2.7112 0,0 z m 15,0 c -6.6066,2.1568 7.0336,2.4285 0,0 z m -70.000002,1 c -5.3349,8.0775 24.634,18.834 6,5 l -3,-2.5 -3,-2.5 z m -133,1 1,2 -1,-2 z m 51,0 c -5.6045,4.4898 -11.112,20.55 -7,26 0.48894,-9.069 7.0621,-17.037 7,-26 z m 101,0 3,2 -3,-2 z m -96,1 c -4.5103,5.8345 2.2358,1.9635 0,0 z m 42,0 c 3.9165,-0.84007 1.1996,1.7788 0,0 z m 102.000002,0 3,1 -3,-1 z m 7,0 c -20.056,15.534 12.762,1.1798 0,0 z m -141.000002,1 c 2.3077005,12.845 8.2120005,7.8847 0,0 z m 265.000002,0 c -6.1134,13.061 -41.245,-4.0768 -16.5,7.5 13.107,7.5268 47.573,6.1234 16.5,-7.5 z m -215.000002,1 0,0 z m -154.999998,1 c -15.665,16.801 11.604,-0.57513 0,0 z m 221,0 c 0.15939,8.0631 12.939,3.9965 0.088,0.044 l -0.09,-0.04 z m -153.000002,1 c -4.6295,4.0269 -9.0794,22.345 -8,8 -7.3908,2.1283 1.2921,21.663 4.7406,5.7189 10.723,-15.253 -5.7307,20.74 8.2593,5.7812 8.859,-16.528 -11.003,9.9488 -0.79478,-7.6733 2.682,-7.17 -5.431,-1.13 -0.205,-11.83 l -4,0 z m 50,0 0,0 z m 67,0 2,1 -2,-1 z m 8,0 c 6.6219,5.2976 6.6219,5.2976 0,0 z m -61,2 c 6.3785,3.5094 2.042,8.3613 0,0 z m 102.000002,0 0,0 z m -229,1 c -6.5371,11.028 2.4773,8.7292 0,0 z m 52.999998,0 c -7.6907,10.732 8.3651,1.3017 0,0 z m 42,2 0,0 z m 14.0000005,0 c 4.2012995,7.0862 4.8651995,-1.922 0,0 z m 49.9999995,0 c -1.7996,10.28 7.7491,-2.6491 0,0 z m 32,0 c 3.4579,6.9447 5.731,4.0802 0,0 z m -10,2 2,1 -2,-1 z m -85,1 c 1.3244,7.9463 1.3244,7.9463 0,0 z m 9.0000005,0 c 0.6609,9.5061 12.7699995,28.587 4,8.5 l -2,-4.25 -2,-4.25 z m 122.0000015,0 c -4.4481,5.5821 7.0564,-1.9813 0,0 z m -116.00000203,1 c 4.68910003,8.9792 16.16800003,26.41 11.60200003,5.3977 -0.19,-6.49 -8.12,-3.1 -11.60000003,-5.4 z m -93.99999597,1 c 2.3352,2.3352 2.846,2.846 0,0 z m 6.999996,0 1,2 -1,-2 z m 18,0 c -1.6114,20.131 13.128,2.512 0,0 z m 61.0000005,1 0,0 z m 122.0000015,0 c -10.808,10.069 9.9461,-1.7432 0,0 z m -202.000002,1 c 0.7136,1.7945 -3.326996,6.149 0,0 z M -0.77567153,100.1698 C 0.91752797,88.036801 -18.891672,54.653801 1.258728,76.650801 c 5.4149,11.568 9.1555,18.043 11.966,1.519 10.622,7.1608 5.2398,10.526 15,22.999999 10.561,-14.018999 9.6894,-49.695999 3.3388,-55.101999 -12.04,9.62 -8.02,22.35 -5.34,36.1 -11.831,-4.1529 -23.189,-36.309 -18,-8 -16.0649995,-8.7758 -5.0991,-27.39 12,-18 -0.65027,-9.7481 -3.7156,-17.523 -5,-2 -13.202,-7.809 -12.671,-29.705999 -31.75,-19.75 -10.65,3.2928 5.1795,-8.511199 -9.2497,-3.25 8.3107,-6.279599 3.1042,-27.44 4,-12.999999 -8.1693,-9.524801 -8.2905,2.0816 -12,3.678 3.4059,-13.965001 18.106,-31.632001 10,-45.678001 -6.0877,11.132 -2.4306,26.683 -8.5,25 0.59794,-6.6404 -7.6571,12.203001 -3.5,-4 -15.118,5.3558 4.9458,-20.694 -9.8968,-5.4958 -4.19,6.94 -7.436,7.45 -6.103,-0.5 -25.128,10.02 2.1883,39.125 13,43 -13.821,-2.1702 -6.5757,31.835 -7.0652,22.065 14.908,-17.056 6.5879,33.533 14.313,6.9047 11.581,-23.583 37.8,5.5531 13.608,7.9108 -22.15,-16.75 0.53,40.289999 17.14000047,29.119999 z M 42.224328,-22.830199 c -0.84007,3.9165 1.7788,1.1996 0,0 z m 14,0 c 0.96448,12.005 11.568,6.9479 0,0 z m -11,1 c -5.9726,14.403 10.122,-1.5492 0,0 z m -18,1 2,1 -2,-1 z m 26,0 c -0.27785,10.301 4.6092,2.596 0,0 z m -32,2 c -13.098,15.683 14.431,-4.15 0,0 z m 15,0 c 3.9776,14.997 4.8981,1.6841 0,0 z m 27,0 c 7.9463,9.2707 7.9463,9.2707 0,0 z m 28,0 c 5.4632,11.716 16.224002,5.3468 0,0 z m -111,1 c 0.7411,5.4339 4.0653,0.7758 0,0 z m 190.000002,1 1,2 -1,-2 z m -242.000002,1 0,0 z m 63.0000005,1 2,3 -2,-3 z m 82.9999995,0 c -2.1389,11.429 12.311,5.7989 0,0 z m 63.000002,0 c -5.9423,4.9038 15.608,8.6983 2,0 l -1.322,0 -0.68,0 z m -169.000002,1 c -4.25,8.4566 1.2292,6.8832 0,0 z m 206.000002,2 1,2 -1,-2 z m 120,55 c -8.518,-1.2689 -25.908,5.0879 -21.065,-9.9348 14.36,-11.999999 -11.82,-1.65 -5.94,9.93 7.0124,-3.1935 0.81793,23.711 -6.75,6.9998 -12.627,-11.653 13.938,-22.869999 6.8127,-26.734999 -20.287,-3.8234 20.109,-10.11 -4.0881,-19.349001 -9.45,-4.25 -10.44,-5.58 -6.97,-9.42 -7.38,-10.21 -19.38,0.75 -24.11,-1.05 -10.87,4.46 31.35,10.13 17.11,26.550001 -12.06,-0.16613 -9.2548,-16.697001 -12,-17.000001 -12.389,-0.0286 -42.251,-0.3358 -16.5,10.000001 5.5841,1.6281 -11.122,8.3142 -13.5,15 -8.6,-10.609 0.85141,13.440999 -9,1.999999 7.3887,10.78 -15.435,-11.466999 -2.6874,2.3162 7.0029,4.0072 24.668,17.208 5.6874,10.184 -19.943,-12.226 -9.8386,30.205 -13.75,28.5 8.7534,9.8808 18.404,31.524999 32.815,23.065 -17.07,-9.1 17.04,-13.76 -3.56,-18.56 -9.6408,-0.60623 2.5989,-2.4548 -9.5,-12.5 19.044,-15.809 21.767,23.424 42.5,7.5 9.1505,-3.6367 6.8274,-15.24 19.5,-5.5 -6.2369,12.767 12.398,10.859 11.644,4 13.929,3.065 34.556,15.613 26.494,-8.4579 0.83,-10.71 -13.74,-49.92 -13.14,-17.54 z m -279.000002,-54 c 2.6489,6.6219 2.6489,6.6219 0,0 z m 67,0 c -3.6918,6.3981 26.616002,5.4882 7.4996,2.4996 l -3.75,-1.25 -3.75,-1.25 z m 44.000002,1 c -1.8906,9.0127 -17.577,3.2829 -6.54,14.986 10.485,8.635001 6.3023,3.0842 2.54,-4.986 4.2833,3.9732 18.932,-8.3041 4,-10 z m 59,0 c 2.5383,0 1.9555,0 0,0 z m -211.000002,1 1,2 -1,-2 z m 167.000002,2 c 10.335,3.4803 23.305,9.6948 2.2498,4.75 -9.3522,-1.5964 9.0647,11.27 3.3638,12.360001 0.762,6.4594 18.296,31.298999 11.386,14.89 17.038,13.664999 -16.771,-19.369001 5.2502,-4.5 9.0399,-0.99973 -23.691,-10.778001 -1.8189,-7.7906 13.042,2.901 17.36,1.0727 3.1471,-4.306901 -19.55,-10.92 18.91,6.860001 -0.08,-3.4 -15.604,-8.4845 7.7492,2.7975 -1.5,-6 14.511,2.0201 31.055,23.434001 39,22.000001 -12.517,-19.836001 -38.81,-27.461001 -61,-28.000001 z m 85,0 2,1 -2,-1 z m -156.000002,1 c -3.0335,8.0101 -6.9403,16.600001 6,14 -9.714,7.260601 16.573,4.185301 0,12.000001 9.0248,4.2416 9.6976,23.465999 14,4 9.489,0.76969 -19.47,-3.8669 -4,-11 -4.9598,-6.468201 -15.907,-14.936001 -11.182,-16.591001 -1.61,-0.8 -3.21,-1.61 -4.82,-2.41 z m -82,2 c -1.6781,5.4563 4.6345005,2.2962 0,0 z m -90.999998,1 c 3.916502,-0.84007 1.1996,1.7788 0,0 z m 293,0 c 4.6573,4.6573 5.0109,5.0109 0,0 z m 22,0 c -4.3808,5.0884 5.6118,-1.459 0,0 z m -122.000002,1 c 5.0978,3.384 9.0369,2.9114 0,0 z m -50,1 c -11.739,0.9334 -1.7085,7.3193 -12.98,6.6209 -0.2157,3.2242 -1.1081,25.502 7.9802,13.379001 -9.7763,-11.253001 4.3387,6.2874 8.8064,-5.0202 24.87,-8.610001 -28.82,0.39 -1.81,-6.980001 -9.9697,-8.8169 12.411,-0.78773 -0.32197,-8 l -1.322,0 -0.36,0 z m 59,1 c -23.504,10.020001 11.559002,14.048001 0,0 z m -191.999996,2 c -5.7264,7.7482 5.109096,2.3759 0,0 z m 361.999998,0 c -1.6914,9.325201 11.024,-1.5335 0,0 z m -159,4 c 5.0678,9.808401 5.0183,3.0732 0,0 z m 30,1 c -0.53576,8.160901 9.3922,-3.0336 0,0 z m 86,0 c 17.38,0.41586 2.6927,9.519601 0,0 z m -163.000002,1 c -8.682,11.660001 9.4715,1.529 0,0 z m 140.000002,0 2,3.000001 -2,-3.000001 z m -183.000002,1 c -2.6374,6.361001 5.2252,0.0339 0,0 z m 112.000002,0 c 1.7869,9.212501 20.433,31.563 24.463,26 -4.51,-10.659999 -19.09,-17.849999 -14.46,-22.999999 l -5,-1.5 -5,-1.500001 z m -36.000002,3.000001 c 3.3347,3.3347 4.390002,4.389999 0,0 z m 9.000002,0 c -0.70571,12.308 15.816,0.0952 0,0 z m 156,0 1,2 -1,-2 z m -340.000002,2 2,1 -2,-1 z m 122,2 c 6.4328,25.013999 3.149,-5.1045 5.3648,2.1824 8.1433,4.6066 11.723,-9.262001 -0.46928,-2.2678 l -4.9,0.09 z m -39,-1 c -3.32570003,7.4714 7.9848,-3.0397 0,0 z m 90,1 c 4.5948,8.7875 10.474002,6.2202 0,0 z m -79,3 c -5.5664,10.257 6.3944,11.660999 0,0 z m 39,1 c -6.2487,13.014999 13.37,9.4831 0,0 z m -139,1 c -5.901396,16.162999 17.83,-3.9195 0,0 z m 12,0 c -12.958,9.000199 3.3109,11.567999 0,0 z m 108,0 c 1.4979,16.228999 11.834,-2.9432 0.71214,0 l -0.71,0 z m 59,1 c 6.621902,7.946299 6.621902,7.946299 0,0 z m -156,2 c -20.65,13.413999 2.8413,0.94802 0,0 z m 323.000002,0 c 6.5029,2.7851 -4.3717,3.2517 0,0 z m -145,1 c -0.16038,4.7675 -3.844,7.360099 5.978,11.524999 7.81,2.83 -7.99,-9.059999 -5.98,-11.519999 z m -92.000002,1 c 2.3881,8.838199 2.3865,9.943499 5.4014,5.811899 7.33,-2.259999 -2.07,-6.869999 -5.4,-5.809999 z m 71,27.999999 c -27.377,-10.016 22.187002,42.408 11.000002,18 6.4178,7.0257 15.476,13.282 11,15 10.17,16.692999 1.9516,8.671 -6.75,0 -6.5556,-7.0673 -0.27786,3.6052 -9.7497,-5.9998 -8.000002,-8.37 -12.340002,-8.86 -16.500002,-6 -15.571,-14.435 10.096,-21.646 -6,-36 11.153,-3.5495 0.3061,-9.811599 -4.4978,-2.1579 -12.06,-0.25858 -20.967,-9.701699 -23.408,-4.5961 -13.257,-13.642999 -6.1368,3.3553 -7.4592,4.5716 -12.348,-8.948099 -1.079,15.137 -3.8912,11.716 -0.75377,15.755 3.745,-7.7281 6.256,5.9666 5.588,13.742 -2.4087,-18.524 14.5,-10 7.3727,2.716 1.7374,16.714 3.5,24.295 -1.3402,4.429 -6.2328,21.169 -8,7.2046 -10.715,25.349999 21.59,32.850999 34,50.999999 -6.5595,-14.308 -30.653,-42.606999 -15,-50.999999 8.0811,17.472 1.5825,10.51 -1.2265,10.79 1.87,12.08 14.3,20.859999 21.23,14.209999 11.112002,9.6032 -0.70231,13.733 16.665002,22.58 6.24,3.18 1.12,-15.35 11.34,-6.58 -10.35,-23.619999 30.03,25.54 20.25,-1.5 -2.7,-9.33 -8.54,-4.1 -2.25,2.5 -6.1012,-9.2748 -12.492,-10.899 -21,-17 13.476,3.3696 15.526,-3.450599 15.25,-5.500099 22.246,4.694799 -3.8444,-34.012 14.163,-13.087 7.33,0.59 15.09,-3 4.59,-12.41 3.3023,-1.2471 20.673,15.668 10.225,-2.8609 -7.9441,-14.23 -29.11,-21.006 -28.725,-14.139 -22.66,-18.484 25.781,30.045 2.3062,13.045 -4.5,-3.35 -12.41,-11.86 -6.81,-0.04 -9.0866,-7.8773 -6.5326,7.014 -15.48,-6.7758 -5.25,-10.15 -12.43,-23.13 -17.020002,-18.22 -5.0184,-5.8567 -1.4031,10.404 -2.5,13 z M 135.22433,27.169802 c 7.2187,13.574999 18.604,7.711699 0,0 z m -28,1 c -3.3692,13.633999 14.33,27.411999 14,18.499999 -2.2465,-9.6758 -3.8346,3.0569 -6,-6.5 -3.9961,10.217 -0.63498,-12.844999 -8,-11.999999 z m -191.000002,1 2,0.999999 -2,-0.999999 z m 24,0 c -12.051,4.488699 2.0325,3.329299 0.67804,0 l -0.678,0 z m 120,0.999999 2,1 -2,-1 z m -51,1 c -4.0544,11.124 4.0995,17.752 6,5 -6.8953,3.5794 -1.8334,-3.5899 -6,-5 z m -64,1 c -23.043,6.925 15.898,0.72341 0,0 z m 340.000002,0 c -9.6202,16.594 14.205,1.6069 0,0 z m -356.000002,1 c -4.714,9.19 -32.054998,-1.31 -15.455,13.61 9.742,8.11 20.215,12.27 7.455,-0.61 1.2289,-1.245 17.676,-14.542 8,-13 z m 264.000002,1 c -2.0466,3.8625 9.4689,6.6862 0,0 z m -146.000002,1 c 12.251,-1.013 21.225,8.4583 5,5 -1.2976,-1.697 -8.515,-1.7789 -5,-5 z m 132.000002,0 c 6.6219,5.2976 6.6219,5.2976 0,0 z m -175.000002,1 c -2.025,7.8176 4.6286,1.8684 0,0 z m 257.000002,0 c 0.7411,5.4339 4.0653,0.7758 0,0 z m -301.000002,1 c 9.4425,1.2798 -9.3457,16.553 -1.5,2.5 l 1.5,-2.5 z m 78,2 c 3.3347,3.3347 4.39,4.39 0,0 z m -101,1 c -4.6946,7.8124 1.2552,5.7043 0,0 z m 222.000002,1 c 8.9253,10.704 -16.894,-4.3773 1.0865,7.3726 8.9075,10.479 39.758,13.709 18.557,0.0797 -6.23,-3.27 -13.11,-4.93 -19.64,-7.45 z m -244.000002,1 c 3.9165,-0.84007 1.1996,1.7788 0,0 z m 153,0 c 15.493,4.2459 5.8858,28.404 1.5,7 l -0.75,-3.5 -0.75,-3.5 z m -123,3 2,4 -2,-4 z m 119,0 1,2 -1,-2 z m -127,1 c -12.42,12.117 6.7177,15.318 0,0 z m 204.000002,0 c 4.6573,4.6573 5.0109,5.0109 0,0 z m 94,0 c 6.6931,2.792 -12.057,11.704 -17,2 5.6861,0.40099 11.757,0.68662 17,-2 z m -85,1 c 1.6677,14.678 19.272,15.689 0,0 z m 121,0 1,2 -1,-2 z m -213.000002,1 c 0.20491,9.3157 4.1266,3.4102 0,0 z m 103.000002,2 c 0.88229,17.028 16.947,18.843 2.275,4.3667 8.21,2.94 3.61,-0.15 -2.28,-4.37 z m -217.000002,1 c 2.3352,2.3352 2.846,2.846 0,0 z m 196.000002,1 c 4.3352,4.3352 13.403,13.403 0,0 z m 89,2 c 9.831,8.5598 -15.936,6.4426 0,0 z m -309.000002,1 c -2.2512,18.72 21.663,38.66 38.5,36 9.5912,-9.0175 -8.0277,-32.604 -7.3872,-25.688 -8.2786,-10.709 -12.267,-8.0991 -12.866,3.994 -6.611,5.45 -9.457,-13.82 -18.247,-14.31 z m 370.000002,1 c 11.701,2.9466 -14.224,14.525 -1.9474,4.5234 l 1.95,-4.52 z m -72,1 c 2.5383,0 1.9555,0 0,0 z m -270.000002,1 c -4.6431,6.3474 7.0635,1.0497 0,0 z m 70,2 0,0 z m 34,0 0,0 z m 56.000002,0 c 11.685,7.6275 7.5309,14.999 -3,3 -1.0583,-3.0393 4.6088,1.512 3,-3 z m -54.000002,4 c -1.4559,13.158 9.4575,0.7617 0,0 z m 111.000002,1 c 0.66036,12.147 25.127,25.205 9.5326,7.5371 -2.79,-2.95 -5.99,-5.53 -9.53,-7.54 z m -126.000002,4 c -0.0695,7.2911 2.1528,18.706 3,4 l -3,-4 z m 192.000002,0 c 2.5383,0 1.9555,0 0,0 z m -284.000002,1 c 3.524,4.2757 -1.3469,6.4899 0,0 z m 314.000002,2 c 2.7184,5.1279 8.8046,4.5655 0,0 z m -284.000002,3 c 3.7404,10.492 -0.14151,11.051 0,0 z m 69,0 0,0 z m 33,0 1,2 -1,-2 z m 203.000002,1 c -13.573,8.2405 3.9003,20.237 6.7374,11.924 16.11,13.166999 3.813,-5.5654 -4.2577,-10.573 l -2.48,-1.35 z m -74,2 c 17.846,-1.6271 1.3667,12.656 0,0 z m 19,0 c 2.3352,2.3352 2.846,2.846 0,0 z m 8,0 c -12.962,10.42 16.537,16.941 0,0 z m -38,3 c 2.3352,2.3352 2.846,2.846 0,0 z m 56,2 c 1.2572,6.8063 6.8586,1.0615 0,0 z m -100,1 c 5.901,12.603 11.86,1.3502 0,0 z m 8,0 c 2.1089,14.296 32.353,19.472999 12.686,3.478 -4.92,-2.53 -3.83,2.07 -12.69,-3.48 z m -126.000002,5 c 2.3454,13.923999 4.4895,13.396999 0,0 z m 7,1 c -2.8193,12.275999 19.54,21.449999 8.2501,5.4998 -3.6785,-9.0326 0.62987,9.365499 -6.5002,-3.5 l -1.75,-2 z m 167.000002,0 c 11.321,4.5987 6.6173,6.9064 0,0 z m 36,8 c -7.832,6.964399 13.813,-1.5552 0,0 z m -81,1 c 6.7357,15.260999 13.345,3.188399 0,0 z m 93,0 c -15.14,-2.6386 -0.8954,23.617999 0,4.712099 l 0,-4.712099 z m -107,0.999999 c 6.2797,3.1398 8.5165,4.2582 0,0 z m -5,4 c 5.2756,9.0119 10.577,4.2286 0,0 z m 7,0 c 9.2707,3.9732 9.2707,3.9732 0,0 z m -103.000002,1 c -1.0313,8.104 2.683,7.8516 0,0 z m -52.9999995,1 c -1.6689,5.1636 2.3996,11.635 1,3 l -1,-3 z m 163.0000015,3 c 6.4041,12.483 17.728,4.0751 0,0 z m -199.000002,1 c -6.8296,11.266 19.515,36.059 25,29 -10.576,-6.2633 -13.061,-28.75 -25,-29 z m 259.000002,4 c 5.8638,4.5672 7.6906,2.8475 0,0 z m -46,1 c 4.9953,4.8719 7.9025,3.6041 0,0 z m 68,0 c 0.31791,9.479 14.011,0.33003 0,0 z m -167.000002,1 c 0.0357,10.416 13.508,36.85 12,13 -4.0002,-4.3332 -7.9998,-8.6668 -12,-13 z m -43,2 c -1.8429,10.58 3.899,9.9259 0,0 z m 223.000002,0 c -9.7622,8.3822 4.2831,4.7979 0.13046,0.13046 l -0.13,-0.13 z m -187.000002,2 c 0.53453,13.584 6.993,10.239 0,0 z m 86.000002,0 c -4.6197,7.8668 9.1822,21.69 3.875,21.875 4.9285,5.6509 18.949,19.964 13.125,5.125 15.151,8.6096 -13.527,-28.208 -17,-27 z m -127.000002,1 c -5.0591,7.556 3.9983,-0.65713 0,0 z m 95.000002,3 c 2.8888,14.211 32.734,11.457 10.5,4.5 -3.5,-1.4999 -7.0001,-2.9998 -10.5,-4.5 z m -79.000002,2 c -1.2903,9.7205 12.292,25.123 9.8581,9.2017 -2.03,-4.15 -5.79,-7.19 -9.86,-9.2 z m 127.000002,0 c 0.88549,11.06 14.453,10.85 0,0 z m -75.000002,3 c 2.3352,2.3352 2.846,2.846 0,0 z m -91,2 c -8.7915995,7.079 12.938,17.528 2.4996,3 l -2.5,-3 z m 20,3 c -23.64299953,26.487 40.922,13.34 12.854,3.7652 -4.63,0.47 -8.78,-2.01 -12.85,-3.77 z m 105.000002,2 c 18.816,9.6612 -2.0107,8.8812 -2.125,7.4998 6.5365,14.248 18.643,20.539 32.125,15.5 -7.9398,-10.65 -18.113,-17.354 -30,-23 z m -51.000002,2 c 6.8745,11.143 10.984,8.9348 0,0 z m 75.000002,7 c -0.79359,11.143 12.994,-1.578 0,0 z m 83,1 c -4.4481,5.5821 7.0564,-1.9813 0,0 z m -51,3 c 4.7098,11.458 10.976,-2.2149 0,0 z m -99.000002,3 c -3.5929,13.029 11.827,14.765 0,0 z m 30.000002,6 c -1.8431,18.983 17.651,6.0886 0,0 z m -48.000002,1 c -14.145,21.87 35.921002,12.147 9.0802,2.6335 -3,-0.95 -6.1,-1.58 -9.08,-2.63 z m 97.000002,0 c -5.9944,6.7536 10.663,4.5625 0,0 z m 38,2 c -22.451,5.2094 14.418,8.5338 0.67803,0 l -0.68,0 z m -86,6 c -5.9062,10.457 4.6731,-1.2166 0,0 z m 31,0 c 2.3352,2.3352 2.846,2.846 0,0 z m -7,4 c 5.2516,11.798 -18.41,12.134 -2,21 5.8128,-10.311 31.846,11.937 20.495,-5.7613 -5.07,-6.27 -11.7,-11.03 -18.5,-15.24 z m 60,0 c 2.498,16.526 26.609,-0.2888 6.5,0.5 l -3.25,-0.25 -3.25,-0.25 z m -81,28 c 4.8464,2.699 2.1946,5.7922 0,0 z"
       id="path-1-7" />
    <path
       inkscape:connector-curvature="0"
       d="m 44.578927,-220.73941 c 2.5383,0 1.9555,0 0,0 z m -9,1 c 16.013,-3.7901 2.3587,8.87029 0,0 z m 11,3.99999 c 6.4903,-2.3282 2.0368,4.6629 0,0 z m 19,1 c 2.3352,2.3352 2.846,2.846 0,0 z m -7,1 c 3.1829,0 4.3737,0 0,0 z m 11,0 c 9.1934,-4.2997 -1.5383,6.4929 0,0 z m -7,1 c 2.5383,0 1.9555,0 0,0 z m 5,1 c 2.5383,0 1.9555,0 0,0 z m 8,2 c 5.3724,1.657 2.4062,3.6679 0,0 z m -6,1 c 2.5383,0 1.9555,0 0,0 z m 21,0 c 7.6836,2.1782 5.9508,4.9829 0,0 z m -32,1 c 2.5383,0 1.9555,0 0,0 z m -65.9999995,2 c -3.1398005,6.2797 -4.2582005,8.5165 0,0 z m 98.9999995,0 c 5.975,5.1638 -6.4141,6.7133 0,0 z m -6,1 c 4.0562,3.8725 -16.174,7.0593 -2.088,1.044 l 1.1824,-0.5912 0.90559,-0.4528 z m -18,1 c 8.8395,0.93302 -3.4323,4.4018 0,0 z m 50.999993,1 c 2.5383,0 1.9555,0 0,0 z m -109.9999926,1 c 5.5750996,-1.4508 -4.4186,5.111 0,0 z m 100.9999926,0 c 6.361,-2.6374 0.0339,5.2252 0,0 z m -96.999993,2 1,2 -1,-2 z m 63,0 c 4.1815,2.2122 0.31863,8.1113 0,0 z m -80.9999995,1 c 6.9439999,-2.363 -9.3691005,10.449 0,0 z m 4,1 c 7.2631999,1.9882 5.7558999,4.7756 15.9999995,0 4.2098,4.4543 -11.9349996,18.169 -5.9999996,6 -22.3840004,-4.9041 -25.3550004,43.892 -39.5750004,28.524 2.9316,-10.741 21.3410005,-28.183 8.575,-8.5241 12.9060005,-8.6314 9.6276,-15.321 7.8695,-19.87 11.3120005,-13.68 0.10209,15.29 13.1300005,-6.1305 z m 24.9999995,0 c 12.924,0.82507 -13.8619996,6.9047 0,0 z m 89.999993,0 c 10.59,-0.97279 -2.9465,9.7644 0,0 z m -96.999993,3 c 6.6681,-2.3587 0.1777,8.5224 0,0 z m 94.999993,0 c 0.24741,9.1572 -9.08119,9.3843 0,0 z m -48.999993,1 c 2.5383,0 1.9555,0 0,0 z m 55.999993,0 c 11.381,1.9557 -9.213,8.3197 0,0 z m 3,0 c 9.548,-1.0201 2.3665,6.2861 0,0 z m -145.999993,1 c 3.1374,2.3755 -5.3187,7.9989 0,0 z m 129.000003,0 c 3.91649,-0.84007 1.1996,1.7788 0,0 z m 20.99999,4 c 2.5383,0 1.9555,0 0,0 z m -72.999993,1 c 9.3958,-2.2803 -8.4076,7.3021 0,0 z m -71,1 c 3.9165,-0.84007 1.1996,1.7788 0,0 z m 37,2 c 8.3738,5.9749 -2.0649,5.773 0,0 z m 54,1 c 2.5383,0 1.9555,0 0,0 z m -75.9999995,1 1,2 -1,-2 z m 2,0 c 3.5779999,1.1636 -1.6737,6.3738 0,0 z m -4,1 1,2 -1,-2 z m 14.9999999,0 c 2.2568996,0.41657 3.0639996,7.4635 0,0 z m 13.9999996,0 1,2 -1,-2 z m -31.9999995,1 0,0 z m 104.9999995,0 1,2 -1,-2 z m -61,1 c 13.726,1.9236 -13.473,11.236 0,0 z m 24,0 c 2.5569,6.2413 -15.624,10.049 -2.6262,1.6755 l 2.6262,-1.6755 z m -61.9999995,1 1,2 -1,-2 z m 49.9999995,2 c 10.323,-2.8454 -4.8692,10.666 0,0 z m -8,1 c 10.805,2.3996 -4.3391,5.8752 0,0 z m 80.999993,0 c 9.3111,6.7924 3.8582,4.104 0,0 z m -4,3 c 9.5305,-3.9953 6.8708,10.92 0,0 z m -152.999993,1 c 1.4535,17.684 -12.577,16.714 0,0 z m 77,0 c 4.7697,2.952 -4.7401,2.7605 0,0 z m 73.999993,0 1,2 -1,-2 z m -84.999993,1 c 3.578,1.1636 -1.6737,6.3738 0,0 z m -75,1 1,2 -1,-2 z m 121,0 c 28.326003,0.21005 -26.02,6.6402 -3.8354,1.4049 l 3.8354,-1.4049 z m 32.999993,0 c 5.8823,1.9588 -4.98959,5.7193 0,0 z m 23,0 c 3.9165,-0.84007 1.1996,1.7788 0,0 z m -69.999993,1 c 7.0631,8.0787 -1.7663,6.1227 0,0 z m -111,1 c 15.553,1.6475 -13.058,16.805 0,0 z m 89,0 c 3.5856,3.7806 -5.5092,7.0881 0,0 z m 75.999993,0 1,2 -1,-2 z m -32.999993,3 c 2.5383,0 1.9555,0 0,0 z m 36.999993,0 c 1.48,8.6057 -11.90599,-0.12427 0,0 z m -75.999993,1 1,2 -1,-2 z m 36,0 c 13.51,12.464 -22.419,9.9172 0,0 z m 48.999993,2 c 2.5383,0 1.9555,0 0,0 z m -20,1 c 9.8232,1.8525 -0.36779,6.4229 0,0 z m 14,0 c 6.7118,-1.3143 1.2075,11.193 0,0 z m -173.999993,1 c 2.6275,5.3042 -1.1823,2.9417 0,0 z m 126,0 3,1 -3,-1 z m 43.999993,0 c 12.796,14.132 -16.46599,5.1324 -7.0836,4.8666 3.0443,0.86651 5.7494,-2.6211 7.0836,-4.8666 z m 9,0 1,2 -1,-2 z m -155.999993,1 c 10.825,9.3817 -9.2546,10.409 0,0 z m 150.999993,1 c 5.893,5.7469 -0.67195,2.1938 0,0 z m -51.999993,1 c 0.53923,2.452 -5.3609,0.43084 0,0 z m -123,1 c 6.2395,8.3275 -6.7461,11.234 0,0 z m 180.999993,0 c 2.5383,0 1.9555,0 0,0 z m -46.999993,1 c 8.8188,1.4303 -2.5164,4.1456 0,0 z m 20.000003,2 c 4.7697,2.952 -4.740103,2.7605 0,0 z m 21.99999,0 c 2.5383,0 1.9555,0 0,0 z m -1,1 1,2 -1,-2 z m 8,0 c 2.5383,0 1.9555,0 0,0 z m -188.999993,1 1,2 -1,-2 z m 140,0 c 10.511,-0.67387 2.0011,4.6663 0,0 z m -110,1 1,2 -1,-2 z m 125,0 c 7.707603,-2.2684 -0.19064,4.875 0,0 z m -156,1 c 2.6275,5.3042 -1.1823,2.9417 0,0 z m 181.999993,0 c 6.6219,3.9732 6.6219,3.9732 0,0 z m -57.999993,1 c 5.5282,5.3775 -14.859,4.5404 0,0 z m 5,0 c 4.7697,2.952 -4.7401,2.7605 0,0 z m 17,0 c 7.8176,-2.025 1.8684,4.6285 0,0 z m 5,0 c 2.5383,0 1.9555,0 0,0 z m -126,1 c 9.7995,0.26386 5.9763,3.2337 0,0 z m 131,0 c 3.1829,0 4.373703,0 0,0 z m 21.999993,0 c 6.0806,-2.6731 1.6668,7.8629 0,0 z m -178.999993,1 1,2 -1,-2 z m 173.999993,0 c 9.7226,2.4431 0.75574,2.9026 0,0 z m 11,2 c 6.7595,-1.1731 -5.0458,7.6362 0,0 z m 9,0 c 7.5006,-3.0735 -1.5556,10.447 0,0 z m -29.99999,1 c 2.5383,0 1.9555,0 0,0 z m 13.99999,0 c 5.0256,6.1981 -9.0452,3.8268 0,0 z m -23.999993,1 c 11.374003,1.3992 7.588603,3.2729 0,0 z m 27.999993,0 c 4.6262,1.8906 -1.956,7.7212 0,0 z m -179.999993,2 c 1.1853,3.1433 -2.1997,8.1159 0,0 z m 45,1 c 6.4903005,-2.3282 2.0368,4.663 0,0 z m 5.0000005,0 c 7.97549997,5.2533 -3.1240005,6.2839 0,0 z m 114.0000025,0 c 4.68629,0.3652 -5.4064,6.6866 0,0 z m 29.99999,1 c 5.5751,-1.4508 -4.4186,5.111 0,0 z m -82.999993,1 c 2.5383,0 1.9555,0 0,0 z m 17,0 c 3.5186,3.6742 -7.3744,7.0035 0,0 z m -177.000007,1 1,2 -1,-2 z m 210.00001,0 c 9.52969,2.2335 -3.968803,3.6289 0,0 z m -56.000003,2 c 2.0515,5.984 -14.068,23.494 2,20 -3.3476,11.367 14.423,3.7603 1,11.5 -9.2543,14.848 -7.109,46.339001 -34.222,49.964001 -10.8489996,15.338 -22.2999995,8.7728 -34.778,-1.4644 6.5192,9.2844 -19.195,9.2662 -11.5,5 2.2562,-6.9508 3.2356,3.74 8.5,-5 -17.36,-5.0591 4.3211,-10.084 -9,-16 -2.8178,12.82 -10.887,-6.4988 -5.78,-13.033001 -8.8058,-28.007 19.781,-37.508 42.2080004,-38.916 14.5009996,-0.92702 35.5879996,3.2114 41.5719996,-12.05 z m 3,0 c 2.5383,0 1.9555,0 0,0 z m 10,0 1,2 -1,-2 z m 3,0 1,2 -1,-2 z m 63.999993,0 c 6.6935,0.17142 -5.8782,6.6715 0,0 z m -59.999993,1 c 4.7697,2.952 -4.7401,2.7605 0,0 z m 31,0 c 2.3352,2.3352 2.846003,2.846 0,0 z m 4.000003,0 c 3.1829,0 4.3737,0 0,0 z m -75.000003,1 c 7.1629,8.66 -11.2,7.5587 0,0 z m 35,0 1,2 -1,-2 z m 46.000003,0 c 10.06299,3.2252 -18.284003,8.5671 0,0 z m 22.99999,0 c 0.79885,1.4544 -3.3346,3.8084 0,0 z m -73.999993,1 c 4.7737,-1.4522 -1.6963,6.1624 0,0.35607 l 0,-0.35607 z m 68.999993,1 1,2 -1,-2 z m -70.999993,1 c 2.6275,5.3042 -1.1823,2.9417 0,0 z m 44,0 c 2.538303,0 1.955503,0 0,0 z m 27.999993,4 2,3 -2,-3 z m -6,2 c 0.7136,1.7945 -3.327,6.149 0,0 z m -61.999993,1 1,2 -1,-2 z m 40,0 c 2.538303,0 1.955503,0 0,0 z m -53,1 c 2.5383,0 1.9555,0 0,0 z m 124.999993,0 c 2.5383,0 1.9555,0 0,0 z m -119.999993,3 c 2.5383,0 1.9555,0 0,0 z m 79.999993,0 c 3.004,8.5004 -7.7872,11.411 0,0 z m 50,1 c 16.378,3.4556 -5.264,5.567 0,0 z m -183.9999925,1 c -23.7140005,8.5935 -29.0460005,47.178001 -2.9971,56.462001 23.5689995,9.2203 50.3629995,-18.868 36.6259995,-41.626001 -6.5058,-11.768 -21.0379996,-15.703 -33.6279995,-14.836 z m 90.9999995,0 c 21.075993,4.5407 -19.146,9.1236 -1.1774,1.894 l 1.1774,-1.894 z m 14.000003,0 c 13.07099,-3.0814 2.4197,11.762 0,0 z m -23.000003,1 c 6.5554,1.3171 1.5026,3.5345 0,0 z m 25.000003,0 2,1 -2,-1 z m -109.0000025,3 c 23.4609995,-4.3924 44.2679995,23.59 25.2639995,42.150001 -19.41699963,18.011 -51.156,-15.761001 -33.768,-34.962001 2.37,-2.8874 5.3323005,-5.2412 8.5038005,-7.1886 z m 159.9999925,0 c 23.667,-0.66378 -24.01,18.689 -15.596,10.175 -5.9232,-7.9206 12.167,-6.4563 15.596,-10.175 z m -46,1 c 5.6,-1.5859 -2.29209,4.62 0,0 z m -14.999993,1 4,2 -4,-2 z m -93.99999953,3 c -5.89529997,8.9246 -2.94189997,6.264 1.99999993,1 l -1.99999993,-1 z m 151.99999253,0 2,1 -2,-1 z m -91.999993,1 c 5.3533,13.64 -13.013,1.0268 0,0 z m 13,1 c 6.2721,-2.2356 5.9781,8.807 0,0 z m -191.000007,1 c 17.78,5.6419 34.574007,40.102001 27.034002,51.000001 -11.789002,-3.6688 -20.095002,-18.797 -18.034002,-31.576001 -0.43241,-19.454 -5.9704,16.646001 -17.278,11.313001 -14.776,-0.48998 18.076,-6.8568 0.15147,-8.120001 -14.384,0.52276 -4.2651,-5.7318 3.127,-3.6172 -10.358,-13.361 -8.5665,-12.118 5,-19 z m 201.000007,0 c 3.1829,0 4.3737,0 0,0 z m 30.999993,0 c 2.5383,0 1.9555,0 0,0 z m 45,1 c 17.252,1.8135 8.0823,15.849 -6,7 0.88134,-3.1396 4.1815,-4.5358 6,-7 z m -49,2 c 2.5383,0 1.9555,0 0,0 z m -55.999993,1 c 8.3336,-1.8938 -3.8341,6.9123 0,0 z m 59.999993,0 c -6.56119,9.2624 -17.565993,3.2092 -2.4455,1.02 l 2.4455,-1.02 z m 102,0 c 11.792,4.5071 10.079,20.170001 0.20123,5.0125 -4.9414,-2.0468 -1.4192,-3.4415 -0.20123,-5.0125 z m -115.999993,1 c 3.143303,-1.1853 8.115903,2.1997 0,0 z m -49,1 c 6.5163,2.704 -3.7282,4.7585 0,0 z m 26,1 c 2.3352,2.3352 2.846,2.846 0,0 z m 23,0 c 1.566403,10.054 -13.817,2.1 0,0 z m -98.99999963,1 c -5.36139987,7.494 5.80120003,-2.0074 0,0 z m 9.99999963,0 0,0 z m 59,0 c 7.568,7.4494 -15.456,2.1531 0,0 z m -13,2 c 18.27,4.2244 1.2966,15.701001 0,0 z m 31,0 c 4.7982,-2.1355 15.392003,16.232001 9,3 8.442203,3.9098 4.036003,-7.9065 9.967903,3.4654 9.73929,-3.1587 -7.773003,10.747001 5.74799,2.3529 18.527,-6.8595 -19.707993,25.080001 -8.45099,4.7782 2.761,-6.5055 -12.097003,5.538401 -15.265003,-5.5965 7.9612,-6.2988 -8.5706,-3.9997 -6,2 -10.676,-0.79148 -23.79,-0.42592 -5.4216,-5.3642 3.902,-0.14588 7.7723,-1.7442 10.422,-4.6358 z m 20.999993,0 c 2.3352,2.3352 2.846,2.846 0,0 z m -95.999993,1 2,1 -2,-1 z m 3,0 c -1.1873,9.7539 6.0648,-0.0239 0,0 z m 96.999993,0 c 3.1829,0 4.3737,0 0,0 z m 29,2 c 0.47806,4.9788 -7.4146,2.4751 0,0 z m 14,0 c 10.822,1.5292 11.138,2.5447 0,3 6.5866,9.126701 -22.269,-3.6584 -2.1499,-1.1897 l 2.1499,-1.8103 z m 12,1 c 6.5029,2.7851 -4.3717,3.2517 0,0 z m 19,0 c 7.7285,-2.4285 -4.7051,7.8605 0,0 z m 15,0 c 15.353,2.1518 32.887,10.176001 20,19.000001 17.369,-3.0522 -2.6448,27.379 -4.8749,22.25 -4.8666,-9.8165 -4.6756,-19.365 -3.6768,-23.044 -5.1909,-5.0947 -9.5414,-11.084001 -11.448,-18.207001 z m -144.999993,4 c 2.5383,0 1.9555,0 0,0 z m 86.999993,0 c 5.5751,-1.4508 -4.4186,5.111 0,0 z m -79.999993,1 c 5.6,-1.5859 -2.2921,4.62 0,0 z m 15,0 1,2 -1,-2 z m -122,1 c 4.7697,2.952 -4.7401,2.7605 0,0 z m 227.999993,0 c 3.8095,11.958001 -9.5688,8.695501 -17,9.000001 4.627,-18.535001 6.9595,1.4798 17,-9.000001 z m -67,1 c 6.6596,-1.8942 -0.54886,4.912101 0,0 z m 21,0 c 8.8415,2.1732 -15.641,12.200001 0,0 z m -49.999993,1 c 13.178003,0.25234 8.0275,11.801001 0,0 z m 76.999993,0 c 3.1829,0 4.3737,0 0,0 z m 22,0 c 6.361,-2.6374 0.0339,5.225201 0,0 z m -7,1 3,1.000001 -3,-1.000001 z m -115.999993,3.000001 c 10.722,4.0522 -2.9715,6.2939 0,0 z m 16,0 c 9.7226,2.4431 0.75574,2.9026 0,0 z m 5,0 c 11.169,5.2765 6.7271,9.1752 0,0 z m 61.999993,1 c 9.3513,-3.244 11.225,6.2156 0,0 z m -85.999993,1 c 7.9415,4.6601 -5.5408,2.6352 0,0 z m 58.999993,0 c 5.2189,4.714 -6.1662,1.4529 0,0 z m 44,0 c 24.653,11.103 -28.507,17.453 -4.4255,4.0104 l 2.1768,-1.8809 2.2488,-2.1294 z m -89.999993,2 c 0.94717,11.088 -14.322,0.75895 0,0 z m 83.999993,0 c 2.5383,0 1.9555,0 0,0 z m 19,0 c 2.5383,0 1.9555,0 0,0 z m -122.999993,1 1,2 -1,-2 z m 23,0 c 6.88,3.1684 -7.6124,5.5835 0,0 z m 3,0 c 7.5249,5.9778 -2.6458,7.3283 0,0 z m 72.999993,0 c 16.474,3.4152 -28.83,3.9423 0,0 z m -41,1 c 2.5383,0 1.9555,0 0,0 z m -14.999993,1 2,3 -2,-3 z m 142.999993,0 c 2.5383,0 1.9555,0 0,0 z m -155.999993,1 c 9.2977,-3.1295 -0.43871,8.2401 0,0 z m 46.999993,0 c 4.4132,-1.9859 3.8404,3.9838 0,0 z m 19,0 c 2.5383,0 1.9555,0 0,0 z m -91.999993,1 c 7.9463,1.3244 7.9463,1.3244 0,0 z m 33,0 c 6.3533,-0.37686 -6.5477,3.1008 0,0 z m 45.999993,0 c 10.534,0.49387 2.2328,4.545 0,0 z m 107,0 c 15.138,10.227 -22.199,13.537 0,0 z m -149.999993,1 1,2 -1,-2 z m 8.000003,0 c 2.3352,2.3352 2.846,2.846 0,0 z m 44.99999,0 c 6.361,-2.6374 0.0339,5.2252 0,0 z m -168.999993,2 c 7.6249,16.203 11.243,8.7984 0,0 z m 97,0 c 10.589,0.22783 -3.3595,9.0115 0,0 z m 39.999993,0 c 6.0806,-2.6731 1.6668,7.8629 0,0 z m 144,0 c 14.476,5.694 -12.27,5.0622 0,0 z m -174.999993,1 c 11.998,-0.61286 31.246993,15.069 9.3341,6.4405 -9.9436,7.1174 -1.2228,4.7876 -9.3341,-6.4405 z m 22.000003,1 c 5.68809,6.8391 -3.7409,3.4542 0,0 z m 3.99999,0 c 14.347,7.9701 -5.29539,8.8818 0,0 z m 28,0 c 5.5751,-1.4508 -4.4186,5.111 0,0 z m -58.999993,1 c 13.723,2.4835 3.7252,12.438 0,0 z m 4,0 c 2.6275,5.3042 -1.1823,2.9417 0,0 z m -118,1 c 5.5751,-1.4508 -4.4186,5.111 0,0 z m 88,0 c 9.5518,2.8232 -4.7285,4.9658 0,0 z m 76.999993,0 c 2.5383,0 1.9555,0 0,0 z m -72.999993,1 c 9.717,-0.73241 2.8802,6.2882 0,0 z m 61.999993,1 1,2 -1,-2 z m 33,0 c 2.5383,0 1.9555,0 0,0 z m 11,0 c 8.0366,-0.23955 5.1674,4.756 0,0 z m 41,0 c 4.0241,11.751 30.512,28.131 27,26 -16.85,-14.773 -46.615,24.2 -34,30 -1.7986,-10.008 15.959,14.088001 -1,5 -7.4169,-7.18 -7.7838,-6.1666 -2,2 -12.617,-2.6071 -34.124,-28.23 -28.5,-31.5 7.3761,0.63229 12.205,21.171 8.5,1.5 15.77,0.071 -17.85,-14.961 1,-13 -13.251,-8.3719 10.375,1.7104 1,-7 5.9433,1.8667 21.82,4.5064 9,-3 10.559,0.91863 21.555,7.6137 19,-10 z m -332,3 c 10.406,4.5936 -7.4846,4.533 0,0 z m 66.000007,0 c 3.1433,-1.1853 8.1159,2.1997 0,0 z m -4,1 c 6.4903,-2.3282 2.0368,4.663 0,0 z m 141,0 c 8.0964,2.1459 33.043993,22.35 24,24 -9.0453,-6.1565 -26.912,-13.688 -37.134,-19.108 2.4078,-6.3655 25.776,9.3465 13.134,-4.8916 z m 44.999993,0 c 2.5383,0 1.9555,0 0,0 z m 31,0 c 3.1829,0 4.3737,0 0,0 z m -179.999993,1 c 3.9165,-0.84007 1.1996,1.7788 0,0 z m 146.999993,0 c 2.5383,0 1.9555,0 0,0 z m 116,0 c 12.669,-4.4531 17.755,9.8152 1.6136,3.644 -1.2246,-0.47272 -11.355,-3.9662 -1.6136,-3.644 z m -164.999993,1 c 3.1829,0 4.3737,0 0,0 z m 45.999993,0 c 10.128,-0.70653 -8.33099,9.2797 0,0 z m -17.999993,1 1,2 -1,-2 z m -10,1 c 3.3347,3.3347 4.39,4.39 0,0 z m 15.000003,0 c 6.35329,-0.37686 -6.547703,3.1008 0,0 z m 28.99999,0 c 2.5383,0 1.9555,0 0,0 z m 13,0 c 10.715,-2.5483 -2.9609,8.11 0,0 z m -266,1 c 10.474,0.6379 -9.3943,5.2783 0,0 z m 106.000007,0 c 7.2505005,12.685 2.0403,12.21 0,0 z m 97,1 c -2.2317,4.4264 5.613,3.9824 0,0 z m 23.000003,0 c 5.34649,1.044 -6.182403,8.6639 0,0 z m 34.99999,0 c 2.5383,0 1.9555,0 0,0 z m -179.999993,1 c 11.279,1.364 -19.31,11.692 -3.5,3 l 3.5,-3 z m 94,0 c 13.84,8.2681 -17.455,5.5757 0,0 z m 37,0 c 2.5383,0 1.9555,0 0,0 z m 41.999993,0 1,2 -1,-2 z m 4,0 c 15.758,2.8522 -1.6504,7.8236 0,0 z m 112,0 c 8.8633,1.4669 2.4153,5.361 0,0 z m -297.999993,1 1,2 -1,-2 z m -48.000005,1 c 21.863005,-0.51785 2.6655,18.761 -2,1 l 3,2 -1,-3 z m 78.000005,0 c 6.2603,3.1993 -8.599,7.1594 0,0 z m -32,1 c 2.5383,0 1.9555,0 0,0 z m 35,0 0,0 z m 101,0 2,1 -2,-1 z m -119,1 c 3.7716,2.6636 -7.5122,5.1507 0,0 z m 155.999993,0 c 3.1829,0 4.3737,0 0,0 z m 25,0 c 18.338,-0.82985 -3.0564,9.8011 0,0 z m -89.999993,2 c 8.3992,4.4571 17.587,20.607 2.571,8.004 -0.63912,-3.0563 -12.757,-6.6606 -2.571,-8.004 z m 42,0 c 7.941503,4.6601 -5.5408,2.6352 0,0 z m -150,1 c -0.15539,6.7563 -7.0838,5.1889 0,0 z m 14,0 c 0.7136,1.7945 -3.327,6.149 0,0 z m 22,0 c 6.0496005,10.273 0.0747,8.1987 0,0 z m 209.999993,0 c 2.3352,2.3352 2.846,2.846 0,0 z m -215.999993,1 c 4.7737,-1.4522 -1.6963,6.1624 0,0.35607 l 0,-0.35607 z m 142.999993,0 c 7.7076,-2.2684 -0.19064,4.875 0,0 z m 9,0 c 12.573,2.6624 -20.875,12.415 -3.0682,3.5171 l 3.0682,-3.5171 z m -141.999993,1 c 8.1042005,7.4835 2.4964005,14.432 0,0 z m 150.999993,0 c 3.1829,0 4.3737,0 0,0 z m 114,0 c 0.48833,6.5309 12.091,0.33504 13,13 -10.936,-8.3564 -20.923,4.0413 -32,-7 5.9756,-3.0073 15.184,0.96758 19,-6 z m -292.999993,1 c 4.7697,2.952 -4.7401,2.7605 0,0 z m -76.000007,1 c 2.7934,10.742 -13.26,5.669 0,0 z m 92.000007,0 c 2.5383,0 1.9555,0 0,0 z m 98,0 c 2.3352,2.3352 2.846,2.846 0,0 z m -6,1 c 5.6,-1.5859 -2.2921,4.62 0,0 z m -179.000007,1 c 1.6962,12.24 -9.4505,12.848 0,0 z m 187.000007,0 c 3.1829,0 4.3737,0 0,0 z m -135,1 c 4.8937,5.2294 -4.0775,8.4218 0,0 z m 138,0 c 2.5383,0 1.9555,0 0,0 z m 2,1 1,2 -1,-2 z m 8,0 c 3.3347,3.3347 4.39,4.39 0,0 z m -106,1 1,2 -1,-2 z m 1,2 0,0.10231 0,-0.10231 z m 108,0 c 13.786003,-0.8935 3.5473,8.4788 0,0 z m 13.000003,0 c -0.4456,5.4859 -9.330403,1.7548 0,0 z m -36.000003,1 c 5.6,-1.5859 -2.2921,4.62 0,0 z m -126,1 c 3.7951,13.497 -11.458,3.3821 0,0 z m 172.999993,0 c 5.6724,-0.98035 -5.8132,4.5728 0,0 z m -124.9999925,1 0,0 z m 121.9999925,2 c 10.566,4.1881 -9.15259,6.6273 0,0 z m -180.999993,1 c 10.21,4.179 -6.9812,14.467 0,0 z m 54,0 c 2.3352,2.3352 2.846,2.846 0,0 z m 173.999993,0 c 9.7464,6.4222 28.649,30.287 6.2502,14.25 -9.9884,-4.8256 -33.022,-17.11 -8.5,-8.5 8.8953,5.3203 0.84459,-2.9327 2.2498,-5.7502 z m -140.999993,2 1,2 -1,-2 z m 7,1 c 5.6,-1.5859 -2.2921,4.62 0,0 z m -30.9999995,1 1,2 -1,-2 z m -44.0000005,1 c 7.2158,6.6076 -8.1285,8.4041 0,0 z m 69,0 c 11.359,1.0805 -5.1326,8.4793 0,0 z m 70,0 c 6.8686,3.2337 9.322,5.3872 8.678,7 -5.3919,1.0373 -6.8976,-2.862 -8.678,-7 z m 48.999993,1 c 9.9373,0.23072 3.0298,4.0388 0,0 z m -42.999993,1 c 3.916503,-0.84007 1.1996,1.7788 0,0 z m 145.999993,0 c 2.5383,0 1.9555,0 0,0 z m -223.999993,1 c 4.7697,2.952 -4.7401,2.7605 0,0 z m 55,0 c 11.278,7.1166 -2.8262,12.65 0,0 z m -45,1 1,2 -1,-2 z m 58,0 4,2 -4,-2 z m 50.999993,0 c 11.067,5.1494 9.7639,10.503 -2.86,2.4798 1.5069,-1.7014 3.9273,1.3062 2.86,-2.4798 z m -179.999993,1 c 6.7382,-0.50902 -6.2873,22.842 3,11.322 4.575,0.2195 -0.0744,14.595001 5.956,1.766 0.96392,-1.6457 4.8448,10.277 7.044,-3.088 8.0286,-14.514 -3.0313,20.456001 -7.9951,25.079001 0.71653,9.6265 4.6883,-7.8063 3.7211,-6.4825 2.7132,-1.7868 7.1226,8.0482 7.274,-0.59625 1.285,-6.441901 4.0107,13.55 -1,17.999999 16.7620005,-9.209699 -9.2009,8.8732 8.5199,1.2907 11.8560005,-5.772799 17.1280004,5.0949 19.4800004,11.709 2.6987,-7.1721 15.1389996,21.517 13.9999996,-1 9.8013,20.205 -29.891,3.1821 -15.1959996,24.804 13.4479996,10.78 -0.95447,-2.7439 6.1957,-8.8043 -0.45332,12.547 24.0649996,33.199 13.9979996,9.3091 -2.923,-11.687 14.205,-32.273 8.218,-9.5364 2.0908,16.431 0.99404,61.151999 -13.216,25.227 10.634,3.6266 -9.9843996,-15.111 -7.5,0 -6.0466996,15.737 -5.4174996,-17.84 -18.4519995,-17.057 8.13429997,-12.413 -16.7070005,-22.601 -22.0480005,-5.943 -5.3475,-7.2658 -1.2478,22.317 -7.385,7.0527 4.6027,-11.044 -2.3394,-22.006 -10.615,-13.053 7.2301,-9.0834 -7.499,-19.71 10,-23 -17.152,-2.0502 -35.901,-35.333 -14,-40.678 -2.5291,13.677 8.605,-2.6781 10,-6.322 z m 196.999993,2 c 7.6921,0.0291 13.886,3.3854 9,5 15.442,4.7021 34.602,11.376 36,28.000001 -8.8772,-2.5489 -44.6,-23.527001 -20,-14.000001 -7.3296,-2.7767 -21.561,-13.407 -15.322,-4 -12.479,-2.0571 -33.657,-14.654 -9.2341,-7.3773 10.103,2.2047 47.561,20.278001 24.289,5.7698 -8.2004,-4.31 -19.179,-5.2239 -24.733,-13.393 z m 63,0 c 3.1829,0 4.3737,0 0,0 z m 76,55 c 2.9671,-30.791999 13.126,12.321 14.172,24.437 3.3032,22.489 -32.3,-9.4669 -31.816,7.5626 -14.863,1.5305 -3.3883,-17.227 -19.356,-15 4.5737,12.642 -33.362,17.799 -24,10 -7.6487,0.0564 -1.2088,-5.9826 -10,-11 6.9541,8.4661 15.501,-15.651 11.553,-12.49 -14.268,6.5137 -44.194,-12.473 -40.684,-17.639999 5.9442,8.352399 8.1819,4.154499 10.13,-0.86954 -2.8857,-2.8845 14.086,-2.3077 9,-10 8.9935,9.171 -2.969,-7.513701 7,0 -2.7566,-6.6486 8.7504,-2.9506 -1.5472,-8.773601 -11.9,-5.3349 -10.03,-5.5763 1.5472,-2.2264 -12.132,-9.9476 33.187,-1.3343 13,-2 5.8681,6.402101 15.761,24.751001 20,7.000001 -4.0575,-5.052601 -9.7724,-4.919801 -15,-15.000001 -13.17,2.336 -8.0516,-6.1127 -0.5,-3 3.4894,-2.256 4.4847,-9.6167 12.776,-1.8342 -0.12012,5.4882 11.297,-1.3208 3.7238,5.3342 -5.1962,-0.4477 33.621,17.435001 7.9774,20.506 -12.94,7.3177 22.451,2.1095 0.49594,13.948 -10.638,3.5646 1.4603,35.918 8.5267,18.047 -12.908,7.0808 8.7094,-12.193 -4,-7 -4.5412,-11.332 19.243,-20.71 5,-9 -1.0291,14.925 12.614,7.6559 22,9 z m -343.999993,-54 c 5.0967,5.4522 -4.3164,2.48 0,0 z m 132,0 c 8.9748,1.4448 24.218003,6.3743 6.0724,5.2032 -1.7166,-0.31908 -9.9549,-1.7501 -6.0724,-5.2032 z m 65.999993,0 c 2.2569,0.41657 3.064,7.4635 0,0 z m 36,0 c 5.7469,5.893 2.1938,-0.67195 0,0 z m 37,0 c 3.1829,0 4.3737,0 0,0 z m -256.999993,2 1,2 -1,-2 z m 252.999993,0 c 3.1829,0 4.3737,0 0,0 z m -30,1 2,1 -2,-1 z m 39,1 c 5.6,-1.5859 -2.2921,4.62 0,0 z m -262.999993,1 1,2 -1,-2 z m 107,0 c 15.05,2.4013 -7.2618,6.276 7.3155,7.7732 0.0709,9.165001 13.494,10.686001 3.6845,17.227001 9.3574,10.054 -14.298,-4.5951 1,-4 -0.99208,-6.344501 -15.568,0.96029 -6,-7.000001 -14.243,-0.12717 -9.3262,-4.6586 -6,-14 z m 133.999993,0 1,2 -1,-2 z m -235.999993,1 1,2 -1,-2 z m 20,0 c 4.6262005,1.8906 -1.956,7.7212 0,0 z m 270.999993,0 c 2.3352,2.3352 2.846,2.846 0,0 z m -120,2 c 17.857,1.0912 42.185,14.601001 19,9 10.713,2.2291 26.805,12.425001 6.3494,7.074101 -12.947,-1.4984 -16.545,1.8204 -1.464,3.3482 14.276,11.225 -22.064,-4.9085 -3.7129,5.4565 10.17,10.580999 2.066,7.7479 -3.1725,-0.87875 10.118,24.621999 -11.144,-10.855001 -8.4996,-13.000001 8.2353,4.176301 -8.8263,-9.3207 -8.5004,-11 z m 73,0 c 5.6589,-1.3749 -4.2535,5.1738 0,0 z m -122.999993,1 c 11.504003,0.9449 7.2784,6.6307 0,0 z m 11,2 c 11.911993,12.324001 -21.631,8.6875 -4.5055,3.9308 l 2.3387,-1.7473 2.1668,-2.1834 z m -52,2 c 2.5383,0 1.9555,0 0,0 z m 220.999993,0 c 7.5142,-3.3261 3.5855,11.173001 0,0 z m -224.999993,3 c 2.5383,0 1.9555,0 0,0 z m 31,1 2,1 -2,-1 z m 126.999993,1 c 6.053,3.0119 0.18724,8.574801 0,0 z m 4,0 c 2.5383,0 1.9555,0 0,0 z m 20,0 c -0.53482,10.079001 22.502,0.15012 0,0 z m -226.9999925,1 c 3.2642999,2.1202 -5.0906,5.604801 0,0 z m 63.9999995,0 c 9.9819,-0.0137 -9.7713,12.069001 0,0 z m 145.999993,1 1,2.000001 -1,-2.000001 z m -235.999993,1 c 3.9165,-0.84007 1.1996,1.778801 0,0 z m 96,0 c 2.5383,0 1.9555,0 0,0 z m 61.999993,0 c 8.3215,4.416301 35.679,29.128 23.099,26.722 -9.6,-7.087099 -15.856,-17.473999 -23.099,-26.722 z m 130,1.000001 c -1.5052,5.3915 2.8356,0.56025 0,0 z m -171.999993,1 3,2 -3,-2 z m 124.999993,1 c 2.3352,2.3352 2.846,2.846 0,0 z m -159.999993,1 c 8.637,-1.996001 -4.4596,9.1871 0,0 z m 69.999993,0 c 2.3352,2.3352 2.846,2.846 0,0 z m -79.999993,1 c 16.215,6.373 2.7701,1.52 0.983,4.8338 2.0066,2.9047 7.718,9.1298 -1.983,5.1662 l 0.5,-5 0.5,-5 z m 51,2 1,2 -1,-2 z m -41,2 c 8.8294,9.056 -3.742,14.378999 0,0 z m 112.999993,0 3,2 -3,-2 z m 69,0 c -4.4481,5.5821 7.0564,-1.9813 0,0 z m -148.999993,1 c 10.449,7.2571 2.987,7.3325 -2,11.999999 -2.4099,-5.662999 -4.936,-8.856299 2,-11.999999 z m 10,0 1,2 -1,-2 z m 2,0 c 3.334703,3.3347 4.390003,4.39 0,0 z m 101.999993,0 c 5.9552,7.8868 -4.1632,2.0838 0,0 z m -285.999993,1 c 19.137,-1.012801 -7.964205,14.147999 0,0 z m 120,0 c 12.596,-2.31 0.58465,13.893999 0,0 z m 59,1 c 9.615303,11.250999 4.5961,9.628599 0,0 z m 4,0 1,2 -1,-2 z m 145.999993,1 2,1 -2,-1 z m -115,1 1,2 -1,-2 z m 7,0 c 2.3352,2.3352 2.846,2.846 0,0 z m 125,0 c -5.2096,6.0338 9.0634,0.20083 0,0 z m -219.999993,1 c 6.3607,11.447999 16.681,3.7947 19,10.999999 -8.6473,-0.53134 -21.248,0.11461 -6,6 9.7122,-4.7614 17.258,-5.8564 24,-7 3.8119,-2.2342 -6.0963,-3.7689 4,-4 -1.2289,7.1469 -4.1128,11.109 0.87434,22.404 -2.1835,14.637 -17.106,-27.491 -14.663,-4.3579 8.986,6.7152 12.039,23.156 19.788,28.632 -4.6471,-19.674 26.733993,23.425999 18.044003,4.41 5.75919,5.657 12.00799,11.993 17.95599,17.912 -0.67615,-5.3206 -15.63699,-23.157 -3,-13 -5.2907,-6.8177 -23.223993,-24.406 -12,-7 -10.985993,-11.246 -18.024993,-10.798 -23.999993,-28 14.782,12.553 5.9172,-16.186 15.057,-12.028 9.018093,-4.3062 6.273003,26.982 23.942993,27.028 -4.5274,-12.518 18.001,12.907 5.5,-4.5001 -5.1454,-9.6197 26.058,20.905 10.735,-0.18164 -9.2429,-4.4269 -19.927,-24.842 -5.9328,-8.4676 9.0188,9.619 -2.7904,-16.348 5.4903,-2.0054 2.6986,9.9526 13.589,11.468 7.2074,1.1548 12.783,0.59583 24.165,38.855 15,21 8.9851,4.9392 -19.928,-14.73 -6,1 10.137,8.4353 -12.355,5.5623 -10,7 -2.2266,-8.5874 -12.632,-13.572 -3,-2 -9.8484,-9.3754 13.422,19.425 -5,15 -10.73,-0.63298 -0.68053,10.804999 -15.495,6.820999 -12.823,-4.036599 25.828,21.403 15.995,12.679 -2.5336,-17.516999 13.076,23.485 -2.0195,6.4985 -9.4657,-9.7048 -15.182,-15.701 -14.981,-9.4985 -9.7077,-5.2886 6.2403,9.3199 -5.5778,4.8278 -2.5296,15.787 -22.471993,-6.1594 -15.996993,-8.711 -6.2441,-11.958999 -22.737,1.5235 -25.676,-18.366999 -3.3514,-4.9883 10.684,5.7075 2.7504,-6.2499 -17.138,-23.423 -1.6507,24.079999 6.1031,30.395999 11.778,13.772 0.0512,16.527 -7.0357,1.5651 -10.715,-10.345 -26.237,-18.928999 -22.146,-34.599999 3.2994,-13.378 0.26481,11.565 8.0785,-3.361 0.87975,-13.437 5.0093,-47.025 -14.892,-24.956 -6.3734,11.96 -3.71,-12.989 -11.108,-7.0439 -0.89373,-11.11 2.393,-9.9264 9,-8.322 -7.0932,-4.4571 -5.467,-2.7486 -4,-11.678 z m 64.000003,0 c 2.5383,0 1.9555,0 0,0 z m -81.000003,1 c 14.361,-0.67464 3.8076,15.390999 0,0 z m 109.999993,0 c 10.119,6.501099 14.325,17.906999 0,0 z m -26.99999,1 c 7.66289,11.711999 5.29929,15.874999 9.99999,15.999999 1.5632,0.80591 11.18,12.954 -1.3216,4.2304 -3.9489,-7.673 -1.5514,10.361 -4.9284,-3.7303 -1.25,-5.5 -2.49959,-11 -3.74989,-16.499999 z m -55.000003,1 2,2.999999 -2,-2.999999 z m 41,0 1,2 -1,-2 z m -177,1 c 6.361,-2.6374 0.0339,5.225199 0,0 z m 281.999993,0 1,1.999999 -1,-1.999999 z m -137.999993,1 c 5.6,-1.5859 -2.2921,4.619999 0,0 z m 34,0 c 4.4502,4.463499 1.1719,7.520799 0,0 z m -105,0.999999 c 2.5383005,0 1.9555005,0 0,0 z m 36,0 1,2 -1,-2 z m 58,0 2,3 -2,-3 z m 201.999993,1 c 10.259,-1.606599 -2.8996,16.551 -2.0652,2.0652 l 2.0652,-2.0652 z m -355.999993,1 c 7.125,3.0042 -14.174,27.864 -19.969005,9.3762 -7.7653,-8.7602 18.050005,-0.94778 19.969005,-9.3762 z m 35,0 c -12.557,12.429 -4.322,22.247 0,0 z m 62,0 c 6.219,6.8453 -1.9646,3.6869 0,0 z m 107.999993,0 c 4.7775,-1.9334 -0.5507,7.9336 0,0 z m 59,1 c 11.453,9.252 -5.8091,4.3124 0,0 z m -78,1 1,2 -1,-2 z m 146,1 c 5.4853,3.6984 -1.8135,4.8842 0,0 z m -234.999993,2 0,0 z m 11,0 c 6.1543,8.5009 7.8321,3.7974 0,0 z m 108.999993,0 c 2.5383,0 1.9555,0 0,0 z m 13,0 c 2.5383,0 1.9555,0 0,0 z m -218.999993,1 c 2.6275,5.3042 -1.1823,2.9417 0,0 z m 92,2 0,0 z m 85.999993,0 1,2 -1,-2 z m 41,0 c 17.27,1.9831 42.329,24.296 14.572,14.117 -5.9128,-3.3738 -11.257,-8.1043 -14.572,-14.117 z m -243.999993,1 c -2.6374,6.361 5.2252,0.0339 0,0 z m 128,0 c 5.2974,6.6221 5.2974,6.6221 0,0 z m 107.999993,0 c 9.2653,2.6218 14.189,10.462 2.7498,1.7499 l -2.7498,-1.7499 z m -85.999993,1 c -7.1014,5.4705 7.1014,5.4705 0,0 z m 10,0 c 0.7411,5.4339 4.0653,0.7758 0,0 z m -130,1 c 4.5796,2.6199 -0.25282,10.281 0,0 z m -7,1 c 5.3543,12.972 -13.724,14.411 0,0 z m 205.999993,0 1,2 -1,-2 z m 132,0 3,1 -3,-1 z m -172.99999,1 c 2.3352,2.3352 2.846,2.846 0,0 z m 37.99999,0 c 11.683,4.4576 3.9412,8.7524 0,0 z m 130,0 c -1.5052,5.3915 2.8356,0.56025 0,0 z m -232.999993,1 c 6.9238,6.3457 -1.3438,11.255 0,0 z m 111.999993,0 c 12.619,5.8599 8.4484,22.168 0,0 z m -66.999993,1 c 4.0179,1.3585 -0.10755,5.8859 0,0 z m -162,2 c 10.915,0.56838 7.8085,11.243 0,0 z m 211.999993,0 1,2 -1,-2 z m 24,0 c 2.5383,0 1.9555,0 0,0 z m -212.999993,1 c 5.893,5.7469 -0.67195,2.1938 0,0 z m 145,0 1,2 -1,-2 z m 51.999993,0 c 9.722,6.0158 1.2245,8.3007 0,0 z m 21,0 c 14.185,7.8465 5.3095,8.7762 0,0 z m -2,2 c 2.3352,2.3352 2.846,2.846 0,0 z m -238.999993,2 c 6.0906,7.3001 8.323,4.869 12,15 1.1602,-14.109 3.9909,15.704 6,-5.5004 1.0293,-21.968 14.922,15.365 17,1.5004 7.0518,12.186 7.484,38.296999 -11.572,21.113 -8.3802,-12.08 -30.977,-14.534 -23.428,-32.113 z m 125,0 c 3.5548,4.5163 0.67091,7.1812 0,0 z m 115.999993,0 c 20.034,15.28 0.8072,13.755 0,0 z m 128,1 c -14.58,18.801 10.763,8.9191 0,0 z m -271.999993,2 0,0 z m 34,0 0,0 z m 55.000003,1 c 3.19969,6.5962 -7.270103,-0.56664 2.99999,10 9.9154,1.1972 8.0521,0.0186 0.48191,-7.633 l -3.48189,-2.367 z m -39.000003,2 0,0 z m -14,3 c 9.5838,0.36753 -3.6573,14.921 0,1.3902 l 0,-1.322 0,-0.0682 z m 82.999993,0 c 3.3347,3.3347 4.39,4.39 0,0 z m 28,1 c 10.97,2.8303 23.371,25.819 5.4999,12.25 -4.9343,-1.268 -3.3779,-8.5777 -5.4999,-12.25 z m -194.999993,1 1,2 -1,-2 z m 5,0 c 8.1792,2.3994 7.9818,10.155 15,1 2.8203005,12.674 18.4400004,44.273999 -5.9055,28.694 -8.0761,-3.5201 -6.5471,-33.849 -6.5946,-12.444 0.34104,9.5299 -8.5524,-17.98 -2.4999,-17.25 z m 195.999993,0 c 2.5383,0 1.9555,0 0,0 z m -31,1 1,2 -1,-2 z m -130.9999926,1 0,0 z m -62.0000004,1 c -0.55308,13.017 5.3502,-1.5308 0,0 z m 186.999993,2 c 4.6573,4.6573 5.0109,5.0109 0,0 z m 126,1 c 7.5864,-2.3084 6.1572,9.5879 0,0 z m -271.999993,1 0,0 z m 90,1 c 4.9225,7.318 6.0208,5.6057 0,0 z m -83.9999995,2 1,2 -1,-2 z m 231.9999925,0 c 7.4339,5.7403 1.4423,8.5254 0,0 z m 30,3 c 10.426,4.8185 -3.0152,5.9195 0,0 z m -89,2 c 2.5383,0 1.9555,0 0,0 z m 2,1 c 12.52,3.2341 16.662,25.556999 2.0613,12.955 -12.731,-8.1225 -11.345,-12.21 -0.0613,-7.955 l -1,-2.5 -1,-2.5 z m -36,1 c 2.3352,2.3352 2.846,2.846 0,0 z m 120,0 c 8.0278,2.6198 -2.2389,5.7994 0,0 z m -180.999993,1 1,2 -1,-2 z m 80.999993,0 c 11.86,5.2799 4.5671,11.626 0,0 z m -149.9999926,1 1,2 -1,-2 z m 124.9999926,0 c 2.3352,2.3352 2.846,2.846 0,0 z m -92.999993,3 c 6.8085,7.365 0.007,18.528999 0,0 z m 7,2 c 4.9003,9.6198 8.2887,7.2828 7,3.322 2.1662,7.3628 8.5468,19.689999 -1,6.678 -5.4034,9.066799 -6.0457,-5.2323 -6,-10 z m 38,0 0,0 z m 166.999993,8 c 13.193,2.0075 -13.887,3.289499 0,0 z m 4,1 c 17.779,-2.6779 -5.6988,25.158999 -1.1536,5.628799 l 0.70117,-2.0046 0.45245,-3.624199 z M -4.4210725,103.26058 c 5.8255999,11.886 -4.7595,13.145 0,0 z m 90.9999995,0 2,3 -2,-3 z m 57.999993,0 c 11.3,4.8708 3.9679,8.1718 0,0 z m -95.999993,1 c 4.7658,7.7604 -4.1098,10.5 0,0 z m 79.999993,0 c 2.5383,0 1.9555,0 0,0 z m 2,1 4,3 -4,-3 z m 28,3 c 18.024,4.4059 4.3132,14.355 0,0 z m -175.999993,30 c 12.7190005,6.3891 -21.588,-5.9417 -20.574,-15.772 -11.166,-12.982 5.7398,-17.192 8.2615,-2.9796 4.3645,7.1059 14.8,9.07 12.313,18.752 z m 91,-24 c 8.4362,6.2728 14.65,21.571 9,26 -2.3263,-8.8977 -7.0826,-16.97 -9,-26 z m 97.999993,0 c 11.894,1.1824 6.9331,6.2787 0,0 z m 69,0 c 12.543,-2.8188 6.0244,10.874 0,0 z m -241.9999925,5 c 2.5382999,0 1.95549987,0 0,0 z m 121.9999925,4 c 10.88,-0.45245 31.021,18.557 9.4699,9.378 -4.053,-1.8027 -8.7069,-4.5446 -9.4699,-9.378 z m 7,1 4,2 -4,-2 z m -85.999993,1 c 16.241,1.6476 10.31,27.359 2.2222,11.111 -0.74074,-3.7037 -1.4815,-7.4074 -2.2222,-11.111 z m 51,2 c 7.517403,0.53268 1.9096,10.174 0,0 z m -88.9999996,3 c 13.6309996,19.763 -12.2499999,9.8042 0,0 z m 33.9999996,2 c 2.6275,5.3042 -1.1823,2.9417 0,0 z m -15,1 c 16.456,-3.5551 30.566,19.919 7.2705,16.385 -11.632,0.82103 -15.874,-7.5063 -7.2705,-16.385 z m 104.999993,2 c 12.216,1.7703 8.6806,11.063 0,0 z m -51.999993,1 c 2.3352,2.3352 2.846,2.846 0,0 z m 2,2 c 7.8426,5.6667 6.295,10.989 0,0 z m 57.999993,1 c 20.398,6.1023 27.802,29.48 0.51616,19.151 -0.96809,-6.7029 -7.4302,-11.27 -12.516,-18.151 2.693,-1.0542 19.885,7.9373 12,-1 z m -125.9999926,6 3.9999996,2 -3.9999996,-2 z m 225.9999926,0 c 8.8492,-0.30261 -5.7874,2.7144 0,0 z m -221.999993,3 c 3.1829,0 4.3737,0 0,0 z m 169.999993,0 c 11.433,-2.4706 3.5564,11.36 0,0 z m -98.999993,2 c 10.791,17.554 -3.4311,14.777 0,0 z m 78.999993,7 c 11.194,5.4476 -7.6297,8.289 0,0 z m -96.999993,1 c 12.664,-0.55901 27.676,15.476 6.7102,14.262 -14.252,-1.7907 -2.496,-5.863 -6.7102,-14.262 z m 136.999993,2 c 9.6655,13.257 -24.694,-0.18166 0,0 z m -58,5 c 6.0088,2.2569 1.8898,8.3614 0,0 z m -6,5 c 13.143,2.8004 33.581,34.296 8.8705,18.847 -3.4414,-4.0413 -19.948,6.7283 -16.871,-7.8474 9.1494,-0.6697 8.3785,-3.6775 8,-11 z m 60,0 c 6.5155,1.8969 23.784,-0.34512 11,9 -2.0353,-3.0243 -14.117,-4.6801 -11,-9 z m -91,17 c 15.596,-3.3378 12.481,15.388 29,8.2499 16.203,2.7691 -14.293,19.983 -19.495,4.5748 -4.0398,-3.3613 -8.574,-7.3456 -9.505,-12.825 z"
       id="path-1-78" />
  </g>
</svg>
