<svg id="svg2" xmlns:rdf="http://www.w3.org/1999/02/22-rdf-syntax-ns#" xmlns="http://www.w3.org/2000/svg" height="532.63" viewBox="0 0 480 532.63324" width="480" version="1.1" xmlns:cc="http://creativecommons.org/ns#" xmlns:dc="http://purl.org/dc/elements/1.1/" preserveAspectRatio="xMidYMid">
 <defs id="defs4">
  <style id="style6">.cls-2 {
        fill: #000000;
      }</style>
 </defs>
 <path id="path-1" d="m299 260.1c2.333-0.334 4.667-0.667 7-1 0.333-0.667 0.667-1.334 1-2-0.667-0.667-1.333-1.334-2-2-4.743 0.204-4.069-1.73-10-3 0.333 1.333 0.667 2.667 1 4h-3c-0.333-0.334-0.667-0.667-1-1 3.83-7.377 0.227-12.608 4-18 5.32 3.047 2.668 3.446 8 1 2.829 7.223 6.878 3.457 7 15l-3 3c1.333-0.334 2.667-0.667 4-1-1.868 10.012-7.769 9.83-11 19-14.096 40.002-2.719 56.506-55 56-10.249-0.1-21.563 0.764-28-5 0.333 2 0.667 4 1 6h-5c-0.022-4.238-2.344-5.775-2-11-4.395 1.404-1.316 0.045-8 0 1.043-2.629 1.563-1.657 1-4-1 0.666-2 1.333-3 2-2.948 7.358-9.88 15.083-7 19 5.097 10.854 11.619 19.261 15 33-2.498 1.19-0.984-0.64-2 2-4.412-5.209-7.128-4.003-9-8-3.638 2.315-3.702 1.55-4 5l-8-4c0.333 1.333 0.667 2.667 1 4l-3-3c0.667 2.333 1.333 4.667 2 7v1h-1-1c-1.332-14.033-6.735-14.25-12-28h-2c1.333 3.999 2.667 8 4 12-1-0.334-2-0.667-3-1-0.238-3.244-0.153-3.11-2-4-1-0.334-2-0.667-3-1 0.667 0.666 1.333 1.333 2 2 2.689 0.487 0.828-0.878 3 2-2.066 1.963-1.035 0.374-2 4-0.667-0.667-1.333-1.334-2-2v-3 2c-3.79 3.287-2.508 4.706-3 11h-1-1c-0.333-1-0.667-2-1-3 1.342-2.763 0.633-0.294 1-3-0.667 0.666-1.333 1.333-2 2 1 3.999 2 8 3 12h1v-8h1c0.667 0.333 1.333 0.666 2 1 0.333 1.333 0.667 2.667 1 4v-4c1 0.333 2 0.666 3 1 0.333 0.666 0.667 1.333 1 2v1c-4.508 1.889-1.058 1.393-4 4-0.866-2.605 0.403-3.492-2-2-0.667 1.666-1.333 3.333-2 5 2 6.666 4 13.334 6 20 16.015 2.237 11.553 9.315 19 17 6.154-1.356 4.946 1.674 10 6 3.189-7.254 9.5-13.511 13-18 0.667 1 1.333 2 2 3 0.333-5 0.667-10.001 1-15 0.333 6.666 0.667 13.334 1 20 4.999 5.999 10.001 12 15 18 5.999 12.998 12.001 26.001 18 39 0.667-0.334 1.333-0.667 2-1 1.595-13.039 8.613-18.501 12-29-0.333-9.666-0.667-19.335-1-29 8.439-21.28 13.101-47.984 37-56-0.255-18.166-1.706-34.354 1-51 2 1.333 4 2.667 6 4-4.471-0.154-2.843-2.286-5 2 8.014 2.211 14.126 8.674 21 14-0.667 2.333-1.333 4.667-2 7 4.188 1.293 3.135 0.552 5 4 3.952-1.656 5.638-0.453 8-2-2.972-2.412-0.55-0.556 0-5l4 4-3 3c1.333 1.666 2.667 3.333 4 5 1.8-2.042 0.015-0.707 3-2-0.355 7.146 12.31 25.156 19 30 13.665 4.333 27.335 8.667 41 13 25.294 16.443 47.234 39.774 59 70 5.517-0.038 5.787 0.282 8-3 1.666-3.333 3.334-6.667 5-10 2-0.334 4-0.667 6-1v94h-52v-10c6.409-0.514 15.294-0.706 19-4-0.667-5.666-1.333-11.334-2-17-5.703-12.461-30.726-6.782-39-4 0.333 11.665 0.667 23.334 1 35h-7c11.912-25.098-14.723-43.667-38-36-3.219 10.311-5.076 21.054-5 36h-32v-3c1-16.332 2-32.669 3-49-1.667 17.331-3.334 34.668-5 52-11.71 0.322-44.058 4.287-51-2-6.25-14.96-4.258-35.286-12-48h-3c-0.333 0.666-0.667 1.333-1 2 0.827 3.548 1.122 9.563 3 12 0.667-0.667 1.333-1.334 2-2 0.667 4.666 1.333 9.334 2 14h-6c-1-8.666-2-17.334-3-26-0.667 0.333-1.333 0.666-2 1-3.938 14.502 3.074 33.017 5 49h-257c0.333-49.662 0.667-99.339 1-149 13.93-2.299 20.835-11.753 32-16 6.666-1.333 13.334-2.667 20-4 8.666-9.333 17.334-18.668 26-28 5.666-0.667 11.334-1.334 17-2 2-2.667 4-5.334 6-8 4-0.667 8-1.334 12-2 2.4-1.63 4.805-10.819 9-14 10.25-7.773 43.475-21.498 58-25 0.581-22.007 1.599-44.887-9-58 3.341-2.417 1.497 0.093 1-4 1 0.333 2 0.666 3 1-4.061-7.221-9.421-12.277-16-21 1-0.334 2-0.667 3-1 0.667 0.666 1.333 1.333 2 2-1.423-4.045-2.199-3.763-5-6 0.333 1 0.667 2 1 3-1-0.667-2-1.334-3-2-0.667-3-1.333-6.001-2-9 1 0.666 2 1.333 3 2-1.695-6.752-6.465-24.6-3-38 1.237-4.783 5.054-4.677 6-10-2.525-2.83-5.387-3.923-6-6 0.516-2.717-0.244-1.259 2-4h-6c2-1.333 4-2.667 6-4-1.333-0.334-2.667-0.667-4-1 3.394-3.123 0.362-20.733 4-31h-3c5.184-11.311-1.826-15.296 4-33 4.084-12.409 10.949-15.284 21-25v-1l-6 3v-1c0.333-1 0.667-2 1-3 4.794-2.813 8.895-2.721 12-7-1.953-1.09-1.905 0.044-1-2 16.17-4.658 18.07-19.3 33-24 12.518-3.941 25.206-1.846 37 1 1.666-0.667 3.333-1.334 5-2h2c5.042-4.744 32.53-0.465 40 3 1-0.667 2-1.334 3-2 8.606 11.578 18.625 13.58 28 18 6.455 3.043 12.1 12.789 17 16-3.341 2.2-1.519 0.299 0 4 3.633-0.909 1.388-1.86 5 0 2.191 2.508 1.353 2.886 1 8 4.379 0.008 3.599 1.307 9 0-0.508 9.095 3.454 8.409 3 17-0.728 13.788-6.406 22.807-4 37 0.667 6.332 1.333 12.667 2 19-2.615 12.921-11.423 22.823-12 35 1-0.667 2-1.334 3-2-3.438 11.51-8.903 17.857-11 31-1 0.333-2 0.666-3 1-0.283-33.885-0.129-44.393-27-52 1.846 4.602 1.514 3.189 6 5v4c-7.251-4.504-14.342-5.35-22-3 2.283-4.899 3.153-7.532-2-7 2.58-5.79-0.039-3.975 3-8-1.333-0.667-2.667-1.334-4-2 1.333 0.333 2.667 0.666 4 1 9.795-9.314 37.908 8.815 41 11 0.395-12.055 8.295-25.895 3-39-9.165-22.686-38.049-42.306-61-28-1.437-5.392-1.605-1.867-4-5 1-0.334 2-0.667 3-1-6.962-2.341-18.251-5.087-22-8 3.583-1.782 1.184 0.531 3-3-5.468 3.671-18.231 6.145-24 2-12.317 6.61-20.815 14.443-34 19 0.667 2.666 1.333 5.333 2 8 1-0.334 2-0.667 3-1-2.838 6.592-1.001 8.572-2 15h4l-7 7c0.333 0.666 0.667 1.333 1 2 9.559-0.058 40.611 7.509 42 13 3.403 2.937 3.126 4.545 3 9h-6c1.333 0.666 2.667 1.333 4 2 0.333 1.333 0.667 2.667 1 4 0 0 17.995 38.401 7 40 10.122 6.749 4.881 21.754 1 32 2.906 6.296 5.888 10.966 11 15-2.333 2-4.667 4-7 6 1.731 6.12 3.58 4.29 6 8-0.667 3.999-1.333 8-2 12-8.688-2.427-12.535-4.157-23-1l3-3c-8.88-0.992-10.773 0.396-17 3v1c3-0.334 6-0.667 9-1-0.333 0.666-0.667 1.333-1 2-2.108 0.222-3.301 0.199-6 2h2c2.4 3.792 1.776 1.615 5 3 0.357-0.572 30.987 3.129 37 5v1c-9.999 0.333-20.001 0.666-30 1 0.667 0.666 1.333 1.333 2 2 4.659 0.89 6.793 4.338 14 6-0.667 0.333-1.333 0.666-2 1-16.123 6.504-33.063-11.044-36-10v1c1.279 6.056 1.223 6.648 6 7v5c-2 1.333-4 2.667-6 4 1.667 2.666 3.333 5.333 5 8 2.489 0.02 9.176 4.053 13 0-2.645-0.072-4.331 0.225-7-2-1-2.667-2-5.334-3-8h3c7.114 10.438 29.587-5.418 41 3v1h-4c0.333 1 0.667 2 1 3h5v4c-6.724 6.039-8.702 5.67-8 17-1-0.334-2-0.667-3-1-1-1.667-2-3.334-3-5-1.333 1.666-2.667 3.333-4 5 0.236 4.936 0.713 6.468 3 9 7.879-3.493 3.314-3.351 11-5 0.667-5.333 1.333-10.667 2-16h1c0.333 3.999 0.667 8 1 12 6.67 1.371 5.526 3.043 9 7 0.333-0.334 0.667-0.667 1-1 0.333-1.667 0.667-3.334 1-5-2.156-1.252 9.768-27.056 11-29-5.207-0.311-2.564 2.242-5-2 2.806-2.32 2.923-3.77 3-9zm-117-230h2-2zm35 63h2-2zm-2 24c-4.436 3.487-9.196 5.857-16 7v21c1-0.334 2-0.667 3-1 3.564-10.218 15.463-21.051 23-21-2.224-3.02-6.248-4.638-10-6zm82 8c1 0.333 2 0.666 3 1v1c-2.898-0.532-4.897 0.793-3-2zm-77 5c-3.348 3.048-5.553 3.787-8 8v1c9.275 2.601 28.765 7.014 36 18v1h-11c0.667-0.667 1.333-1.334 2-2h4c-3.333-2.667-6.667-5.334-10-8-0.667 0.333-1.333 0.666-2 1-2 2.666-4 5.333-6 8-4.666-1.333-9.334-2.667-14-4 1 1.333 2 2.667 3 4 4.333 1 8.667 2 13 3-0.333 0.666-0.667 1.333-1 2-15.295-0.374-23.012-5.499-33-9-13.072 36.592 5.248 53.061 14 79 7.24-0.716 22.451-2.858 25-9 2.544-3.995 9.423-34.717 11-42 4.495-1.165 3.339 0.861 5-3-0.667 0.333-1.333 0.666-2 1 1.666-4.333 3.334-8.667 5-13-0.667-0.334-1.333-0.667-2-1-2.666 1-5.334 2-8 3 3.666-4 7.334-8.001 11-12v-1c-16.466-10.059-7.877-21.931-32-25zm104 14c5.627 2.416 6.805 6.247 9 12-1-0.334-2-0.667-3-1-2-3.667-4-7.334-6-11zm-21 6c4.405 0.678 21.975 5.249 26 12 1 2.999 2 6 3 9-3 0.333-6 0.666-9 1 1.121-5.719 0.882-7.849-4-12h-1c-2 2.333-4 4.667-6 7-2.666-1-5.334-2-8-3-2.572-2.131-2.486-2.565-3-7h-7c0.667-0.334 1.333-0.667 2-1 2.333-2 4.667-4 7-6zm-73 10h2c-0.667 0.666-1.333 1.333-2 2v-2zm61 1c0.667 0.666 1.333 1.333 2 2-0.667-0.667-1.333-1.334-2-2zm-131 1c-0.333 1.666-0.667 3.333-1 5h1c0.333-1.667 0.667-3.334 1-5h-1zm135 1h3-3zm4 0h2-2zm-135 33c0.667 0.666 1.333 1.333 2 2-0.667-0.667-1.333-1.334-2-2zm83 16v2-2zm38 0c-0.349 15.814-4.225 12.21 7 24-0.333 1-0.667 2-1 3-1.321 3.827 0.002 2.08-3 4-0.45 0.457-14.01 0.768-16 1-0.667-0.334-1.333-0.667-2-1v-9c4.114-2.158 6.849-4.113 9-9-2.333 1.666-4.667 3.333-7 5 2.058-4.866 5.133-6.116 9-9-3-1-6-2-9-3h2c2.886-3.976 4.324-5.504 11-6zm-25 7c-0.333 0.666-0.667 1.333-1 2 0.667-0.667 1.333-1.334 2-2h-1zm14 15c0.667 0.333 1.333 0.666 2 1-0.667-0.334-1.333-0.667-2-1zm2 3v2-2zm-24 11c0.333 0.666 0.667 1.333 1 2-0.333-0.667-0.667-1.334-1-2zm53 1c0.667 1.666 1.333 3.333 2 5 0.667-0.667 1.333-1.334 2-2-0.333-1-0.667-2-1-3h-3zm-14 10h2c-1 0.666-2 1.333-3 2 0.333-0.667 0.667-1.334 1-2zm-2 2c0.333 0.666 0.667 1.333 1 2-0.333-0.667-0.667-1.334-1-2zm-47 25v2-2zm8 0c-2.84 2.886-5.253 4.646-8 5 1.305 3.493 1.353 3.078 1 7 1-0.667 2-1.334 3-2 1.333-3.333 2.667-6.667 4-10zm36 0c-0.22 1.467 0.414 1.003-1 3 0.333-1 0.667-2 1-3zm2 1c3.027 1.931 1.619 0.204 3 4h-1c-0.667-1.333-1.333-2.667-2-4zm-53 1c-1.666 1-3.334 2-5 3 0.68 0.027 3.688-0.467 2 1 1-0.334 2-0.667 3-1v-3zm20 3c-2.333 3.333-4.667 6.667-7 10h4c1.191-2.498-0.64-0.984 2-2 0.333-2.667 0.667-5.334 1-8zm28 1h2-2zm-44 5c0.44 4.003-0.992 2.1 2 5 0.333-1 0.667-2 1-3-0.333-0.667-0.667-1.334-1-2h-2zm15 3v2-2zm-110 3c-1.333 2.666-2.667 5.333-4 8 1.666 0.333 3.333 0.666 5 1 1.026-4.511-0.549-3.805 3-6 0.194 0.559 0.673 0.945 1 0-0.333-0.667-0.667-1.334-1-2-1.333-0.334-2.667-0.667-4-1zm164 6c1.667 1 3.333 2 5 3-1.667-1-3.333-2-5-3zm-35 1c0.333 0.666 0.667 1.333 1 2 0.333-0.667 0.667-1.334 1-2h-2zm-134 2c-0.333 0.666-0.667 1.333-1 2 0.667-0.667 1.333-1.334 2-2h-1zm175 1c1 0.666 2 1.333 3 2-1-0.667-2-1.334-3-2zm5 4c1.333 1 2.667 2 4 3-1.333-1-2.667-2-4-3zm-184 4v2-2zm-1 4v3c0.333-1 0.667-2 1-3h-1zm122 1c1 0.333 2 0.666 3 1-1-0.334-2-0.667-3-1zm-41 6c1.666 0.333 3.333 0.666 5 1-0.667 0.666-1.333 1.333-2 2-0.333-0.667-0.667-1.334-1-2-0.667-0.334-1.333-0.667-2-1zm-55 2c-3 2.333-6 4.667-9 7 0.667 1 1.333 2 2 3 4.75-3.29 9.034-4.927 14-3l4 4c-1.075-4.351-2.77-6.862-6-9-1.666-0.667-3.333-1.334-5-2zm177 3h2-2zm-174 5c-0.333 0.666-0.667 1.333-1 2 0.667-0.667 1.333-1.334 2-2h-1zm-10 5c-0.333 0.333-0.667 0.666-1 1l7 7c-2-2.667-4-5.334-6-8zm-15 1c-0.667 0.666-1.333 1.333-2 2v9c0.667-0.334 1.333-0.667 2-1 1-2.667 2-5.334 3-8-1-0.667-2-1.334-3-2zm183 2c1.666 3.666 3.334 7.333 5 11 0.214-3.052-0.912-3.182 3-5v5c1-1.333 2-2.667 3-4-1.359 3.553-0.746 3.699-3 5 0.667 0.666 1.333 1.333 2 2 3.358-1.495 2.807-1.479 7-1v-6c-0.333-0.667-0.667-1.334-1-2-5.333-1.667-10.667-3.334-16-5zm-155 4c-0.333 0.666-0.667 1.333-1 2 0.667-0.667 1.333-1.334 2-2h-1zm-8 2c0.667 2 1.333 4 2 6h1v-5c-1-0.334-2-0.667-3-1zm182 1c-0.702 9.89-0.47 27.766-6 39 0.272-11.375 2.641-16.602 3-23h-3c-0.383 3.585 0.525 1.244-3 2 0.667 0.333 1.333 0.666 2 1 0.667 0.666 1.333 1.333 2 2-0.667 0.666-1.333 1.333-2 2-3.468 0.821-1.265-1.161-3 2l-4-4v1c2.008 1.87 2.263 3.768 3 7-3.169-2.764-0.91-3.738-4-2-5.379-0.653-6.93 0.709-10 5-1.053 14.934-8.896 33.986-7 43 6.168 2.692 11.459 8.855 17 3 0.333-2.667 0.667-5.334 1-8h1v9c0.667-0.334 1.333-0.667 2-1 1.555-9.825 6.657-10.183 9-16l4 4c-0.667-1.667-1.333-3.334-2-5 2-0.667 4-1.334 6-2-2.406-10.161 13.685-31.394 6-50-4-3-8-6.001-12-9zm-173 2c2 1.666 4 3.333 6 5v1c-2-0.334-4-0.667-6-1v-5zm21 0c0.312 2.681-0.383 2.393 2 5-0.667-1.667-1.333-3.334-2-5zm-14 3h2c-1.8 2.042-0.015 0.706-3 2 0.333-0.667 0.667-1.334 1-2zm17 0v3c1.667-0.667 3.333-1.334 5-2v-1h-5zm-14 1v5h-1c0.333-1.667 0.667-3.334 1-5zm25 0v2-2zm141 1c0.333 1 0.667 2 1 3h-1v-3zm-11 1c0.667 0.333 1.333 0.666 2 1-0.667-0.334-1.333-0.667-2-1zm-178 3c1.259 3.022-0.018 1.196 2 3-0.333-1-0.667-2-1-3h-1zm23 0c0.333 0.666 0.667 1.333 1 2-0.333-0.667-0.667-1.334-1-2zm159 1v3c0.333-1 0.667-2 1-3h-1zm-161 1h2-2zm35 0c0.333 0.666 0.667 1.333 1 2-0.333-0.667-0.667-1.334-1-2zm133 0c0.333 0.666 0.667 1.333 1 2-0.333-0.667-0.667-1.334-1-2zm-21 1c1 1.333 2 2.667 3 4-1.346-3.401-0.607-2.07-3-4zm-113 1c1.177 2.821 0.748 1.003-1 3 0.333-1 0.667-2 1-3zm-30 1c0.667 0.666 1.333 1.333 2 2-0.667 0.333-1.333 0.666-2 1v-3zm-25 1c2.057 6.765-0.253 21.113 6 27 0.667-0.334 1.333-0.667 2-1v-1c-4.091-11.497-0.512-17.991-8-25zm19 0c1 0.666 2 1.333 3 2h-3v-2zm169 1c1.29 3.271 1.874 1.112 0 4v-4zm-166 1c0.667 0.666 1.333 1.333 2 2-0.667-0.667-1.333-1.334-2-2zm4 2c0.667 0.666 1.333 1.333 2 2-0.667 0.666-1.333 1.333-2 2v-4zm7 0c0.333 1 0.667 2 1 3h-1v-3zm25 0c0.333 1 0.667 2 1 3-0.667-0.334-1.333-0.667-2-1 0.333-0.667 0.667-1.334 1-2zm109 0c-0.333 1-0.667 2-1 3 2.042-1.801 0.707-0.015 2-3h-1zm39 2c-2.393 19.052-7.751 40.517-10 52 1.333 0.333 2.667 0.666 4 1 1.333-8.999 2.667-18.001 4-27 1.927 2.963 0.254 0.017 3 2-1-1.333-2-2.667-3-4 4.46-1.378 7.709-15.867 2-24zm-172 2c0.333 1 0.667 2 1 3h-1v-3zm25 0v5-5zm147 1c0.333 0.666 0.667 1.333 1 2-0.333-0.667-0.667-1.334-1-2zm-146 4v6-6zm-48 1v2-2zm173 7c0.333 0.666 0.667 1.333 1 2-0.333-0.667-0.667-1.334-1-2zm-6 2c0.333 1 0.667 2 1 3h-1v-3zm-50 2c0.667 1 1.333 2 2 3-0.667-1-1.333-2-2-3zm26 1v2-2zm29 0c0.333 0.666 0.667 1.333 1 2-0.333-0.667-0.667-1.334-1-2zm-147 5c0.667 3.333 1.333 6.667 2 10-2.275-2.235-2.179-5.167-2-10zm151 0h2-2zm-128 4v3c0.333-1 0.667-2 1-3h-1zm144 0v2c0.977-1.745 0.912-0.22 0-2zm-1 5v2-2zm-15 4c1 0.666 2 1.333 3 2-1.8-2.042-0.015-0.707-3-2zm15 2c-0.333 1-0.667 2-1 3 0.667-1 1.333-2 2-3h-1zm-14 3c-0.333 1.333-0.667 2.667-1 4h1c0.333-1 0.667-2 1-3-0.333-0.334-0.667-0.667-1-1zm-16 2c0.333 0.666 0.667 1.333 1 2-0.333-0.667-0.667-1.334-1-2zm4 0c0.333 0.666 0.667 1.333 1 2-0.333-0.667-0.667-1.334-1-2zm4 4c0.333 1 0.667 2 1 3 0.667-1 1.333-2 2-3h-3zm15 4c-0.667 2.666-1.333 5.333-2 8h1c1-0.334 2-0.667 3-1 0.333-1.667 0.667-3.334 1-5-1-0.667-2-1.334-3-2zm1 2c0.333 0.666 0.667 1.333 1 2h-2c0.333-0.667 0.667-1.334 1-2zm-26 8c-1 4.333-2 8.667-3 13h6v-4c-1.946-3.265-1.988-6.182-3-9zm11 3c-1 1.333-2 2.667-3 4 0.333 1 0.667 2 1 3 0.667-0.334 1.333-0.667 2-1 0.602-4.775 1.951-3.792 0-6zm39 64c3.666 0.666 7.334 1.333 11 2-0.333 2-0.667 4-1 6-0.667 1.333-1.333 2.667-2 4h-8v-12z" fill-rule="evenodd" class="cls-2"/>
</svg>
