<svg xmlns="http://www.w3.org/2000/svg" xmlns:xlink="http://www.w3.org/1999/xlink" preserveAspectRatio="xMidYMid" width="480" height="531" viewBox="0 0 480 531">
  <defs>
    <style>

      .cls-2 {
        fill: #000000;
      }
    </style>
  </defs>
  <path d="M299.000,260.094 C301.333,259.760 303.667,259.427 306.000,259.094 C306.333,258.427 306.667,257.760 307.000,257.094 C306.333,256.427 305.667,255.760 305.000,255.094 C300.257,255.298 300.931,253.364 295.000,252.094 C295.333,253.427 295.667,254.761 296.000,256.094 C295.000,256.094 294.000,256.094 293.000,256.094 C292.667,255.760 292.333,255.427 292.000,255.094 C295.830,247.717 292.227,242.486 296.000,237.094 C301.320,240.141 298.668,240.540 304.000,238.094 C306.829,245.317 310.878,241.551 311.000,253.094 C310.000,254.094 309.000,255.094 308.000,256.094 C309.333,255.760 310.667,255.427 312.000,255.094 C310.132,265.106 304.231,264.924 301.000,274.094 C286.904,314.096 298.281,330.600 246.000,330.094 C235.751,329.994 224.437,330.858 218.000,325.094 C218.333,327.094 218.667,329.094 219.000,331.094 C217.333,331.094 215.666,331.094 214.000,331.094 C213.978,326.856 211.656,325.319 212.000,320.094 C207.605,321.498 210.684,320.139 204.000,320.094 C205.043,317.465 205.563,318.437 205.000,316.094 C204.000,316.760 203.000,317.427 202.000,318.094 C199.052,325.452 192.120,333.177 195.000,337.094 C200.097,347.948 206.619,356.355 210.000,370.094 C207.502,371.284 209.016,369.454 208.000,372.094 C203.588,366.885 200.872,368.091 199.000,364.094 C195.362,366.409 195.298,365.644 195.000,369.094 C192.334,367.761 189.666,366.427 187.000,365.094 C187.333,366.427 187.667,367.761 188.000,369.094 C187.000,368.094 186.000,367.094 185.000,366.094 C185.667,368.427 186.333,370.761 187.000,373.094 C187.000,373.427 187.000,373.760 187.000,374.094 C186.667,374.094 186.333,374.094 186.000,374.094 C185.667,374.094 185.333,374.094 185.000,374.094 C183.668,360.061 178.265,359.844 173.000,346.094 C172.333,346.094 171.667,346.094 171.000,346.094 C172.333,350.093 173.667,354.094 175.000,358.094 C174.000,357.760 173.000,357.427 172.000,357.094 C171.762,353.850 171.847,353.984 170.000,353.094 C169.000,352.760 168.000,352.427 167.000,352.094 C167.667,352.760 168.333,353.427 169.000,354.094 C171.689,354.581 169.828,353.216 172.000,356.094 C169.934,358.057 170.965,356.468 170.000,360.094 C169.333,359.427 168.667,358.760 168.000,358.094 C168.000,357.094 168.000,356.094 168.000,355.094 C168.000,355.760 168.000,356.427 168.000,357.094 C164.210,360.381 165.492,361.800 165.000,368.094 C164.667,368.094 164.333,368.094 164.000,368.094 C163.667,368.094 163.333,368.094 163.000,368.094 C162.667,367.094 162.333,366.094 162.000,365.094 C163.342,362.331 162.633,364.800 163.000,362.094 C162.333,362.760 161.667,363.427 161.000,364.094 C162.000,368.093 163.000,372.094 164.000,376.094 C164.333,376.094 164.667,376.094 165.000,376.094 C165.000,373.427 165.000,370.760 165.000,368.094 C165.333,368.094 165.667,368.094 166.000,368.094 C166.667,368.427 167.333,368.760 168.000,369.094 C168.333,370.427 168.667,371.761 169.000,373.094 C169.000,371.761 169.000,370.427 169.000,369.094 C170.000,369.427 171.000,369.760 172.000,370.094 C172.333,370.760 172.667,371.427 173.000,372.094 C173.000,372.427 173.000,372.760 173.000,373.094 C168.492,374.983 171.942,374.487 169.000,377.094 C168.134,374.489 169.403,373.602 167.000,375.094 C166.333,376.760 165.667,378.427 165.000,380.094 C167.000,386.760 169.000,393.428 171.000,400.094 C187.015,402.331 182.553,409.409 190.000,417.094 C196.154,415.738 194.946,418.768 200.000,423.094 C203.189,415.840 209.500,409.583 213.000,405.094 C213.667,406.094 214.333,407.094 215.000,408.094 C215.333,403.094 215.667,398.093 216.000,393.094 C216.333,399.760 216.667,406.428 217.000,413.094 C221.999,419.093 227.001,425.094 232.000,431.094 C237.999,444.092 244.001,457.095 250.000,470.094 C250.667,469.760 251.333,469.427 252.000,469.094 C253.595,456.055 260.613,450.593 264.000,440.094 C263.667,430.428 263.333,420.759 263.000,411.094 C271.439,389.814 276.101,363.110 300.000,355.094 C299.745,336.928 298.294,320.740 301.000,304.094 C303.000,305.427 305.000,306.761 307.000,308.094 C302.529,307.940 304.157,305.808 302.000,310.094 C310.014,312.305 316.126,318.768 323.000,324.094 C322.333,326.427 321.667,328.761 321.000,331.094 C325.188,332.387 324.135,331.646 326.000,335.094 C329.952,333.438 331.638,334.641 334.000,333.094 C331.028,330.682 333.450,332.538 334.000,328.094 C335.333,329.427 336.667,330.761 338.000,332.094 C337.000,333.094 336.000,334.094 335.000,335.094 C336.333,336.760 337.667,338.427 339.000,340.094 C340.800,338.052 339.015,339.387 342.000,338.094 C341.645,345.240 354.310,363.250 361.000,368.094 C374.665,372.427 388.335,376.761 402.000,381.094 C427.294,397.537 449.234,420.868 461.000,451.094 C466.517,451.056 466.787,451.376 469.000,448.094 C470.666,444.761 472.334,441.427 474.000,438.094 C476.000,437.760 478.000,437.427 480.000,437.094 C480.000,468.424 480.000,499.764 480.000,531.094 C462.668,531.094 445.332,531.094 428.000,531.094 C428.000,527.761 428.000,524.427 428.000,521.094 C434.409,520.580 443.294,520.388 447.000,517.094 C446.333,511.428 445.667,505.760 445.000,500.094 C439.297,487.633 414.274,493.312 406.000,496.094 C406.333,507.759 406.667,519.428 407.000,531.094 C404.667,531.094 402.333,531.094 400.000,531.094 C411.912,505.996 385.277,487.427 362.000,495.094 C358.781,505.405 356.924,516.148 357.000,531.094 C346.334,531.094 335.666,531.094 325.000,531.094 C325.000,530.094 325.000,529.094 325.000,528.094 C326.000,511.762 327.000,495.425 328.000,479.094 C326.333,496.425 324.666,513.762 323.000,531.094 C311.290,531.416 278.942,535.381 272.000,529.094 C265.750,514.134 267.742,493.808 260.000,481.094 C259.000,481.094 258.000,481.094 257.000,481.094 C256.667,481.760 256.333,482.427 256.000,483.094 C256.827,486.642 257.122,492.657 259.000,495.094 C259.667,494.427 260.333,493.760 261.000,493.094 C261.667,497.760 262.333,502.428 263.000,507.094 C261.000,507.094 259.000,507.094 257.000,507.094 C256.000,498.428 255.000,489.760 254.000,481.094 C253.333,481.427 252.667,481.760 252.000,482.094 C248.062,496.596 255.074,515.111 257.000,531.094 C171.342,531.094 85.658,531.094 0.000,531.094 C0.333,481.432 0.667,431.755 1.000,382.094 C14.930,379.795 21.835,370.341 33.000,366.094 C39.666,364.761 46.334,363.427 53.000,362.094 C61.666,352.761 70.334,343.426 79.000,334.094 C84.666,333.427 90.334,332.760 96.000,332.094 C98.000,329.427 100.000,326.760 102.000,324.094 C106.000,323.427 110.000,322.760 114.000,322.094 C116.400,320.464 118.805,311.275 123.000,308.094 C133.250,300.321 166.475,286.596 181.000,283.094 C181.581,261.087 182.599,238.207 172.000,225.094 C175.341,222.677 173.497,225.187 173.000,221.094 C174.000,221.427 175.000,221.760 176.000,222.094 C171.939,214.873 166.579,209.817 160.000,201.094 C161.000,200.760 162.000,200.427 163.000,200.094 C163.667,200.760 164.333,201.427 165.000,202.094 C163.577,198.049 162.801,198.331 160.000,196.094 C160.333,197.094 160.667,198.094 161.000,199.094 C160.000,198.427 159.000,197.760 158.000,197.094 C157.333,194.094 156.667,191.093 156.000,188.094 C157.000,188.760 158.000,189.427 159.000,190.094 C157.305,183.342 152.535,165.494 156.000,152.094 C157.237,147.311 161.054,147.417 162.000,142.094 C159.475,139.264 156.613,138.171 156.000,136.094 C156.516,133.377 155.756,134.835 158.000,132.094 C156.000,132.094 154.000,132.094 152.000,132.094 C154.000,130.761 156.000,129.427 158.000,128.094 C156.667,127.760 155.333,127.427 154.000,127.094 C157.394,123.971 154.362,106.361 158.000,96.094 C157.000,96.094 156.000,96.094 155.000,96.094 C160.184,84.783 153.174,80.798 159.000,63.094 C163.084,50.685 169.949,47.810 180.000,38.094 C180.000,37.760 180.000,37.427 180.000,37.094 C178.000,38.094 176.000,39.094 174.000,40.094 C174.000,39.760 174.000,39.427 174.000,39.094 C174.333,38.094 174.667,37.094 175.000,36.094 C179.794,33.281 183.895,33.373 187.000,29.094 C185.047,28.004 185.095,29.138 186.000,27.094 C202.170,22.436 204.070,7.794 219.000,3.094 C231.518,-0.847 244.206,1.248 256.000,4.094 C257.666,3.427 259.333,2.760 261.000,2.094 C261.667,2.094 262.333,2.094 263.000,2.094 C268.042,-2.650 295.530,1.629 303.000,5.094 C304.000,4.427 305.000,3.760 306.000,3.094 C314.606,14.672 324.625,16.674 334.000,21.094 C340.455,24.137 346.100,33.883 351.000,37.094 C347.659,39.294 349.481,37.393 351.000,41.094 C354.633,40.185 352.388,39.234 356.000,41.094 C358.191,43.602 357.353,43.980 357.000,49.094 C361.379,49.102 360.599,50.401 366.000,49.094 C365.492,58.189 369.454,57.503 369.000,66.094 C368.272,79.882 362.594,88.901 365.000,103.094 C365.667,109.426 366.333,115.761 367.000,122.094 C364.385,135.015 355.577,144.917 355.000,157.094 C356.000,156.427 357.000,155.760 358.000,155.094 C354.562,166.604 349.097,172.951 347.000,186.094 C346.000,186.427 345.000,186.760 344.000,187.094 C343.717,153.209 343.871,142.701 317.000,135.094 C318.846,139.696 318.514,138.283 323.000,140.094 C323.000,141.427 323.000,142.761 323.000,144.094 C315.749,139.590 308.658,138.744 301.000,141.094 C303.283,136.195 304.153,133.562 299.000,134.094 C301.580,128.304 298.961,130.119 302.000,126.094 C300.667,125.427 299.333,124.760 298.000,124.094 C299.333,124.427 300.667,124.760 302.000,125.094 C311.795,115.780 339.908,133.909 343.000,136.094 C343.395,124.039 351.295,110.199 346.000,97.094 C336.835,74.408 307.951,54.788 285.000,69.094 C283.563,63.702 283.395,67.227 281.000,64.094 C282.000,63.760 283.000,63.427 284.000,63.094 C277.038,60.753 265.749,58.007 262.000,55.094 C265.583,53.312 263.184,55.625 265.000,52.094 C259.532,55.765 246.769,58.239 241.000,54.094 C228.683,60.704 220.185,68.537 207.000,73.094 C207.667,75.760 208.333,78.427 209.000,81.094 C210.000,80.760 211.000,80.427 212.000,80.094 C209.162,86.686 210.999,88.666 210.000,95.094 C211.333,95.094 212.667,95.094 214.000,95.094 C211.667,97.427 209.333,99.761 207.000,102.094 C207.333,102.760 207.667,103.427 208.000,104.094 C217.559,104.036 248.611,111.603 250.000,117.094 C253.403,120.031 253.126,121.639 253.000,126.094 C251.000,126.094 249.000,126.094 247.000,126.094 C248.333,126.760 249.667,127.427 251.000,128.094 C251.333,129.427 251.667,130.761 252.000,132.094 C252.000,132.094 269.995,170.495 259.000,172.094 C269.122,178.843 263.881,193.848 260.000,204.094 C262.906,210.390 265.888,215.060 271.000,219.094 C268.667,221.094 266.333,223.094 264.000,225.094 C265.731,231.214 267.580,229.384 270.000,233.094 C269.333,237.093 268.667,241.094 268.000,245.094 C259.312,242.667 255.465,240.937 245.000,244.094 C246.000,243.094 247.000,242.094 248.000,241.094 C239.120,240.102 237.227,241.490 231.000,244.094 C231.000,244.427 231.000,244.760 231.000,245.094 C234.000,244.760 237.000,244.427 240.000,244.094 C239.667,244.760 239.333,245.427 239.000,246.094 C236.892,246.316 235.699,246.293 233.000,248.094 C233.667,248.094 234.333,248.094 235.000,248.094 C237.400,251.886 236.776,249.709 240.000,251.094 C240.357,250.522 270.987,254.223 277.000,256.094 C277.000,256.427 277.000,256.760 277.000,257.094 C267.001,257.427 256.999,257.760 247.000,258.094 C247.667,258.760 248.333,259.427 249.000,260.094 C253.659,260.984 255.793,264.432 263.000,266.094 C262.333,266.427 261.667,266.760 261.000,267.094 C244.877,273.598 227.937,256.050 225.000,257.094 C225.000,257.427 225.000,257.760 225.000,258.094 C226.279,264.150 226.223,264.742 231.000,265.094 C231.000,266.760 231.000,268.427 231.000,270.094 C229.000,271.427 227.000,272.761 225.000,274.094 C226.667,276.760 228.333,279.427 230.000,282.094 C232.489,282.114 239.176,286.147 243.000,282.094 C240.355,282.022 238.669,282.319 236.000,280.094 C235.000,277.427 234.000,274.760 233.000,272.094 C234.000,272.094 235.000,272.094 236.000,272.094 C243.114,282.532 265.587,266.676 277.000,275.094 C277.000,275.427 277.000,275.760 277.000,276.094 C275.667,276.094 274.333,276.094 273.000,276.094 C273.333,277.094 273.667,278.094 274.000,279.094 C275.667,279.094 277.333,279.094 279.000,279.094 C279.000,280.427 279.000,281.761 279.000,283.094 C272.276,289.133 270.298,288.764 271.000,300.094 C270.000,299.760 269.000,299.427 268.000,299.094 C267.000,297.427 266.000,295.760 265.000,294.094 C263.667,295.760 262.333,297.427 261.000,299.094 C261.236,304.030 261.713,305.562 264.000,308.094 C271.879,304.601 267.314,304.743 275.000,303.094 C275.667,297.761 276.333,292.427 277.000,287.094 C277.333,287.094 277.667,287.094 278.000,287.094 C278.333,291.093 278.667,295.094 279.000,299.094 C285.670,300.465 284.526,302.137 288.000,306.094 C288.333,305.760 288.667,305.427 289.000,305.094 C289.333,303.427 289.667,301.760 290.000,300.094 C287.844,298.842 299.768,273.038 301.000,271.094 C295.793,270.783 298.436,273.336 296.000,269.094 C298.806,266.774 298.923,265.324 299.000,260.094 ZM182.000,30.094 C182.667,30.094 183.333,30.094 184.000,30.094 C183.333,30.094 182.667,30.094 182.000,30.094 ZM217.000,93.094 C217.667,93.094 218.333,93.094 219.000,93.094 C218.333,93.094 217.667,93.094 217.000,93.094 ZM215.000,117.094 C210.564,120.581 205.804,122.951 199.000,124.094 C199.000,131.093 199.000,138.094 199.000,145.094 C200.000,144.760 201.000,144.427 202.000,144.094 C205.564,133.876 217.463,123.043 225.000,123.094 C222.776,120.074 218.752,118.456 215.000,117.094 ZM297.000,125.094 C298.000,125.427 299.000,125.760 300.000,126.094 C300.000,126.427 300.000,126.760 300.000,127.094 C297.102,126.562 295.103,127.887 297.000,125.094 ZM220.000,130.094 C216.652,133.142 214.447,133.881 212.000,138.094 C212.000,138.427 212.000,138.760 212.000,139.094 C221.275,141.695 240.765,146.108 248.000,157.094 C248.000,157.427 248.000,157.760 248.000,158.094 C244.334,158.094 240.666,158.094 237.000,158.094 C237.667,157.427 238.333,156.760 239.000,156.094 C240.333,156.094 241.667,156.094 243.000,156.094 C239.667,153.427 236.333,150.760 233.000,148.094 C232.333,148.427 231.667,148.760 231.000,149.094 C229.000,151.760 227.000,154.427 225.000,157.094 C220.334,155.761 215.666,154.427 211.000,153.094 C212.000,154.427 213.000,155.761 214.000,157.094 C218.333,158.094 222.667,159.094 227.000,160.094 C226.667,160.760 226.333,161.427 226.000,162.094 C210.705,161.720 202.988,156.595 193.000,153.094 C179.928,189.686 198.248,206.155 207.000,232.094 C214.240,231.378 229.451,229.236 232.000,223.094 C234.544,219.099 241.423,188.377 243.000,181.094 C247.495,179.929 246.339,181.955 248.000,178.094 C247.333,178.427 246.667,178.760 246.000,179.094 C247.666,174.761 249.334,170.427 251.000,166.094 C250.333,165.760 249.667,165.427 249.000,165.094 C246.334,166.094 243.666,167.094 241.000,168.094 C244.666,164.094 248.334,160.093 252.000,156.094 C252.000,155.760 252.000,155.427 252.000,155.094 C235.534,145.035 244.123,133.163 220.000,130.094 ZM324.000,144.094 C329.627,146.510 330.805,150.341 333.000,156.094 C332.000,155.760 331.000,155.427 330.000,155.094 C328.000,151.427 326.000,147.760 324.000,144.094 ZM303.000,150.094 C307.405,150.772 324.975,155.343 329.000,162.094 C330.000,165.093 331.000,168.094 332.000,171.094 C329.000,171.427 326.000,171.760 323.000,172.094 C324.121,166.375 323.882,164.245 319.000,160.094 C318.667,160.094 318.333,160.094 318.000,160.094 C316.000,162.427 314.000,164.761 312.000,167.094 C309.334,166.094 306.666,165.094 304.000,164.094 C301.428,161.963 301.514,161.529 301.000,157.094 C298.667,157.094 296.333,157.094 294.000,157.094 C294.667,156.760 295.333,156.427 296.000,156.094 C298.333,154.094 300.667,152.094 303.000,150.094 ZM230.000,160.094 C230.667,160.094 231.333,160.094 232.000,160.094 C231.333,160.760 230.667,161.427 230.000,162.094 C230.000,161.427 230.000,160.760 230.000,160.094 ZM291.000,161.094 C291.667,161.760 292.333,162.427 293.000,163.094 C292.333,162.427 291.667,161.760 291.000,161.094 ZM160.000,162.094 C159.667,163.760 159.333,165.427 159.000,167.094 C159.333,167.094 159.667,167.094 160.000,167.094 C160.333,165.427 160.667,163.760 161.000,162.094 C160.667,162.094 160.333,162.094 160.000,162.094 ZM295.000,163.094 C296.000,163.094 297.000,163.094 298.000,163.094 C297.000,163.094 296.000,163.094 295.000,163.094 ZM299.000,163.094 C299.667,163.094 300.333,163.094 301.000,163.094 C300.333,163.094 299.667,163.094 299.000,163.094 ZM164.000,196.094 C164.667,196.760 165.333,197.427 166.000,198.094 C165.333,197.427 164.667,196.760 164.000,196.094 ZM247.000,212.094 C247.000,212.760 247.000,213.427 247.000,214.094 C247.000,213.427 247.000,212.760 247.000,212.094 ZM285.000,212.094 C284.651,227.908 280.775,224.304 292.000,236.094 C291.667,237.094 291.333,238.094 291.000,239.094 C289.679,242.921 291.002,241.174 288.000,243.094 C287.550,243.551 273.990,243.862 272.000,244.094 C271.333,243.760 270.667,243.427 270.000,243.094 C270.000,240.094 270.000,237.093 270.000,234.094 C274.114,231.936 276.849,229.981 279.000,225.094 C276.667,226.760 274.333,228.427 272.000,230.094 C274.058,225.228 277.133,223.978 281.000,221.094 C278.000,220.094 275.000,219.094 272.000,218.094 C272.667,218.094 273.333,218.094 274.000,218.094 C276.886,214.118 278.324,212.590 285.000,212.094 ZM260.000,219.094 C259.667,219.760 259.333,220.427 259.000,221.094 C259.667,220.427 260.333,219.760 261.000,219.094 C260.667,219.094 260.333,219.094 260.000,219.094 ZM274.000,234.094 C274.667,234.427 275.333,234.760 276.000,235.094 C275.333,234.760 274.667,234.427 274.000,234.094 ZM276.000,237.094 C276.000,237.760 276.000,238.427 276.000,239.094 C276.000,238.427 276.000,237.760 276.000,237.094 ZM252.000,248.094 C252.333,248.760 252.667,249.427 253.000,250.094 C252.667,249.427 252.333,248.760 252.000,248.094 ZM305.000,249.094 C305.667,250.760 306.333,252.427 307.000,254.094 C307.667,253.427 308.333,252.760 309.000,252.094 C308.667,251.094 308.333,250.094 308.000,249.094 C307.000,249.094 306.000,249.094 305.000,249.094 ZM291.000,259.094 C291.667,259.094 292.333,259.094 293.000,259.094 C292.000,259.760 291.000,260.427 290.000,261.094 C290.333,260.427 290.667,259.760 291.000,259.094 ZM289.000,261.094 C289.333,261.760 289.667,262.427 290.000,263.094 C289.667,262.427 289.333,261.760 289.000,261.094 ZM242.000,286.094 C242.000,286.760 242.000,287.427 242.000,288.094 C242.000,287.427 242.000,286.760 242.000,286.094 ZM250.000,286.094 C247.160,288.980 244.747,290.740 242.000,291.094 C243.305,294.587 243.353,294.172 243.000,298.094 C244.000,297.427 245.000,296.760 246.000,296.094 C247.333,292.761 248.667,289.427 250.000,286.094 ZM286.000,286.094 C285.780,287.561 286.414,287.097 285.000,289.094 C285.333,288.094 285.667,287.094 286.000,286.094 ZM288.000,287.094 C291.027,289.025 289.619,287.298 291.000,291.094 C290.667,291.094 290.333,291.094 290.000,291.094 C289.333,289.761 288.667,288.427 288.000,287.094 ZM235.000,288.094 C233.334,289.094 231.666,290.094 230.000,291.094 C230.680,291.121 233.688,290.627 232.000,292.094 C233.000,291.760 234.000,291.427 235.000,291.094 C235.000,290.094 235.000,289.094 235.000,288.094 ZM255.000,291.094 C252.667,294.427 250.333,297.761 248.000,301.094 C249.333,301.094 250.667,301.094 252.000,301.094 C253.191,298.596 251.360,300.110 254.000,299.094 C254.333,296.427 254.667,293.760 255.000,291.094 ZM283.000,292.094 C283.667,292.094 284.333,292.094 285.000,292.094 C284.333,292.094 283.667,292.094 283.000,292.094 ZM239.000,297.094 C239.440,301.097 238.008,299.194 241.000,302.094 C241.333,301.094 241.667,300.094 242.000,299.094 C241.667,298.427 241.333,297.760 241.000,297.094 C240.333,297.094 239.667,297.094 239.000,297.094 ZM254.000,300.094 C254.000,300.760 254.000,301.427 254.000,302.094 C254.000,301.427 254.000,300.760 254.000,300.094 ZM144.000,303.094 C142.667,305.760 141.333,308.427 140.000,311.094 C141.666,311.427 143.333,311.760 145.000,312.094 C146.026,307.583 144.451,308.289 148.000,306.094 C148.194,306.653 148.673,307.039 149.000,306.094 C148.667,305.427 148.333,304.760 148.000,304.094 C146.667,303.760 145.333,303.427 144.000,303.094 ZM308.000,309.094 C309.667,310.094 311.333,311.094 313.000,312.094 C311.333,311.094 309.667,310.094 308.000,309.094 ZM273.000,310.094 C273.333,310.760 273.667,311.427 274.000,312.094 C274.333,311.427 274.667,310.760 275.000,310.094 C274.333,310.094 273.667,310.094 273.000,310.094 ZM139.000,312.094 C138.667,312.760 138.333,313.427 138.000,314.094 C138.667,313.427 139.333,312.760 140.000,312.094 C139.667,312.094 139.333,312.094 139.000,312.094 ZM314.000,313.094 C315.000,313.760 316.000,314.427 317.000,315.094 C316.000,314.427 315.000,313.760 314.000,313.094 ZM319.000,317.094 C320.333,318.094 321.667,319.094 323.000,320.094 C321.667,319.094 320.333,318.094 319.000,317.094 ZM135.000,321.094 C135.000,321.760 135.000,322.427 135.000,323.094 C135.000,322.427 135.000,321.760 135.000,321.094 ZM134.000,325.094 C134.000,326.094 134.000,327.094 134.000,328.094 C134.333,327.094 134.667,326.094 135.000,325.094 C134.667,325.094 134.333,325.094 134.000,325.094 ZM256.000,326.094 C257.000,326.427 258.000,326.760 259.000,327.094 C258.000,326.760 257.000,326.427 256.000,326.094 ZM215.000,332.094 C216.666,332.427 218.333,332.760 220.000,333.094 C219.333,333.760 218.667,334.427 218.000,335.094 C217.667,334.427 217.333,333.760 217.000,333.094 C216.333,332.760 215.667,332.427 215.000,332.094 ZM160.000,334.094 C157.000,336.427 154.000,338.761 151.000,341.094 C151.667,342.094 152.333,343.094 153.000,344.094 C157.750,340.804 162.034,339.167 167.000,341.094 C168.333,342.427 169.667,343.761 171.000,345.094 C169.925,340.743 168.230,338.232 165.000,336.094 C163.334,335.427 161.667,334.760 160.000,334.094 ZM337.000,337.094 C337.667,337.094 338.333,337.094 339.000,337.094 C338.333,337.094 337.667,337.094 337.000,337.094 ZM163.000,342.094 C162.667,342.760 162.333,343.427 162.000,344.094 C162.667,343.427 163.333,342.760 164.000,342.094 C163.667,342.094 163.333,342.094 163.000,342.094 ZM153.000,347.094 C152.667,347.427 152.333,347.760 152.000,348.094 C154.333,350.427 156.667,352.761 159.000,355.094 C157.000,352.427 155.000,349.760 153.000,347.094 ZM138.000,348.094 C137.333,348.760 136.667,349.427 136.000,350.094 C136.000,353.093 136.000,356.094 136.000,359.094 C136.667,358.760 137.333,358.427 138.000,358.094 C139.000,355.427 140.000,352.760 141.000,350.094 C140.000,349.427 139.000,348.760 138.000,348.094 ZM321.000,350.094 C322.666,353.760 324.334,357.427 326.000,361.094 C326.214,358.042 325.088,357.912 329.000,356.094 C329.000,357.760 329.000,359.427 329.000,361.094 C330.000,359.761 331.000,358.427 332.000,357.094 C330.641,360.647 331.254,360.793 329.000,362.094 C329.667,362.760 330.333,363.427 331.000,364.094 C334.358,362.599 333.807,362.615 338.000,363.094 C338.000,361.094 338.000,359.094 338.000,357.094 C337.667,356.427 337.333,355.760 337.000,355.094 C331.667,353.427 326.333,351.760 321.000,350.094 ZM166.000,354.094 C165.667,354.760 165.333,355.427 165.000,356.094 C165.667,355.427 166.333,354.760 167.000,354.094 C166.667,354.094 166.333,354.094 166.000,354.094 ZM158.000,356.094 C158.667,358.094 159.333,360.094 160.000,362.094 C160.333,362.094 160.667,362.094 161.000,362.094 C161.000,360.427 161.000,358.760 161.000,357.094 C160.000,356.760 159.000,356.427 158.000,356.094 ZM340.000,357.094 C339.298,366.984 339.530,384.860 334.000,396.094 C334.272,384.719 336.641,379.492 337.000,373.094 C336.000,373.094 335.000,373.094 334.000,373.094 C333.617,376.679 334.525,374.338 331.000,375.094 C331.667,375.427 332.333,375.760 333.000,376.094 C333.667,376.760 334.333,377.427 335.000,378.094 C334.333,378.760 333.667,379.427 333.000,380.094 C329.532,380.915 331.735,378.933 330.000,382.094 C328.667,380.761 327.333,379.427 326.000,378.094 C326.000,378.427 326.000,378.760 326.000,379.094 C328.008,380.964 328.263,382.862 329.000,386.094 C325.831,383.330 328.090,382.356 325.000,384.094 C319.621,383.441 318.070,384.803 315.000,389.094 C313.947,404.028 306.104,423.080 308.000,432.094 C314.168,434.786 319.459,440.949 325.000,435.094 C325.333,432.427 325.667,429.760 326.000,427.094 C326.333,427.094 326.667,427.094 327.000,427.094 C327.000,430.093 327.000,433.094 327.000,436.094 C327.667,435.760 328.333,435.427 329.000,435.094 C330.555,425.269 335.657,424.911 338.000,419.094 C339.333,420.427 340.667,421.761 342.000,423.094 C341.333,421.427 340.667,419.760 340.000,418.094 C342.000,417.427 344.000,416.760 346.000,416.094 C343.594,405.933 359.685,384.700 352.000,366.094 C348.000,363.094 344.000,360.093 340.000,357.094 ZM167.000,359.094 C169.000,360.760 171.000,362.427 173.000,364.094 C173.000,364.427 173.000,364.760 173.000,365.094 C171.000,364.760 169.000,364.427 167.000,364.094 C167.000,362.427 167.000,360.760 167.000,359.094 ZM188.000,359.094 C188.312,361.775 187.617,361.487 190.000,364.094 C189.333,362.427 188.667,360.760 188.000,359.094 ZM174.000,362.094 C174.667,362.094 175.333,362.094 176.000,362.094 C174.200,364.136 175.985,362.800 173.000,364.094 C173.333,363.427 173.667,362.760 174.000,362.094 ZM191.000,362.094 C191.000,363.094 191.000,364.094 191.000,365.094 C192.667,364.427 194.333,363.760 196.000,363.094 C196.000,362.760 196.000,362.427 196.000,362.094 C194.333,362.094 192.667,362.094 191.000,362.094 ZM177.000,363.094 C177.000,364.760 177.000,366.427 177.000,368.094 C176.667,368.094 176.333,368.094 176.000,368.094 C176.333,366.427 176.667,364.760 177.000,363.094 ZM202.000,363.094 C202.000,363.760 202.000,364.427 202.000,365.094 C202.000,364.427 202.000,363.760 202.000,363.094 ZM343.000,364.094 C343.333,365.094 343.667,366.094 344.000,367.094 C343.667,367.094 343.333,367.094 343.000,367.094 C343.000,366.094 343.000,365.094 343.000,364.094 ZM332.000,365.094 C332.667,365.427 333.333,365.760 334.000,366.094 C333.333,365.760 332.667,365.427 332.000,365.094 ZM154.000,368.094 C155.259,371.116 153.982,369.290 156.000,371.094 C155.667,370.094 155.333,369.094 155.000,368.094 C154.667,368.094 154.333,368.094 154.000,368.094 ZM177.000,368.094 C177.333,368.760 177.667,369.427 178.000,370.094 C177.667,369.427 177.333,368.760 177.000,368.094 ZM336.000,369.094 C336.000,370.094 336.000,371.094 336.000,372.094 C336.333,371.094 336.667,370.094 337.000,369.094 C336.667,369.094 336.333,369.094 336.000,369.094 ZM175.000,370.094 C175.667,370.094 176.333,370.094 177.000,370.094 C176.333,370.094 175.667,370.094 175.000,370.094 ZM210.000,370.094 C210.333,370.760 210.667,371.427 211.000,372.094 C210.667,371.427 210.333,370.760 210.000,370.094 ZM343.000,370.094 C343.333,370.760 343.667,371.427 344.000,372.094 C343.667,371.427 343.333,370.760 343.000,370.094 ZM322.000,371.094 C323.000,372.427 324.000,373.761 325.000,375.094 C323.654,371.693 324.393,373.024 322.000,371.094 ZM209.000,372.094 C210.177,374.915 209.748,373.097 208.000,375.094 C208.333,374.094 208.667,373.094 209.000,372.094 ZM179.000,373.094 C179.667,373.760 180.333,374.427 181.000,375.094 C180.333,375.427 179.667,375.760 179.000,376.094 C179.000,375.094 179.000,374.094 179.000,373.094 ZM154.000,374.094 C156.057,380.859 153.747,395.207 160.000,401.094 C160.667,400.760 161.333,400.427 162.000,400.094 C162.000,399.760 162.000,399.427 162.000,399.094 C157.909,387.597 161.488,381.103 154.000,374.094 ZM173.000,374.094 C174.000,374.760 175.000,375.427 176.000,376.094 C175.000,376.094 174.000,376.094 173.000,376.094 C173.000,375.427 173.000,374.760 173.000,374.094 ZM342.000,375.094 C343.290,378.365 343.874,376.206 342.000,379.094 C342.000,377.761 342.000,376.427 342.000,375.094 ZM176.000,376.094 C176.667,376.760 177.333,377.427 178.000,378.094 C177.333,377.427 176.667,376.760 176.000,376.094 ZM180.000,378.094 C180.667,378.760 181.333,379.427 182.000,380.094 C181.333,380.760 180.667,381.427 180.000,382.094 C180.000,380.761 180.000,379.427 180.000,378.094 ZM187.000,378.094 C187.333,379.094 187.667,380.094 188.000,381.094 C187.667,381.094 187.333,381.094 187.000,381.094 C187.000,380.094 187.000,379.094 187.000,378.094 ZM212.000,378.094 C212.333,379.094 212.667,380.094 213.000,381.094 C212.333,380.760 211.667,380.427 211.000,380.094 C211.333,379.427 211.667,378.760 212.000,378.094 ZM321.000,378.094 C320.667,379.094 320.333,380.094 320.000,381.094 C322.042,379.293 320.707,381.079 322.000,378.094 C321.667,378.094 321.333,378.094 321.000,378.094 ZM360.000,380.094 C357.607,399.146 352.249,420.611 350.000,432.094 C351.333,432.427 352.667,432.760 354.000,433.094 C355.333,424.095 356.667,415.093 358.000,406.094 C359.927,409.057 358.254,406.111 361.000,408.094 C360.000,406.761 359.000,405.427 358.000,404.094 C362.460,402.716 365.709,388.227 360.000,380.094 ZM188.000,382.094 C188.333,383.094 188.667,384.094 189.000,385.094 C188.667,385.094 188.333,385.094 188.000,385.094 C188.000,384.094 188.000,383.094 188.000,382.094 ZM213.000,382.094 C213.000,383.760 213.000,385.427 213.000,387.094 C213.000,385.427 213.000,383.760 213.000,382.094 ZM360.000,383.094 C360.333,383.760 360.667,384.427 361.000,385.094 C360.667,384.427 360.333,383.760 360.000,383.094 ZM214.000,387.094 C214.000,389.094 214.000,391.094 214.000,393.094 C214.000,391.094 214.000,389.094 214.000,387.094 ZM166.000,388.094 C166.000,388.760 166.000,389.427 166.000,390.094 C166.000,389.427 166.000,388.760 166.000,388.094 ZM339.000,395.094 C339.333,395.760 339.667,396.427 340.000,397.094 C339.667,396.427 339.333,395.760 339.000,395.094 ZM333.000,397.094 C333.333,398.094 333.667,399.094 334.000,400.094 C333.667,400.094 333.333,400.094 333.000,400.094 C333.000,399.094 333.000,398.094 333.000,397.094 ZM283.000,399.094 C283.667,400.094 284.333,401.094 285.000,402.094 C284.333,401.094 283.667,400.094 283.000,399.094 ZM309.000,400.094 C309.000,400.760 309.000,401.427 309.000,402.094 C309.000,401.427 309.000,400.760 309.000,400.094 ZM338.000,400.094 C338.333,400.760 338.667,401.427 339.000,402.094 C338.667,401.427 338.333,400.760 338.000,400.094 ZM191.000,405.094 C191.667,408.427 192.333,411.761 193.000,415.094 C190.725,412.859 190.821,409.927 191.000,405.094 ZM342.000,405.094 C342.667,405.094 343.333,405.094 344.000,405.094 C343.333,405.094 342.667,405.094 342.000,405.094 ZM214.000,409.094 C214.000,410.094 214.000,411.094 214.000,412.094 C214.333,411.094 214.667,410.094 215.000,409.094 C214.667,409.094 214.333,409.094 214.000,409.094 ZM358.000,409.094 C358.000,409.760 358.000,410.427 358.000,411.094 C358.977,409.349 358.912,410.874 358.000,409.094 ZM357.000,414.094 C357.000,414.760 357.000,415.427 357.000,416.094 C357.000,415.427 357.000,414.760 357.000,414.094 ZM342.000,418.094 C343.000,418.760 344.000,419.427 345.000,420.094 C343.200,418.052 344.985,419.387 342.000,418.094 ZM357.000,420.094 C356.667,421.094 356.333,422.094 356.000,423.094 C356.667,422.094 357.333,421.094 358.000,420.094 C357.667,420.094 357.333,420.094 357.000,420.094 ZM343.000,423.094 C342.667,424.427 342.333,425.761 342.000,427.094 C342.333,427.094 342.667,427.094 343.000,427.094 C343.333,426.094 343.667,425.094 344.000,424.094 C343.667,423.760 343.333,423.427 343.000,423.094 ZM327.000,425.094 C327.333,425.760 327.667,426.427 328.000,427.094 C327.667,426.427 327.333,425.760 327.000,425.094 ZM331.000,425.094 C331.333,425.760 331.667,426.427 332.000,427.094 C331.667,426.427 331.333,425.760 331.000,425.094 ZM335.000,429.094 C335.333,430.094 335.667,431.094 336.000,432.094 C336.667,431.094 337.333,430.094 338.000,429.094 C337.000,429.094 336.000,429.094 335.000,429.094 ZM350.000,433.094 C349.333,435.760 348.667,438.427 348.000,441.094 C348.333,441.094 348.667,441.094 349.000,441.094 C350.000,440.760 351.000,440.427 352.000,440.094 C352.333,438.427 352.667,436.760 353.000,435.094 C352.000,434.427 351.000,433.760 350.000,433.094 ZM351.000,435.094 C351.333,435.760 351.667,436.427 352.000,437.094 C351.333,437.094 350.667,437.094 350.000,437.094 C350.333,436.427 350.667,435.760 351.000,435.094 ZM325.000,443.094 C324.000,447.427 323.000,451.761 322.000,456.094 C324.000,456.094 326.000,456.094 328.000,456.094 C328.000,454.761 328.000,453.427 328.000,452.094 C326.054,448.829 326.012,445.912 325.000,443.094 ZM336.000,446.094 C335.000,447.427 334.000,448.761 333.000,450.094 C333.333,451.094 333.667,452.094 334.000,453.094 C334.667,452.760 335.333,452.427 336.000,452.094 C336.602,447.319 337.951,448.302 336.000,446.094 ZM375.000,510.094 C378.666,510.760 382.334,511.427 386.000,512.094 C385.667,514.094 385.333,516.094 385.000,518.094 C384.333,519.427 383.667,520.761 383.000,522.094 C380.334,522.094 377.666,522.094 375.000,522.094 C375.000,518.094 375.000,514.093 375.000,510.094 Z" id="path-1" class="cls-2" fill-rule="evenodd"/>
</svg>
