<svg xmlns="http://www.w3.org/2000/svg" xmlns:xlink="http://www.w3.org/1999/xlink" preserveAspectRatio="xMidYMid" width="1920" height="1080" viewBox="0 0 1920 1080">
  <defs>
    <style>

      .cls-3 {
        fill: #fff9eb;
      }

      .cls-4 {
        fill: #ece6d9;
      }

      .cls-5 {
        fill: #f3ede0;
      }

      .cls-6 {
        fill: #f7f1e3;
      }
    </style>
  </defs>
  <g id="clear-bg">
    <rect id="rect-1" class="cls-3" width="1920" height="1082"/>
    <path d="M1457.000,739.000 C1457.000,739.000 1920.000,365.000 1920.000,365.000 C1920.000,365.000 1920.000,1085.000 1920.000,1085.000 C1920.000,1085.000 1667.000,1085.000 1667.000,1085.000 C1667.000,1085.000 1457.000,739.000 1457.000,739.000 Z" id="path-1" class="cls-4" fill-rule="evenodd"/>
    <path d="M528.000,1.000 C528.000,1.000 1920.000,1.000 1920.000,1.000 C1920.000,1.000 1920.000,366.000 1920.000,366.000 C1920.000,366.000 1456.500,739.500 1456.500,739.500 C1456.500,739.500 528.000,1.000 528.000,1.000 Z" id="path-2" class="cls-5" fill-rule="evenodd"/>
    <path d="M0.000,974.000 C0.000,974.000 1457.000,739.000 1457.000,739.000 C1457.000,739.000 1664.000,1080.000 1664.000,1080.000 C1664.000,1080.000 0.000,1080.000 0.000,1080.000 C0.000,1080.000 0.000,974.000 0.000,974.000 Z" id="path-3" class="cls-6" fill-rule="evenodd"/>
  </g>
</svg>
