<svg xmlns="http://www.w3.org/2000/svg" xmlns:xlink="http://www.w3.org/1999/xlink" preserveAspectRatio="xMidYMid" width="1920" height="1080" viewBox="0 0 1920 1080">
  <defs>
    <style>

      .cls-3 {
        fill: #4cffe9;
      }

      .cls-4 {
        fill: #00c8b0;
      }

      .cls-5 {
        fill: #05d4ba;
      }

      .cls-6 {
        fill: #03dec3;
      }

      .cls-7 {
        fill: #00eed1;
      }
    </style>
  </defs>
  <g id="dark_bgsvg">
    <rect id="rect-1" class="cls-3" width="1920" height="1082"/>
    <path d="M463.000,343.000 C463.000,343.000 0.000,717.000 0.000,717.000 C0.000,717.000 0.000,-3.000 0.000,-3.000 C0.000,-3.000 253.000,-3.000 253.000,-3.000 C253.000,-3.000 463.000,343.000 463.000,343.000 Z" id="path-1" class="cls-4" fill-rule="evenodd"/>
    <path d="M284.000,1080.000 C284.000,1080.000 0.000,1081.000 0.000,1081.000 C0.000,1081.000 0.000,716.000 0.000,716.000 C0.000,716.000 463.000,342.000 463.000,342.000 C463.000,342.000 284.000,1080.000 284.000,1080.000 Z" id="path-2" class="cls-5" fill-rule="evenodd"/>
    <path d="M1919.000,1080.500 C1919.000,1080.500 282.000,1082.500 282.000,1082.500 C282.000,1082.500 462.000,342.000 462.000,342.000 C462.000,342.000 1919.000,1080.500 1919.000,1080.500 Z" id="path-3" class="cls-6" fill-rule="evenodd"/>
    <path d="M1920.000,106.500 C1920.000,106.500 462.000,342.000 462.000,342.000 C462.000,342.000 256.000,0.500 256.000,0.500 C256.000,0.500 1920.000,0.500 1920.000,0.500 C1920.000,0.500 1920.000,106.500 1920.000,106.500 Z" id="path-4" class="cls-7" fill-rule="evenodd"/>
  </g>
</svg>
