<svg viewBox="0 0 100 100" xmlns="http://www.w3.org/2000/svg" style="display: none;"><defs><linearGradient id="g_plus-SVGID_1_" gradientUnits="userSpaceOnUse" x1="23.5156" y1="77.4351" x2="23.5156" y2="7.4355"> <stop offset="0" style="stop-color:#F2F2F2"/> <stop offset="0.2413" style="stop-color:#F6F6F6"/> <stop offset="1" style="stop-color:#FFFFFF"/> </linearGradient></defs><symbol viewBox="20 -40 293.33331 395.99997" id="shape-fb"><title>fb</title><path id="fb-path3" d="m315.23-40h-334.46c-16.956 0-30.769 13.812-30.769 30.768v334.46c0 16.957 13.813 30.769 30.769 30.769h170.06 78.594 85.806c16.96 0 30.77-13.81 30.77-30.77v-334.46c0-16.958-13.81-30.77-30.77-30.77zm-144.23 376v-146h-49v-36h49v-52.196c0-20.625 5.889-37.43 17.189-48.599 10.857-10.731 26.823-16.403 45.866-16.403 13.383 0 24.944 0.657 33.944 1.3v31.688l-20.463 0.009c-38.12 0-38.537 28.317-38.537 37.623v46.578h55.24l-4.737 36h-50.502v146h-38zm155-10.77c0 5.93-4.84 10.77-10.77 10.77h-86.231v-126h48.089l9.896-76h-57.985v-26.578c0-6.902 1.127-11.202 3.088-13.532 2.286-2.715 7.726-4.091 15.561-4.091l40.35-0.016v-69.504l-8.888-1.153c-4.536-0.603-22.661-2.322-45.201-2.322-24.418 0-45.051 7.669-59.731 22.179-15.19 15.01-23.18 36.734-23.18 62.819v32.196h-49v76h49v126h-170.23c-5.928 0-10.769-4.841-10.769-10.769v-334.46c0-5.928 4.841-10.768 10.769-10.768l334.46-0.002c5.927 0 10.769 4.84 10.769 10.768v334.46z"/></symbol><symbol viewBox="0 0 1618.2858 761.14287" id="shape-filler"><title>filler</title> <g id="filler-layer1" transform="translate(207.71 -178.93)" stroke="#000" fill="none"> <rect id="filler-rect4136" stroke-dashoffset="1.1" height="757.14" width="1614.3" y="180.93" x="-205.71" stroke-width="4"/> <path id="filler-path5610" d="m-191.43 920.93 1585.7-722.85" stroke-width="3"/> <path id="filler-path5612" d="m1394.3 920.93-1585.7-725.71" stroke-width="3"/> <rect id="filler-rect5614" stroke-dashoffset="1.1" height="104.13" width="223.23" y="505.44" x="489.81" stroke-width="2"/> </g> </symbol><symbol viewBox="0 0 79.37 79.37" id="shape-g_plus"><title>g_plus</title> <path fill="#DD4B38" d="M70.91,1.935h-62c-3.866,0-7.5,1.5-7.5,6.5v64.643c0,3.866,3.634,4.857,7.5,4.857h62
	c3.866,0,6.5-0.991,6.5-4.857V8.435C77.41,3.435,74.776,1.935,70.91,1.935z"/> <polygon id="g_plus-_x2B__3_" fill="#FFFFFF" points="57.91,7.435 63.91,7.435 63.91,21.435 77.96,21.435 77.96,27.312 63.91,27.312 
	63.91,41.435 57.91,41.435 57.91,27.312 43.91,27.312 43.91,21.435 57.91,21.435 "/>  <path fill="url(#g_plus-SVGID_1_)" d="M33.71,55.495l-3.979-3.096c-1.212-0.999-2.867-2.328-2.867-4.763c0-2.441,1.655-3.996,3.09-5.434
	c4.637-3.65,8.957-7.535,8.957-15.732c0-7.483-4.043-11.686-6.753-14.035c0.909,0,6.765,0,6.765,0l6.198-5H21.787
	C15.998,7.542,9.094,8.412,2.801,13.621c-0.295,0.254-0.614,0.549-0.891,0.814v27c3.026,2.516,7.139,4.425,12.148,4.425
	c1.106,0,2.316-0.114,3.533-0.223c-0.551,1.331-1.104,2.44-1.104,4.324c0,3.432,1.764,5.533,3.312,7.531
	C15.58,57.778,6.91,57.06,1.91,61.06v6.375c2.278-3.097,5.918-4.481,7.513-5.064c4.636-1.553,10.599-1.775,11.597-1.775
	c1.098,0,1.65,0,2.53,0.114c8.395,5.985,14.409,9.064,14.472,14.726c0.012,1.097-0.299,1.438-0.463,2h6.463
	c0.666-1.556,0.889-3.396,0.889-5.444C44.91,64.344,38.564,59.596,33.71,55.495z M19.623,41.435
	c-9.495,0-13.393-10.977-13.393-18.396c0-2.887,0.289-5.873,2.166-8.201c1.77-2.216,4.857-3.656,7.73-3.656
	c9.158,0,13.783,12.408,13.783,20.387c0,1.598-0.812,4.722-2.884,7.095C25.21,40.733,22.381,41.435,19.623,41.435z"/> </symbol><symbol id="shape-linkedin"><title>linkedin</title><path d="M0 793.088v-585.6q0 -72.712 51.484 -124.196t124.196 -51.484h585.6q72.712 0 124.196 51.484t51.484 124.196v585.6q0 72.712 -51.484 124.196t-124.196 51.484h-585.6q-72.712 0 -124.196 -51.484t-51.484 -124.196zm156.16 0q0 7.808 5.856 13.664t13.664 5.856h117.12q7.808 0 13.664 -5.612t5.856 -13.908v-390.4q0 -7.808 -5.856 -13.664t-13.664 -5.856h-117.12q-7.808 0 -13.664 5.856t-5.856 13.664v390.4zm0 -529.48q0 31.232 21.96 53.436t53.192 22.204q32.696 0 53.68 -22.448 21.96 -21.96 21.96 -53.192t-22.204 -53.436 -53.436 -22.204 -53.192 22.204 -21.96 53.436zm195.2 529.48q0 7.808 9.272 13.664t18.544 5.856h111.264q6.832 0 11.956 -5.856t5.124 -13.664v-212.768q0 -85.4 69.784 -85.4 28.792 0 38.064 12.688t9.272 45.872v239.608q0 7.808 7.32 13.664t16.104 5.856h113.216q7.808 0 13.664 -5.612t5.856 -13.908v-264.984q0 -76.616 -44.164 -117.364t-124.196 -40.748q-55.144 0 -96.136 27.816 -8.296 4.88 -8.784 7.32 0 -21.96 -20.984 -21.96h-107.36q-9.76 0 -18.788 4.88t-9.028 12.2v392.84z" fill="#000000"/></symbol><symbol viewBox="0 0 449.40794 452.35392" id="shape-next"><title>next</title> <g id="next-layer1" transform="translate(-128.23 -243.33)"> <path id="next-path4138" d="m128.57 243.79s448.57 187.96 448.57 232.14c0 40.32-447.14 219.29-447.14 219.29s252.56-220.26-1.4286-451.43z" fill-rule="evenodd" stroke="#000" stroke-width="1px" fill="#6db7ba" fill-opacity="0.4"/> <g fill-opacity="0"> <path id="next-path4140" d="m172.11 656.47c83.843-88.574 108.16-193.1 66.359-285.28-13.299-29.33-33.262-57.521-61.678-87.102-14.184-14.765-24.351-26.336-22.594-25.714 8.6318 3.0542 415.38 218.09 415.38 219.6 0 1.8992-414.32 202.96-418.24 202.96-1.312 0 8.0358-11.009 20.773-24.465z"/> <path id="next-path4142" d="m172.11 656.47c83.843-88.574 108.16-193.1 66.359-285.28-13.299-29.33-33.262-57.521-61.678-87.102-14.184-14.765-24.351-26.336-22.594-25.714 8.6318 3.0542 415.38 218.09 415.38 219.6 0 1.8992-414.32 202.96-418.24 202.96-1.312 0 8.0358-11.009 20.773-24.465z"/> <path id="next-path4144" d="m172.11 656.47c83.843-88.574 108.16-193.1 66.359-285.28-13.299-29.33-33.262-57.521-61.678-87.102-14.184-14.765-24.351-26.336-22.594-25.714 8.6318 3.0542 415.38 218.09 415.38 219.6 0 1.8992-414.32 202.96-418.24 202.96-1.312 0 8.0358-11.009 20.773-24.465z"/> <path id="next-path4146" d="m172.11 656.47c83.843-88.574 108.16-193.1 66.359-285.28-13.299-29.33-33.262-57.521-61.678-87.102-14.184-14.765-24.351-26.336-22.594-25.714 8.6318 3.0542 415.38 218.09 415.38 219.6 0 1.8992-414.32 202.96-418.24 202.96-1.312 0 8.0358-11.009 20.773-24.465z"/> <path id="next-path4148" d="m172.11 656.47c83.843-88.574 108.16-193.1 66.359-285.28-13.299-29.33-33.262-57.521-61.678-87.102-14.184-14.765-24.351-26.336-22.594-25.714 8.6318 3.0542 415.38 218.09 415.38 219.6 0 1.8992-414.32 202.96-418.24 202.96-1.312 0 8.0358-11.009 20.773-24.465z"/> <path id="next-path4150" d="m172.11 656.47c83.843-88.574 108.16-193.1 66.359-285.28-13.299-29.33-33.262-57.521-61.678-87.102-14.184-14.765-24.351-26.336-22.594-25.714 8.6318 3.0542 415.38 218.09 415.38 219.6 0 1.8992-414.32 202.96-418.24 202.96-1.312 0 8.0358-11.009 20.773-24.465z"/> <path id="next-path4152" d="m172.11 656.47c83.843-88.574 108.16-193.1 66.359-285.28-13.299-29.33-33.262-57.521-61.678-87.102-14.184-14.765-24.351-26.336-22.594-25.714 8.6318 3.0542 415.38 218.09 415.38 219.6 0 1.8992-414.32 202.96-418.24 202.96-1.312 0 8.0358-11.009 20.773-24.465z"/> </g> </g> </symbol><symbol viewBox="0 0 449.40794 452.35392" id="shape-prev"><title>prev</title> <g id="prev-layer1" transform="translate(-128.23 -243.33)"> <path id="prev-path4138" d="m577.31 243.79s-448.57 187.96-448.57 232.14c0 40.32 447.14 219.29 447.14 219.29s-252.56-220.26 1.4286-451.43z" fill-rule="evenodd" stroke="#000" stroke-width="1px" fill="#6db7ba" fill-opacity="0.4"/> <g fill-opacity="0"> <path id="prev-path4140" d="m172.11 656.47c83.843-88.574 108.16-193.1 66.359-285.28-13.299-29.33-33.262-57.521-61.678-87.102-14.184-14.765-24.351-26.336-22.594-25.714 8.6318 3.0542 415.38 218.09 415.38 219.6 0 1.8992-414.32 202.96-418.24 202.96-1.312 0 8.0358-11.009 20.773-24.465z"/> <path id="prev-path4142" d="m172.11 656.47c83.843-88.574 108.16-193.1 66.359-285.28-13.299-29.33-33.262-57.521-61.678-87.102-14.184-14.765-24.351-26.336-22.594-25.714 8.6318 3.0542 415.38 218.09 415.38 219.6 0 1.8992-414.32 202.96-418.24 202.96-1.312 0 8.0358-11.009 20.773-24.465z"/> <path id="prev-path4144" d="m172.11 656.47c83.843-88.574 108.16-193.1 66.359-285.28-13.299-29.33-33.262-57.521-61.678-87.102-14.184-14.765-24.351-26.336-22.594-25.714 8.6318 3.0542 415.38 218.09 415.38 219.6 0 1.8992-414.32 202.96-418.24 202.96-1.312 0 8.0358-11.009 20.773-24.465z"/> <path id="prev-path4146" d="m172.11 656.47c83.843-88.574 108.16-193.1 66.359-285.28-13.299-29.33-33.262-57.521-61.678-87.102-14.184-14.765-24.351-26.336-22.594-25.714 8.6318 3.0542 415.38 218.09 415.38 219.6 0 1.8992-414.32 202.96-418.24 202.96-1.312 0 8.0358-11.009 20.773-24.465z"/> <path id="prev-path4148" d="m172.11 656.47c83.843-88.574 108.16-193.1 66.359-285.28-13.299-29.33-33.262-57.521-61.678-87.102-14.184-14.765-24.351-26.336-22.594-25.714 8.6318 3.0542 415.38 218.09 415.38 219.6 0 1.8992-414.32 202.96-418.24 202.96-1.312 0 8.0358-11.009 20.773-24.465z"/> <path id="prev-path4150" d="m172.11 656.47c83.843-88.574 108.16-193.1 66.359-285.28-13.299-29.33-33.262-57.521-61.678-87.102-14.184-14.765-24.351-26.336-22.594-25.714 8.6318 3.0542 415.38 218.09 415.38 219.6 0 1.8992-414.32 202.96-418.24 202.96-1.312 0 8.0358-11.009 20.773-24.465z"/> <path id="prev-path4152" d="m172.11 656.47c83.843-88.574 108.16-193.1 66.359-285.28-13.299-29.33-33.262-57.521-61.678-87.102-14.184-14.765-24.351-26.336-22.594-25.714 8.6318 3.0542 415.38 218.09 415.38 219.6 0 1.8992-414.32 202.96-418.24 202.96-1.312 0 8.0358-11.009 20.773-24.465z"/> </g> </g> </symbol><symbol viewBox="5.0 -10.0 100.0 135.0" id="shape-twitter"><title>twitter</title> <path d="M72.955,17.969l-22.41,22.41c5.637,11.592,3.65,25.958-5.978,35.585c-9.45,9.451-23.469,11.543-34.946,6.285  c17.658,17.15,45.87,17.003,63.333-0.461C90.579,64.165,90.579,35.592,72.955,17.969z"/> <path d="M58.281,47.966c-12.855,3.768-26.293-3.047-31.006-15.339c-7.596,6.311-11.149,16.751-8.194,26.831  c3.966,13.531,18.151,21.284,31.682,17.317c13.53-3.967,21.284-18.15,17.317-31.682c-0.197-0.676-0.428-1.333-0.675-1.979  C64.803,45.275,61.731,46.954,58.281,47.966z"/> <circle cx="59.292" cy="32.235" r="19.743"/> <polyline points="63.206,17.134 85.582,6.98 69.975,26.159 "/> <polyline points="67.625,21.553 90,11.399 74.394,30.579 "/></symbol><symbol id="shape-wordpress"><title>wordpress</title><path d="M501.984 0c-195.884 -.341 -380.255 115.812 -464.869 299.669l237.919 .566l0 26.02c-73.261 -8.816 -66.81 29.228 -56.439 69.607l156.183 391.429 114.795 -269.092 -52.699 -126.108c-19.142 -33.777 -19.546 -71.25 -97.858 -67.721l1.1 -23.978 348.943 .849l0 26.869c-40.865 2.397 -90.057 -10.274 -63.981 73.409l141.13 370.72 77.149 -216.424c25.263 -90.724 1.487 -177.91 -28.534 -263.405 -16.697 -57.355 -8.91 -105.254 65.93 -124.255 -114.235 -116.605 -249.025 -167.929 -378.765 -168.155zm474.58 342.25l-226.229 589.689c62.476 -54.11 126.535 -73.806 204.922 -223.526 52.155 -124.532 46.786 -239.897 21.307 -366.164zm-963.395 9.553c-22.081 174.085 -20.061 225.073 34.599 367.233 71.25 136.154 126.502 164.84 204.922 218.246l-239.522 -585.479zm497.646 220.886l-167.652 404.502c117.681 33.589 222.978 29.385 319.372 -7.982l-151.72 -396.521z" fill="#000000"/></symbol></svg>