<?xml version="1.0" encoding="UTF-8" standalone="no"?>
<svg
   xmlns:dc="http://purl.org/dc/elements/1.1/"
   xmlns:cc="http://creativecommons.org/ns#"
   xmlns:rdf="http://www.w3.org/1999/02/22-rdf-syntax-ns#"
   xmlns:svg="http://www.w3.org/2000/svg"
   xmlns="http://www.w3.org/2000/svg"
   xmlns:xlink="http://www.w3.org/1999/xlink"
   xmlns:sodipodi="http://sodipodi.sourceforge.net/DTD/sodipodi-0.dtd"
   xmlns:inkscape="http://www.inkscape.org/namespaces/inkscape"
   id="Layer_2"
   enable-background="new 0 0 514 514"
   xml:space="preserve"
   height="543.57"
   viewBox="0 0 1100.6 543.57397"
   width="1100.6"
   version="1.1"
   y="0px"
   x="0px"
   inkscape:version="0.91 r13725"
   sodipodi:docname="ai-banner.svg"><metadata
     id="metadata22"><rdf:RDF><cc:Work
         rdf:about=""><dc:format>image/svg+xml</dc:format><dc:type
           rdf:resource="http://purl.org/dc/dcmitype/StillImage" /></cc:Work></rdf:RDF></metadata><sodipodi:namedview
     pagecolor="#ffffff"
     bordercolor="#666666"
     borderopacity="1"
     objecttolerance="10"
     gridtolerance="10"
     guidetolerance="10"
     inkscape:pageopacity="0"
     inkscape:pageshadow="2"
     inkscape:window-width="1920"
     inkscape:window-height="1031"
     id="namedview20"
     showgrid="false"
     inkscape:zoom="0.5"
     inkscape:cx="687.2866"
     inkscape:cy="-77.792341"
     inkscape:window-x="1440"
     inkscape:window-y="0"
     inkscape:window-maximized="1"
     inkscape:current-layer="g4" /><defs
     id="defs19"><style
       id="style4326">
      .cls-3 {
        fill: #104b4b;
      }
      .cls-4 {
        fill: #081b1a;
      }
      .cls-6 {
        fill: #052626;
      }
      .cls-8 {
        fill: #0a3535;
      }
      .cls-10 {
        fill: #0b7b7a;
      }
      .cls-11 {
        fill: #0b7473;
      }
      .cls-13 {
        fill: #0b3f3f;
      }
    </style><linearGradient
       inkscape:collect="always"
       xlink:href="#SVGID_1_"
       id="linearGradient4190"
       gradientUnits="userSpaceOnUse"
       x1="494.16"
       y1="5.7607"
       x2="24.483"
       y2="475.43" /></defs><linearGradient
     id="SVGID_1_"
     y2="475.43"
     gradientUnits="userSpaceOnUse"
     x2="24.483"
     y1="5.7607"
     x1="494.16"><stop
       id="stop4"
       stop-color="#FFAA2A"
       offset="0" /><stop
       id="stop6"
       stop-color="#FFC06C"
       offset="1" /></linearGradient><linearGradient
     id="SVGID_2_"
     y2="439"
     gradientUnits="userSpaceOnUse"
     x2="257.32999"
     gradientTransform="translate(23.958,-568.45)"
     y1="44.333"
     x1="257.32999"
     xlink:href="#SVGID_1_"><stop
       id="stop11"
       stop-color="#251200"
       offset="0" /><stop
       id="stop13"
       offset="1" /></linearGradient><g
     id="g4150"><g
       id="g4366"><g
         transform="translate(401.27,39.109)"
         id="g4"
         fill-rule="evenodd"><path
           d="m-401.27-39.109h1100.6v465.56l-552.43 77.507-547.71-77.585z"
           id="path4246"
           fill="#ffb345" /><path
           d="m 329.88,46.429 182.67,406.26 -363.72,51.77 -148.76,-21.12 -35.318,-78.62 C 126.79279,379.51447 215.713,406.96269 278.30425,348.20144 340.8955,289.44019 309.15729,162.4696 329.882,46.429 Z"
           id="path4262"
           inkscape:connector-curvature="0"
           style="fill:#d47d00"
           sodipodi:nodetypes="cccccscc" /></g></g><g
       transform="translate(331.47982,-118.59467)"
       id="g4400"><g
         transform="matrix(0.9065,0,0,0.9065,-37.453826,677.02066)"
         id="g4405"><g
           transform="matrix(0.79578,0,0,0.79578,76.448,-518.85)"
           id="g4397"><path
             style="fill:url(#linearGradient4190)"
             d="m 17.409,8.2559996 479.23999,0 0,469.2600104 -479.23999,0 z"
             id="rect8"
             inkscape:connector-curvature="0" /></g><path
           d="m 216.19,-321.3 42.48,0 -21.24,-82.371 -21.24,82.371 z m -138.57,-202.15 0,396 407.33,0 0,-396 -407.33,0 z m 204.36,292.46 -15.542,-53.532 -57.504,0 -15.542,53.532 -39.372,0 55.432,-189.26 0,-20.722 52.842,0 63.202,209.98 -43.516,0 z m 104.65,0 -42.48,0 0,-159.73 42.48,0 0,159.73 z m -20.982,-178.9 c -12.16,0 -22.018,-9.742 -22.018,-21.758 0,-12.017 9.857,-21.759 22.018,-21.759 12.161,0 22.018,9.742 22.018,21.759 0,12.016 -9.857,21.758 -22.018,21.758 z"
           id="path15"
           style="fill:#000000;fill-opacity:1"
           inkscape:connector-curvature="0" /></g></g></g></svg>