<svg id="svg4116" xmlns:rdf="http://www.w3.org/1999/02/22-rdf-syntax-ns#" xmlns="http://www.w3.org/2000/svg" viewBox="0 0 196.52 112.61" version="1.1" xmlns:cc="http://creativecommons.org/ns#" xmlns:dc="http://purl.org/dc/elements/1.1/">
 <path id="path4135" fill-rule="evenodd" transform="matrix(1.3816 0 0 .88627 51.367 3.0875)" fill="#92b2ae" d="m33.943 123.58c-6.238 0-74.138-117.61-71.019-123.01 3.119-5.4043 138.92-5.4043 142.04-0.00192s-64.779 123.01-71.017 123.01z"/>
 <g id="layer1" transform="matrix(.75741 0 0 .75741 166.55 -401.52)">
  <path id="path3765" style="color:#000000;text-indent:0;block-progression:tb;text-decoration-line:none;text-transform:none" d="m-74.367 544.51c-3.2721 0.13655-6.3717 1.3849-8.0938 4.125l-3.9062 6.2188c-0.028 0.0433-0.066 0.0809-0.094 0.125l-26.406 42.031-0.3438 0.5625-0.031 0.6875-1.625 31.656-0.2188 4.5938 4-2.1875 27.844-15.219 0.5938-0.3125 0.375-0.5625 30.406-48.375c1.9681-3.1315 1.4088-6.9968-0.4062-10.312-1.8151-3.3157-4.9277-6.4256-8.875-8.9062-3.9473-2.4807-8.0378-3.8964-11.813-4.0938-0.4718-0.0247-0.9388-0.0508-1.4062-0.0312zm0.1875 5.125c0.2943-0.008 0.609 0.0141 0.9375 0.0312 2.628 0.13737 6.0557 1.2577 9.375 3.3438 3.3193 2.086 5.7989 4.6604 7.0625 6.9688 1.0669 1.949 1.2465 3.4504 0.8437 4.5625-0.107-0.21996-0.1945-0.44073-0.3124-0.65625-1.8151-3.3157-4.8966-6.4256-8.8438-8.9062-3.9473-2.4807-8.069-3.8964-11.844-4.0938-0.2412-0.0126-0.4781-0.03-0.7187-0.0312 0.7056-0.70485 1.8281-1.172 3.5-1.2188zm-4 6.375c0.2943-0.008 0.609-0.0172 0.9375 0 2.6281 0.13737 6.0557 1.2577 9.375 3.3438 3.3193 2.086 5.7988 4.6916 7.0625 7 1.2209 2.2304 1.3062 3.8524 0.6563 5l-2.1563 3.4688c-0.1602-0.35851-0.3397-0.71259-0.5313-1.0625-1.7489-3.1948-4.7532-6.2229-8.625-8.6562-3.8719-2.4333-7.9253-3.8411-11.562-4.0312-0.4018-0.021-0.7918-0.0116-1.1876 0l2.0938-3.3438h0.031l0.063-0.125c0.6569-0.93513 1.8731-1.5386 3.8437-1.5938zm-6.0313 8.9375c0.3151-0.01 0.6543 0.0132 1 0.0312 2.6059 0.13624 5.8533 1.1596 9.0626 3.0625l-18.281 29.094c-4.7667 2.838-9.249 2.4918-13.406 1.5938l-1.7812-0.375 20.562-32.781c0.7499-0.36846 1.6971-0.59035 2.8437-0.625zm11.719 4.1562c2.87 2.0002 5.0303 4.3603 6.2188 6.5312 0.7782 1.4219 1.1403 2.6472 1.125 3.7188l-20.5 32.562-0.7188-0.96875c-2.6124-3.3564-4.8647-7.2241-4.375-12.75l18.25-29.094zm-20.094 30.125c-0.143 6.0398 2.7835 10.362 5.5938 13.812l0.1562 0.1875-17.812 9.7188c-0.8799-1.7025-2.3489-2.6153-4.5626-2.8438l1.0313-20.125 0.7187 0.1875c4.3249 1.035 9.4988 1.8045 14.875-0.9375z" fill="#231f20"/>
 </g>
</svg>
