<?xml version="1.0" encoding="UTF-8" standalone="no"?>
<svg
   xmlns:dc="http://purl.org/dc/elements/1.1/"
   xmlns:cc="http://creativecommons.org/ns#"
   xmlns:rdf="http://www.w3.org/1999/02/22-rdf-syntax-ns#"
   xmlns:svg="http://www.w3.org/2000/svg"
   xmlns="http://www.w3.org/2000/svg"
   xmlns:sodipodi="http://sodipodi.sourceforge.net/DTD/sodipodi-0.dtd"
   xmlns:inkscape="http://www.inkscape.org/namespaces/inkscape"
   id="svg4210"
   version="1.1"
   viewBox="0 0 1100.6 543.57397"
   inkscape:version="0.91 r13725"
   sodipodi:docname="css3-banner.svg"
   width="1100.6"
   height="543.57397">
  <metadata
     id="metadata23">
    <rdf:RDF>
      <cc:Work
         rdf:about="">
        <dc:format>image/svg+xml</dc:format>
        <dc:type
           rdf:resource="http://purl.org/dc/dcmitype/StillImage" />
        <dc:title>Slice 1</dc:title>
      </cc:Work>
    </rdf:RDF>
  </metadata>
  <defs
     id="defs21" />
  <sodipodi:namedview
     pagecolor="#ffffff"
     bordercolor="#666666"
     borderopacity="1"
     objecttolerance="10"
     gridtolerance="10"
     guidetolerance="10"
     inkscape:pageopacity="0"
     inkscape:pageshadow="2"
     inkscape:window-width="1066"
     inkscape:window-height="594"
     id="namedview19"
     showgrid="false"
     fit-margin-top="0"
     fit-margin-left="0"
     fit-margin-right="0"
     fit-margin-bottom="0"
     inkscape:zoom="0.56190476"
     inkscape:cx="526.19187"
     inkscape:cy="294.465"
     inkscape:window-x="1440"
     inkscape:window-y="0"
     inkscape:window-maximized="0"
     inkscape:current-layer="g4" />
  <title
     id="title4212">Slice 1</title>
  <description>Created with Sketch (http://www.bohemiancoding.com/sketch)</description>
  <g
     id="g4"
     style="fill-rule:evenodd"
     transform="translate(401.27,39.109)">
    <path
       id="path4246"
       d="m -401.27,-39.109 1100.6,0 0,465.56 -552.43,77.507 -547.71,-77.585 z"
       inkscape:connector-curvature="0"
       style="fill:#38607d;fill-opacity:1" />
    <path
       id="path4262"
       d="m 295.95,82.845 122.92,383.16 -271.92,38.46 -79.129,-11.55 -40.776,-106.9 z"
       inkscape:connector-curvature="0"
       style="fill:#14527f;fill-opacity:1" />
    <g
       id="Page 1"
       style="fill:none">
      <g
         id="Layer_1">
        <path
           id="Shape"
           d="m 233.16,15.681 -24.68,0 25.67,27.859 0,13.261 -52.88,0 0,-15.526 25.67,0 -25.67,-27.86 0,-13.28 51.89,0 0,15.546 z m -62.37,0 -24.69,0 25.67,27.859 0,13.261 -52.88,0 0,-15.526 25.67,0 -25.67,-27.86 0,-13.28 51.9,0 0,15.546 z m -61.77,0.631 -26.642,0 0,24.313 26.642,0 0,16.176 -45.576,0 0,-56.666 45.576,0 0,16.177 z"
           inkscape:connector-curvature="0"
           style="fill:#ffffff" />
        <path
           id="path4219"
           d="M 27.142,386.29 0.071,82.67 l 297.45,0 -27.1,303.57 -121.81,33.77 -121.47,-33.72 z"
           inkscape:connector-curvature="0"
           style="fill:#1572b6" />
        <path
           id="path4221"
           d="m 148.8,394.2 98.42,-27.29 23.16,-259.41 -121.58,0 0,286.7 z"
           inkscape:connector-curvature="0"
           style="fill:#33a9dc" />
        <g
           id="Group"
           transform="translate(55,142)">
          <path
             id="path4224"
             d="m 93.797,75.496 49.273,0 3.41,-38.132 -52.683,0 0,-37.239 0.129,0 93.244,0 -0.89,9.991 -9.15,102.61 -83.333,0 0,-37.234 z"
             inkscape:connector-curvature="0"
             style="fill:#ffffff" />
          <path
             id="path4226"
             d="m 94.02,172.2 -0.163,0.05 -41.472,-11.2 -2.652,-29.7 -20.151,0 -17.228,0 5.216,58.47 76.278,21.18 0.172,-0.05 0,-38.75 z"
             inkscape:connector-curvature="0"
             style="fill:#ebebeb" />
          <path
             id="path4228"
             d="m 139.91,111.16 -4.49,49.87 -41.529,11.21 0,38.74 76.339,-21.16 0.56,-6.29 6.48,-72.37 -37.36,0 z"
             inkscape:connector-curvature="0"
             style="fill:#ffffff" />
          <path
             id="path4230"
             d="m 93.926,0.125 0,23.128 0,14.019 0,0.092 -89.828,0 -0.119,0 -0.747,-8.37 -1.697,-18.878 -0.89,-9.991 93.281,0 z"
             inkscape:connector-curvature="0"
             style="fill:#ebebeb" />
          <path
             id="path4232"
             d="m 93.797,75.5 0,23.129 0,14.021 0,0.09 -40.828,0 -0.119,0 -0.746,-8.37 -1.698,-18.879 -0.89,-9.991 44.281,0 z"
             inkscape:connector-curvature="0"
             style="fill:#ebebeb" />
        </g>
      </g>
    </g>
  </g>
</svg>
