<svg id="Layer_1" xmlns:rdf="http://www.w3.org/1999/02/22-rdf-syntax-ns#" xmlns="http://www.w3.org/2000/svg" version="1.1" xml:space="preserve" height="73.333" viewBox="20 -40 293.33261 396.00001" width="73.333" enable-background="new 0 0 400 400" y="0px" x="0px" xmlns:cc="http://creativecommons.org/ns#" xmlns:dc="http://purl.org/dc/elements/1.1/"><path id="path3" d="m333.9-39.997h-334.46c-16.956 0-30.769 13.812-30.769 30.768v334.46c0 16.957 13.813 30.769 30.769 30.769h170.06 78.594 85.806c16.96 0 30.77-13.81 30.77-30.77v-334.46c0-16.958-13.81-30.77-30.77-30.77zm-144.23 376v-146h-49v-36h49v-52.196c0-20.625 5.889-37.43 17.189-48.599 10.857-10.731 26.823-16.403 45.866-16.403 13.383 0 24.944 0.657 33.944 1.3v31.688l-20.463 0.009c-38.12 0-38.537 28.317-38.537 37.623v46.578h55.24l-4.737 36h-50.502v146h-38zm155-10.77c0 5.93-4.84 10.77-10.77 10.77h-86.231v-126h48.089l9.896-76h-57.985v-26.578c0-6.902 1.127-11.202 3.088-13.532 2.286-2.715 7.726-4.091 15.561-4.091l40.35-0.016v-69.504l-8.888-1.153c-4.536-0.603-22.661-2.322-45.201-2.322-24.418 0-45.051 7.669-59.731 22.179-15.19 15.01-23.18 36.734-23.18 62.819v32.196h-49v76h49v126h-170.23c-5.928 0-10.769-4.841-10.769-10.769v-334.46c0-5.928 4.841-10.768 10.769-10.768h334.45c5.927 0 10.769 4.84 10.769 10.768v334.46z"/></svg>
