<svg id="svg2" xmlns:rdf="http://www.w3.org/1999/02/22-rdf-syntax-ns#" xmlns="http://www.w3.org/2000/svg" viewBox="0 0 699 984" version="1.1" xmlns:cc="http://creativecommons.org/ns#" xmlns:dc="http://purl.org/dc/elements/1.1/">
 <path id="path4" d="m0 193h699l-66 710-284 81-284-81zm65-60v-133h45v44h40v-44h44v133h-44v-44h-40v44h-45zm65 205 24 266 1-2h300l-10 113-96 27-97-28-6-68h-88l12 136 179 51 179-51 25-267h-319l-8-89h335l8-88h-439zm84-293v-45h122v45h-39v88h-44v-88h-39zm141 88v-133h47l27 46 28-46h47v133h-43v-68l-32 50v-1l-30-47v66h-44zm172 0v-133h44v88h62v45h-106z"/>
</svg>
