<?xml version="1.0" encoding="UTF-8" standalone="no"?>
<svg
   xmlns:dc="http://purl.org/dc/elements/1.1/"
   xmlns:cc="http://creativecommons.org/ns#"
   xmlns:rdf="http://www.w3.org/1999/02/22-rdf-syntax-ns#"
   xmlns:svg="http://www.w3.org/2000/svg"
   xmlns="http://www.w3.org/2000/svg"
   xmlns:sodipodi="http://sodipodi.sourceforge.net/DTD/sodipodi-0.dtd"
   xmlns:inkscape="http://www.inkscape.org/namespaces/inkscape"
   id="svg4210"
   version="1.1"
   viewBox="0 0 1100.6 543.56702"
   inkscape:version="0.91 r13725"
   sodipodi:docname="js-banner.svg"
   width="1100.6"
   height="543.56702">
  <metadata
     id="metadata27">
    <rdf:RDF>
      <cc:Work
         rdf:about="">
        <dc:format>image/svg+xml</dc:format>
        <dc:type
           rdf:resource="http://purl.org/dc/dcmitype/StillImage" />
        <dc:title>Slice 1</dc:title>
      </cc:Work>
    </rdf:RDF>
  </metadata>
  <sodipodi:namedview
     pagecolor="#ffffff"
     bordercolor="#666666"
     borderopacity="1"
     objecttolerance="10"
     gridtolerance="10"
     guidetolerance="10"
     inkscape:pageopacity="0"
     inkscape:pageshadow="2"
     inkscape:window-width="883"
     inkscape:window-height="480"
     id="namedview25"
     showgrid="false"
     fit-margin-top="0"
     fit-margin-left="0"
     fit-margin-right="0"
     fit-margin-bottom="0"
     inkscape:zoom="0.56190476"
     inkscape:cx="550.27"
     inkscape:cy="294.458"
     inkscape:window-x="1440"
     inkscape:window-y="0"
     inkscape:window-maximized="0"
     inkscape:current-layer="svg4210" />
  <title
     id="title4212">Slice 1</title>
  <description>Created with Sketch (http://www.bohemiancoding.com/sketch)</description>
  <defs
     id="defs4214">
    <clipPath
       id="clipPath36"
       clipPathUnits="userSpaceOnUse">
      <path
         id="path38"
         d="m 0,141.73 141.73,0 L 141.73,0 0,0 0,141.73 Z"
         inkscape:connector-curvature="0" />
    </clipPath>
  </defs>
  <path
     id="path4246"
     d="m 0,0 1100.6,0 0,465.56 L 548.17,543.067 0.46,465.482 Z"
     inkscape:connector-curvature="0"
     style="fill:#9a7826;fill-rule:evenodd" />
  <path
     id="path4262"
     d="m 697.22,125.327 122.92,379.79 -271.92,38.45 -79.129,-11.55 -40.776,-107.4 z"
     inkscape:connector-curvature="0"
     style="fill:#95611a;fill-rule:evenodd" />
  <g
     id="g4547"
     transform="matrix(0.81537,0,0,0.81101,340.957,43.6833)">
    <g
       id="g10"
       transform="matrix(4.5075,0,0,-4.5317,-64.33,576.31)">
      <g
         id="g12"
         transform="translate(111.14,105.34)">
        <path
           id="path14"
           d="m 0,0 -40.275,0 -40.276,0 7.548,-81.885 32.728,-9.279 32.715,9.279 L 0,0 Z"
           inkscape:connector-curvature="0"
           style="fill:#e6a329" />
      </g>
      <g
         id="g16"
         transform="translate(70.866,98.666)">
        <path
           id="path18"
           d="M 0,0 0,-77.559 26.502,-70.046 32.956,0 0,0 Z"
           inkscape:connector-curvature="0"
           style="fill:#f1bf22" />
      </g>
      <g
         id="g20"
         transform="translate(91.951,88.618)">
        <path
           id="path22"
           d="m 0,0 -40.763,0 -2.833,-30.66 0.06,0.192 34.626,0 -1.13,-12.969 -11.045,-3.184 -11.214,3.232 -0.673,7.849 -10.18,0 1.455,-15.685 20.612,-5.853 20.612,5.853 2.837,30.781 -36.742,0 0.468,10.264 25.503,0 0.375,-5.875 10.271,0 L 0,0 Z"
           inkscape:connector-curvature="0"
           style="fill:#ffffff" />
      </g>
      <g
         id="g24"
         transform="translate(58.98,53.078)">
        <path
           id="path26"
           d="m 0,0 -10.18,0 1.454,-15.685 20.613,-5.84 0,10.444 L 0.673,-7.849 0,0 Z m 11.887,35.54 -19.679,0 -2.833,-30.66 0.061,0.192 22.451,0 0,10.024 -11.876,0 0.468,10.264 11.408,0 0,10.18 z"
           inkscape:connector-curvature="0"
           style="fill:#ebebeb" />
      </g>
      <g
         id="g28"
         transform="translate(63.028,117.42)">
        <path
           id="path30"
           d="m 0,0 -7.163,0 0,-5.144 7.163,0 3.835,0 1.298,0 0,15.288 L 0,10.144 0,0 Z"
           inkscape:connector-curvature="0"
           style="fill:#ffffff" />
      </g>
      <g
         id="g32">
        <g
           id="g34"
           clip-path="url(#clipPath36)">
          <g
             id="g40"
             transform="translate(85.868,127.48)">
            <path
               id="path42"
               d="m 0,0 -12.494,0 0,-5.354 c 1.67,-1.671 2.543,-2.471 4.961,-4.889 -1.414,0 -4.961,-0.005 -4.961,-0.005 l 0,-4.884 12.494,0 0,4.885 -4.99,4.893 4.99,0 L 0,0 Z"
               inkscape:connector-curvature="0"
               style="fill:#ffffff" />
          </g>
        </g>
      </g>
    </g>
  </g>
</svg>
