<svg id="svg2" xmlns:rdf="http://www.w3.org/1999/02/22-rdf-syntax-ns#" xmlns="http://www.w3.org/2000/svg" xml:space="preserve" height="141.73" viewBox="0 0 100.68875 141.73324" width="100.69" version="1.1" xmlns:cc="http://creativecommons.org/ns#" xmlns:dc="http://purl.org/dc/elements/1.1/"><defs id="defs6"><clipPath id="clipPath36" clipPathUnits="userSpaceOnUse"><path id="path38" d="m0 141.73h141.73v-141.73h-141.73v141.73z"/></clipPath></defs><g id="g10" transform="matrix(1.25 0 0 -1.25 -38.238 159.45)"><g id="g12" transform="translate(111.14 105.34)"><path id="path14" d="m0 0h-40.275-40.276l7.548-81.885 32.728-9.279 32.715 9.279 7.56 81.885z" fill="#e6a329"/></g><g id="g16" transform="translate(70.866 98.666)"><path id="path18" d="m0 0v-77.559l26.502 7.513 6.454 70.046h-32.956z" fill="#f1bf22"/></g><g id="g20" transform="translate(91.951 88.618)"><path id="path22" d="m0 0h-40.763l-2.833-30.66 0.06 0.192h34.626l-1.13-12.969-11.045-3.184-11.214 3.232-0.673 7.849h-10.18l1.455-15.685 20.612-5.853 20.612 5.853 2.837 30.781h-36.742l0.468 10.264h25.503l0.375-5.875h10.271l-2.239 16.055z" fill="#fff"/></g><g id="g24" transform="translate(58.98 53.078)"><path id="path26" d="m0 0h-10.18l1.454-15.685 20.613-5.84v10.444l-11.214 3.232-0.673 7.849zm11.887 35.54h-19.679l-2.833-30.66 0.061 0.192h22.451v10.024h-11.876l0.468 10.264h11.408v10.18z" fill="#ebebeb"/></g><g id="g28" transform="translate(63.028 117.42)"><path id="path30" d="m0 0h-7.163v-5.144h7.163 3.835 1.298v15.288h-5.133v-10.144z" fill="#FFFFFF"/></g><g id="g32"><g id="g34" clip-path="url(#clipPath36)"><g id="g40" transform="translate(85.868 127.48)"><path id="path42" d="m0 0h-12.494v-5.354c1.67-1.671 2.543-2.471 4.961-4.889-1.414 0-4.961-0.005-4.961-0.005v-4.884h12.494v4.885l-4.99 4.893h4.99v5.354z" fill="#FFFFFF"/></g></g></g></g></svg>
