<?xml version="1.0" encoding="UTF-8" standalone="no"?>
<svg
   xmlns:dc="http://purl.org/dc/elements/1.1/"
   xmlns:cc="http://creativecommons.org/ns#"
   xmlns:rdf="http://www.w3.org/1999/02/22-rdf-syntax-ns#"
   xmlns:svg="http://www.w3.org/2000/svg"
   xmlns="http://www.w3.org/2000/svg"
   version="1.1"
   id="svg3336"
   viewBox="0 0 400 400"
   height="400"
   width="400">
  <defs
     id="defs3338" />
  <metadata
     id="metadata3341">
    <rdf:RDF>
      <cc:Work
         rdf:about="">
        <dc:format>image/svg+xml</dc:format>
        <dc:type
           rdf:resource="http://purl.org/dc/dcmitype/StillImage" />
        <dc:title></dc:title>
      </cc:Work>
    </rdf:RDF>
  </metadata>
  <g
     transform="translate(0,-652.36216)"
     id="layer1">
    <path
       id="path3367"
       transform="translate(0,652.36216)"
       d="M 179.57812 71.666016 L 156.375 109.65234 L 178.91602 148.00977 L 224.66016 148.37695 L 247.86328 110.38867 L 225.32227 72.033203 L 179.57812 71.666016 z M 103.35938 112.6875 L 80.15625 150.67578 L 102.69727 189.03125 L 148.44141 189.39844 L 171.64453 151.41211 L 149.10352 113.05469 L 103.35938 112.6875 z M 27.205078 153.89453 L 4.0019531 191.88281 L 26.542969 230.23828 L 72.287109 230.60742 L 95.492188 192.61914 L 72.949219 154.26367 L 27.205078 153.89453 z M 329.97266 156.46094 L 306.76953 194.44922 L 329.31055 232.80469 L 375.05664 233.17383 L 398.25977 195.18555 L 375.7168 156.83008 L 329.97266 156.46094 z M 102.40625 196.07812 L 79.203125 234.06641 L 101.74414 272.42188 L 147.48828 272.79102 L 170.69336 234.80273 L 148.15039 196.44727 L 102.40625 196.07812 z M 253.88867 197.72461 L 230.68555 235.71094 L 253.22656 274.06836 L 298.9707 274.43555 L 322.17383 236.44727 L 299.63281 198.0918 L 253.88867 197.72461 z M 177.80469 238.6875 L 154.60156 276.67578 L 177.14258 315.03125 L 222.88672 315.40039 L 246.08984 277.41211 L 223.54883 239.05664 L 177.80469 238.6875 z "
       style="fill:#000000;fill-opacity:0;fill-rule:evenodd;stroke:#ffffff;stroke-width:2.51487541;stroke-linecap:butt;stroke-linejoin:miter;stroke-miterlimit:4;stroke-dasharray:none;stroke-dashoffset:0;stroke-opacity:1" />
  </g>
</svg>
