<?xml version="1.0" encoding="UTF-8" standalone="no"?>
<svg
   xmlns:dc="http://purl.org/dc/elements/1.1/"
   xmlns:cc="http://creativecommons.org/ns#"
   xmlns:rdf="http://www.w3.org/1999/02/22-rdf-syntax-ns#"
   xmlns:svg="http://www.w3.org/2000/svg"
   xmlns="http://www.w3.org/2000/svg"
   xmlns:sodipodi="http://sodipodi.sourceforge.net/DTD/sodipodi-0.dtd"
   xmlns:inkscape="http://www.inkscape.org/namespaces/inkscape"
   version="1.1"
   width="1100.6"
   height="543.57397"
   id="svg2"
   inkscape:version="0.91 r13725"
   viewBox="0 0 1100.6 543.57397"
   sodipodi:docname="maya-banner.svg">
  <metadata
     id="metadata16">
    <rdf:RDF>
      <cc:Work
         rdf:about="">
        <dc:format>image/svg+xml</dc:format>
        <dc:type
           rdf:resource="http://purl.org/dc/dcmitype/StillImage" />
        <dc:title />
      </cc:Work>
    </rdf:RDF>
  </metadata>
  <defs
     id="defs14">
    <style
       id="style4326">

      .cls-3 {
        fill: #104b4b;
      }

      .cls-4 {
        fill: #081b1a;
      }

      .cls-6 {
        fill: #052626;
      }

      .cls-8 {
        fill: #0a3535;
      }

      .cls-10 {
        fill: #0b7b7a;
      }

      .cls-11 {
        fill: #0b7473;
      }

      .cls-13 {
        fill: #0b3f3f;
      }
    </style>
  </defs>
  <sodipodi:namedview
     pagecolor="#ffffff"
     bordercolor="#666666"
     borderopacity="1"
     objecttolerance="10"
     gridtolerance="10"
     guidetolerance="10"
     inkscape:pageopacity="0"
     inkscape:pageshadow="2"
     inkscape:window-width="1922"
     inkscape:window-height="1038"
     id="namedview12"
     showgrid="false"
     showguides="true"
     inkscape:guide-bbox="true"
     inkscape:zoom="2.8284271"
     inkscape:cx="556.77823"
     inkscape:cy="185.63255"
     inkscape:window-x="1440"
     inkscape:window-y="0"
     inkscape:window-maximized="0"
     inkscape:current-layer="svg2"
     fit-margin-top="0"
     fit-margin-left="0"
     fit-margin-right="0"
     fit-margin-bottom="0">
    <sodipodi:guide
       position="547.6208,-115.21675"
       orientation="1,0"
       id="guide4359" />
  </sodipodi:namedview>
  <g
     transform="translate(401.27,39.109)"
     style="fill-rule:evenodd"
     id="g4">
    <path
       style="fill:#33a3a3;fill-opacity:1"
       inkscape:connector-curvature="0"
       d="m -401.27,-39.109 1100.6,0 0,465.56 -552.43,77.507 -547.71,-77.585 z"
       id="path4246" />
    <path
       style="fill:#104948;fill-opacity:1"
       inkscape:connector-curvature="0"
       d="M 327.05586,160.2732 428.4091,465.41921 148.83225,504.465 3.821,483.84393 -36.247893,386.72211 C 71.830884,208.31152 205.60382,228.35437 327.05586,160.2732 Z"
       id="path4262"
       sodipodi:nodetypes="cccccc" />
    <text
       xml:space="preserve"
       style="font-style:normal;font-variant:normal;font-weight:900;font-stretch:normal;font-size:70.84461212px;line-height:125%;font-family:'Arial Black';-inkscape-font-specification:'Arial Black, Heavy';text-align:start;letter-spacing:0px;word-spacing:0px;writing-mode:lr-tb;text-anchor:start;fill:#ffffff;fill-opacity:1;stroke:none;stroke-width:1px;stroke-linecap:butt;stroke-linejoin:miter;stroke-opacity:1"
       x="27.958809"
       y="44.065369"
       id="text4361"
       sodipodi:linespacing="125%"><tspan
         sodipodi:role="line"
         id="tspan4363"
         x="27.958809"
         y="44.065369">MAYA</tspan></text>
  </g>
  <g
     id="groupe-1"
     transform="matrix(0.9468754,0,0,0.9632141,364.80012,94.75269)">
    <path
       class="cls-3"
       id="path-1"
       d="M 193.25322,2.0763816 146,142 l 93,0 z"
       inkscape:connector-curvature="0"
       style="fill:#104b4b;fill-rule:evenodd"
       sodipodi:nodetypes="cccc" />
    <path
       class="cls-4"
       id="path-2"
       d="m 193,1 c 0,0 45,141 45,141 0,0 65,1 65,1 C 303,143 193,1 193,1 Z"
       inkscape:connector-curvature="0"
       style="fill:#081b1a;fill-rule:evenodd" />
    <path
       class="cls-4"
       id="path-3"
       d="m 194,1 c 0,0 -47,141 -47,141 0,0 -65,1 -65,1 C 82,143 194,1 194,1 Z"
       inkscape:connector-curvature="0"
       style="fill:#081b1a;fill-rule:evenodd" />
    <path
       class="cls-6"
       id="path-4"
       d="m 238,142 c 0,0 65,0 65,0 0,0 -1,67 -1,67 0,0 -32,34 -32,34 0,0 -32,-101 -32,-101 z"
       inkscape:connector-curvature="0"
       style="fill:#052626;fill-rule:evenodd" />
    <path
       class="cls-6"
       id="path-5"
       d="m 147,142 -64,0 1,67 30,32.06355 z"
       inkscape:connector-curvature="0"
       style="fill:#052626;fill-rule:evenodd"
       sodipodi:nodetypes="ccccc" />
    <path
       class="cls-8"
       id="path-6"
       d="m 302,208 c 0,0 -32,34 -32,34 0,0 33,103 33,103 0,0 -1,-137 -1,-137 z"
       inkscape:connector-curvature="0"
       style="fill:#0a3535;fill-rule:evenodd" />
    <path
       class="cls-8"
       id="path-7"
       d="m 84,205 c 0,0 30,35 30,35 0,0 -31,102 -31,102 0,0 1,-137 1,-137 z"
       inkscape:connector-curvature="0"
       style="fill:#0a3535;fill-rule:evenodd" />
    <path
       class="cls-10"
       id="path-8"
       d="m 146,142 93,0 32,101 -77,94 -79.87983,-97.46822 z"
       inkscape:connector-curvature="0"
       style="fill:#0b7b7a;fill-rule:evenodd"
       sodipodi:nodetypes="cccccc" />
    <path
       class="cls-11"
       id="path-9"
       d="m 386,346 -83,0 c -0.333,-47.662 -1.667,-90.338 -2,-138 28.477,-35.312 51.569,-62.08394 83,-100.63294 0,80.325 2,158.30794 2,238.63294 z"
       inkscape:connector-curvature="0"
       style="fill:#0b7473;fill-rule:evenodd"
       sodipodi:nodetypes="ccccc" />
    <path
       class="cls-11"
       id="path-10"
       d="m 0,344 c 27.664,0 55.336,0 83,0 0.333,-47.662 1.667,-88.338 2,-136 C 56.523,172.688 34.431,146.549 3,108 3,188.325 0,263.675 0,344 Z"
       inkscape:connector-curvature="0"
       style="fill:#0b7473;fill-rule:evenodd" />
    <path
       class="cls-13"
       id="path-11"
       d="m 195,3 c 62.994,34.997 126.006,70.004 189,105 -44.179,52.537 0.227,0.686 -83,100 0,-20.998 0,-45.002 0,-66 C 277.253,110.832 194.747,6.168 195,3 Z"
       inkscape:connector-curvature="0"
       style="fill:#0b3f3f;fill-rule:evenodd" />
    <path
       class="cls-13"
       id="path-12"
       d="M 193,2 C 130.079,36.996 65.139,73.003 2.218,108 c 44.129,52.537 -0.226,0.686 82.905,100 0,-20.998 0,-45.002 0,-66 C 108.842,110.832 193.253,5.168 193,2 Z"
       inkscape:connector-curvature="0"
       style="fill:#0b3f3f;fill-rule:evenodd" />
  </g>
</svg>
