<svg id="svg2" xmlns:rdf="http://www.w3.org/1999/02/22-rdf-syntax-ns#" xmlns="http://www.w3.org/2000/svg" height="127.66mm" width="126.83mm" version="1.1"  viewBox="0 0 449.40794 452.35392">
 <g id="layer1" transform="translate(-128.23 -243.33)">
  <path id="path4138" d="m577.31 243.79s-448.57 187.96-448.57 232.14c0 40.32 447.14 219.29 447.14 219.29s-252.56-220.26 1.4286-451.43z" fill-rule="evenodd" stroke="#000" stroke-width="1px" fill="#6db7ba" fill-opacity="0.4"/>
  <g fill-opacity="0">
   <path id="path4140" d="m172.11 656.47c83.843-88.574 108.16-193.1 66.359-285.28-13.299-29.33-33.262-57.521-61.678-87.102-14.184-14.765-24.351-26.336-22.594-25.714 8.6318 3.0542 415.38 218.09 415.38 219.6 0 1.8992-414.32 202.96-418.24 202.96-1.312 0 8.0358-11.009 20.773-24.465z"/>
   <path id="path4142" d="m172.11 656.47c83.843-88.574 108.16-193.1 66.359-285.28-13.299-29.33-33.262-57.521-61.678-87.102-14.184-14.765-24.351-26.336-22.594-25.714 8.6318 3.0542 415.38 218.09 415.38 219.6 0 1.8992-414.32 202.96-418.24 202.96-1.312 0 8.0358-11.009 20.773-24.465z"/>
   <path id="path4144" d="m172.11 656.47c83.843-88.574 108.16-193.1 66.359-285.28-13.299-29.33-33.262-57.521-61.678-87.102-14.184-14.765-24.351-26.336-22.594-25.714 8.6318 3.0542 415.38 218.09 415.38 219.6 0 1.8992-414.32 202.96-418.24 202.96-1.312 0 8.0358-11.009 20.773-24.465z"/>
   <path id="path4146" d="m172.11 656.47c83.843-88.574 108.16-193.1 66.359-285.28-13.299-29.33-33.262-57.521-61.678-87.102-14.184-14.765-24.351-26.336-22.594-25.714 8.6318 3.0542 415.38 218.09 415.38 219.6 0 1.8992-414.32 202.96-418.24 202.96-1.312 0 8.0358-11.009 20.773-24.465z"/>
   <path id="path4148" d="m172.11 656.47c83.843-88.574 108.16-193.1 66.359-285.28-13.299-29.33-33.262-57.521-61.678-87.102-14.184-14.765-24.351-26.336-22.594-25.714 8.6318 3.0542 415.38 218.09 415.38 219.6 0 1.8992-414.32 202.96-418.24 202.96-1.312 0 8.0358-11.009 20.773-24.465z"/>
   <path id="path4150" d="m172.11 656.47c83.843-88.574 108.16-193.1 66.359-285.28-13.299-29.33-33.262-57.521-61.678-87.102-14.184-14.765-24.351-26.336-22.594-25.714 8.6318 3.0542 415.38 218.09 415.38 219.6 0 1.8992-414.32 202.96-418.24 202.96-1.312 0 8.0358-11.009 20.773-24.465z"/>
   <path id="path4152" d="m172.11 656.47c83.843-88.574 108.16-193.1 66.359-285.28-13.299-29.33-33.262-57.521-61.678-87.102-14.184-14.765-24.351-26.336-22.594-25.714 8.6318 3.0542 415.38 218.09 415.38 219.6 0 1.8992-414.32 202.96-418.24 202.96-1.312 0 8.0358-11.009 20.773-24.465z"/>
  </g>
 </g>
</svg>
