<?xml version="1.0" encoding="UTF-8" standalone="no"?>
<svg
   xmlns:dc="http://purl.org/dc/elements/1.1/"
   xmlns:cc="http://creativecommons.org/ns#"
   xmlns:rdf="http://www.w3.org/1999/02/22-rdf-syntax-ns#"
   xmlns:svg="http://www.w3.org/2000/svg"
   xmlns="http://www.w3.org/2000/svg"
   xmlns:sodipodi="http://sodipodi.sourceforge.net/DTD/sodipodi-0.dtd"
   xmlns:inkscape="http://www.inkscape.org/namespaces/inkscape"
   version="1.1"
   width="1100.6"
   height="543.57397"
   id="svg2"
   inkscape:version="0.91 r13725"
   viewBox="0 0 1100.6 543.57397"
   sodipodi:docname="ps-banner.svg">
  <metadata
     id="metadata16">
    <rdf:RDF>
      <cc:Work
         rdf:about="">
        <dc:format>image/svg+xml</dc:format>
        <dc:type
           rdf:resource="http://purl.org/dc/dcmitype/StillImage" />
        <dc:title />
      </cc:Work>
    </rdf:RDF>
  </metadata>
  <defs
     id="defs14">
    <style
       id="style4326">

      .cls-3 {
        fill: #104b4b;
      }

      .cls-4 {
        fill: #081b1a;
      }

      .cls-6 {
        fill: #052626;
      }

      .cls-8 {
        fill: #0a3535;
      }

      .cls-10 {
        fill: #0b7b7a;
      }

      .cls-11 {
        fill: #0b7473;
      }

      .cls-13 {
        fill: #0b3f3f;
      }
    </style>
  </defs>
  <sodipodi:namedview
     pagecolor="#ffffff"
     bordercolor="#666666"
     borderopacity="1"
     objecttolerance="10"
     gridtolerance="10"
     guidetolerance="10"
     inkscape:pageopacity="0"
     inkscape:pageshadow="2"
     inkscape:window-width="1922"
     inkscape:window-height="1038"
     id="namedview12"
     showgrid="false"
     showguides="true"
     inkscape:guide-bbox="true"
     inkscape:zoom="0.70710678"
     inkscape:cx="679.40174"
     inkscape:cy="169.379"
     inkscape:window-x="1440"
     inkscape:window-y="0"
     inkscape:window-maximized="0"
     inkscape:current-layer="g4267"
     fit-margin-top="0"
     fit-margin-left="0"
     fit-margin-right="0"
     fit-margin-bottom="0">
    <sodipodi:guide
       position="547.6208,-115.21675"
       orientation="1,0"
       id="guide4359" />
  </sodipodi:namedview>
  <g
     transform="translate(401.27,39.109)"
     style="fill-rule:evenodd"
     id="g4">
    <path
       style="fill:#81bbfb;fill-opacity:1"
       inkscape:connector-curvature="0"
       d="m -401.27,-39.109 1100.6,0 0,465.56 -552.43,77.507 -547.71,-77.585 z"
       id="path4246" />
    <path
       style="fill:#11539d;fill-opacity:1"
       inkscape:connector-curvature="0"
       d="M 329.88429,46.429007 512.55481,452.69129 148.83225,504.465 0.07099997,483.34393 -35.247893,404.72211 C 72.830884,226.31152 208.43225,114.51018 329.88429,46.429007 Z"
       id="path4262"
       sodipodi:nodetypes="cccccc" />
  </g>
  <g
     id="g4267"
     transform="matrix(1.4474576,0,0,1.4474576,331.88137,52.073969)">
    <g
       id="Layer_2_1_" />
    <g
       id="Layer_2"
       style="fill:#000a54;fill-opacity:1">
      <g
         id="g4286"
         style="fill:#000a54;fill-opacity:1">
        <linearGradient
           y2="242.95531"
           x2="178.7258"
           y1="26.954599"
           x1="113.7256"
           gradientUnits="userSpaceOnUse"
           id="SVGID_2_">
          <stop
             id="stop4289"
             style="stop-color:#090058"
             offset="0" />
          <stop
             id="stop4291"
             style="stop-color:#070033"
             offset="1" />
        </linearGradient>
        <rect
           id="rect4293"
           height="248.082"
           width="252.284"
           y="23.459"
           x="23.858999"
           style="fill:#000a54;fill-opacity:1" />
      </g>
    </g>
    <path
       style="fill:#000026;fill-opacity:1;fill-rule:evenodd;stroke:none;stroke-width:1px;stroke-linecap:butt;stroke-linejoin:miter;stroke-opacity:1"
       d="m 72.450224,204.15105 24.180329,67.35949 179.381037,0.17272 0.0802,-6.85808 L 222.36825,115.72014 164.33546,141.2822 151.11973,106.91159 86.958424,87.740048 Z"
       id="path4365"
       inkscape:connector-curvature="0"
       sodipodi:nodetypes="ccccccccc" />
    <g
       id="Layer_4"
       style="fill:#81bbfb;fill-opacity:1">
      <g
         id="g4296"
         style="fill:#81bbfb;fill-opacity:1">
        <linearGradient
           y2="240.522"
           x2="152.1362"
           y1="-2.4779999"
           x1="37.1362"
           gradientUnits="userSpaceOnUse"
           id="SVGID_3_">
          <stop
             id="stop4299"
             style="stop-color:#A0CBFF"
             offset="0" />
          <stop
             id="stop4301"
             style="stop-color:#A0CBFE"
             offset="0.3941" />
          <stop
             id="stop4303"
             style="stop-color:#8EC2FC"
             offset="0.583" />
          <stop
             id="stop4305"
             style="stop-color:#83BCFB"
             offset="0.7838" />
          <stop
             id="stop4307"
             style="stop-color:#7FBAFB"
             offset="1" />
        </linearGradient>
        <g
           id="g4311"
           style="fill:#81bbfb;fill-opacity:1">
          <linearGradient
             y2="209.7536"
             x2="218.0972"
             y1="-34.2061"
             x1="102.6431"
             gradientUnits="userSpaceOnUse"
             id="SVGID_4_">
            <stop
               id="stop4314"
               style="stop-color:#A0CBFF"
               offset="0" />
            <stop
               id="stop4316"
               style="stop-color:#A0CBFE"
               offset="0.3941" />
            <stop
               id="stop4318"
               style="stop-color:#8EC2FC"
               offset="0.583" />
            <stop
               id="stop4320"
               style="stop-color:#83BCFB"
               offset="0.7838" />
            <stop
               id="stop4322"
               style="stop-color:#7FBAFB"
               offset="1" />
          </linearGradient>
          <path
             id="path4324"
             d="m 163.422,177.055 c 5.109,3.135 17.165,7.83 25.383,7.83 8.396,0 11.863,-2.959 11.863,-7.572 0,-4.619 -2.738,-9.471 -13.145,-12.979 -18.439,-6.279 -25.559,-13.795 -25.375,-24.315 0,-16.991 14.238,-29.731 36.328,-29.731 10.407,0 18.719,3.402 24.192,6.17 l 0,20.392 c -4.019,-2.218 -15.612,-7.17 -23.278,-7.17 -6.758,0 -10.59,2.769 -10.59,7.382 0,4.248 3.471,6.464 14.424,10.344 16.976,5.908 24.096,14.584 24.277,27.879 0,16.805 -12.954,30.168 -38.701,29.357 -8.835,-0.278 -18.624,-3.77 -25.379,-7.459 l 0,-20.128 z"
             inkscape:connector-curvature="0"
             style="fill:#81bbfb;fill-opacity:1" />
        </g>
        <path
           id="path4309"
           d="m 72.498,83.144 c 0,0 18.968,-0.499 34.582,-0.499 15.778,0 27.028,3.712 34.581,10.235 7.219,6.164 12.087,16.672 12.087,28.634 0,11.962 -3.694,21.75 -10.41,28.633 -8.729,8.881 -18.901,14.137 -36.258,14.865 -4.795,0.201 -9.233,0.249 -9.233,0.249 l 0,38.884 -25.35,0 0.001,-121.001 0,0 z m 25.348,60.573 c 2.754,0.268 4.48,0.139 8.562,0.09 13.598,-0.163 21.989,-8.432 21.989,-20.937 0,-11.234 -6.919,-20.458 -19.973,-20.936 -5.203,-0.19 -10.578,0 -10.578,0 l 0,41.783 z"
           inkscape:connector-curvature="0"
           style="fill:#81bbfb;fill-opacity:1" />
      </g>
    </g>
  </g>
</svg>
