<?xml version="1.0" encoding="UTF-8" standalone="no"?>
<svg
   xmlns:dc="http://purl.org/dc/elements/1.1/"
   xmlns:cc="http://creativecommons.org/ns#"
   xmlns:rdf="http://www.w3.org/1999/02/22-rdf-syntax-ns#"
   xmlns:svg="http://www.w3.org/2000/svg"
   xmlns="http://www.w3.org/2000/svg"
   xmlns:sodipodi="http://sodipodi.sourceforge.net/DTD/sodipodi-0.dtd"
   xmlns:inkscape="http://www.inkscape.org/namespaces/inkscape"
   id="svg4210"
   version="1.1"
   viewBox="0 0 1100.6 543.25739"
   inkscape:version="0.91 r13725"
   sodipodi:docname="snap-banner.svg"
   width="1100.6"
   height="543.25739">
  <metadata
     id="metadata21">
    <rdf:RDF>
      <cc:Work
         rdf:about="">
        <dc:format>image/svg+xml</dc:format>
        <dc:type
           rdf:resource="http://purl.org/dc/dcmitype/StillImage" />
        <dc:title>Slice 1</dc:title>
      </cc:Work>
    </rdf:RDF>
  </metadata>
  <sodipodi:namedview
     pagecolor="#ffffff"
     bordercolor="#666666"
     borderopacity="1"
     objecttolerance="10"
     gridtolerance="10"
     guidetolerance="10"
     inkscape:pageopacity="0"
     inkscape:pageshadow="2"
     inkscape:window-width="1663"
     inkscape:window-height="787"
     id="namedview19"
     showgrid="false"
     fit-margin-top="0"
     fit-margin-left="0"
     fit-margin-right="0"
     fit-margin-bottom="0"
     inkscape:zoom="0.56190476"
     inkscape:cx="129.38017"
     inkscape:cy="294.1484"
     inkscape:window-x="1440"
     inkscape:window-y="0"
     inkscape:window-maximized="0"
     inkscape:current-layer="g4805" />
  <title
     id="title4212">Slice 1</title>
  <description>Created with Sketch (http://www.bohemiancoding.com/sketch)</description>
  <defs
     id="defs4214">
    <linearGradient
       id="top_1_"
       x1="174.92"
       gradientUnits="userSpaceOnUse"
       x2="174.92"
       gradientTransform="matrix(1,0,0,-1,-50,111)"
       y1="110.61"
       y2="-135.09">
      <stop
         id="stop26"
         stop-color="#002E3B"
         offset="0" />
      <stop
         id="stop28"
         stop-color="#002639"
         offset="1" />
    </linearGradient>
  </defs>
  <path
     id="path4246"
     d="m 0,0 1100.6,0 0,465.56 L 548.17,543.067 0.46,465.482 Z"
     inkscape:connector-curvature="0"
     style="fill:#078168;fill-rule:evenodd" />
  <path
     id="path4817"
     d="m 446.525,307.789 28.991,48.083 -26.87,54.447 77.075,130.11 21.79,2.8284 253.28,-35.36 -152.03,-335.17 -111.73,-15.55 -58.685,34.64 z"
     inkscape:connector-curvature="0"
     style="fill:#00614e;fill-rule:evenodd" />
  <g
     id="g4805"
     transform="matrix(1.3599,0,0,1.3599,446.378,122.958)">
    <polygon
       id="top"
       transform="translate(-50.059,-1.4287)"
       points="124.91,1.985 51,38.035 51,38.067 84.368,58.918 84.396,58.904 84.396,58.892 124.94,39.118 165.48,58.892 198.84,38.046 "
       style="fill:#002739;stroke:url(#top_1_);fill-opacity:1" />
    <path
       id="path4165"
       d="M 15.483,35.091 90.388,-0.864 164.92,35.466 130.46,57.188 90.388,36.964 49.19,57.188 Z"
       inkscape:connector-curvature="0"
       style="fill-opacity:0" />
    <g
       id="g4793"
       style="fill-rule:evenodd">
      <path
         id="path4167"
         d="M 149.94,36.589 115.48,57.75 116.23,116.74 2,172.92 l -0.3745,38.57 148.68,-74.53 z"
         inkscape:connector-curvature="0"
         style="fill:#0aad8b" />
      <path
         id="path4169"
         d="m 0.4521,37.009 c 10.057,5.181 22.332,13.5 33.817,21.115 l 0.187,57.116 114.98,56.55 -0.38,38.58 -149.06,-74.16 z"
         inkscape:connector-curvature="0"
         style="fill:#003f6d" />
      <path
         id="path4171"
         d="M 38.891,192.77 1.625,211.49 75.407,246.7 149.38,210.37 113.05,192.02 75.782,209.62 Z"
         inkscape:connector-curvature="0"
         style="fill:#002739" />
    </g>
  </g>
  <text
     id="text4813"
     style="font-size:72.28099823px;line-height:125%;font-family:sans-serif;letter-spacing:0px;word-spacing:0px;fill:#ffffff"
     xml:space="preserve"
     font-size="72.281px"
     y="93.110405"
     x="436.1925"
     line-height="125%"
     sodipodi:linespacing="125%"><tspan
       id="tspan4815"
       font-weight="900"
       font-size="72.281px"
       line-height="125%"
       y="93.110405"
       x="436.1925"
       style="font-weight:900;font-size:72.28099823px;line-height:125%;font-family:'Arial Black';fill:#ffffff">SNAP</tspan></text>
</svg>
