<svg xmlns="http://www.w3.org/2000/svg" xmlns:xlink="http://www.w3.org/1999/xlink" version="1.1" id="Layer_1" x="0px" y="0px" width="100px" height="100px" viewBox="5.0 -10.0 100.0 135.0" enable-background="new 0 0 100 100" xml:space="preserve">
<path d="M72.955,17.969l-22.41,22.41c5.637,11.592,3.65,25.958-5.978,35.585c-9.45,9.451-23.469,11.543-34.946,6.285  c17.658,17.15,45.87,17.003,63.333-0.461C90.579,64.165,90.579,35.592,72.955,17.969z"/>
<path d="M58.281,47.966c-12.855,3.768-26.293-3.047-31.006-15.339c-7.596,6.311-11.149,16.751-8.194,26.831  c3.966,13.531,18.151,21.284,31.682,17.317c13.53-3.967,21.284-18.15,17.317-31.682c-0.197-0.676-0.428-1.333-0.675-1.979  C64.803,45.275,61.731,46.954,58.281,47.966z"/>
<circle cx="59.292" cy="32.235" r="19.743"/>
<polyline points="63.206,17.134 85.582,6.98 69.975,26.159 "/>
<polyline points="67.625,21.553 90,11.399 74.394,30.579 "/></svg>