<svg id="svg2" xmlns:rdf="http://www.w3.org/1999/02/22-rdf-syntax-ns#" xmlns="http://www.w3.org/2000/svg" viewBox="0 0 995.33 1000" version="1" xmlns:cc="http://creativecommons.org/ns#" xmlns:dc="http://purl.org/dc/elements/1.1/">
 <path id="path4" d="m501.98 0.00074878c-195.88-0.341-380.25 115.81-464.86 299.67l237.92 0.566v26.02c-73.261-8.816-66.81 29.228-56.439 69.607l156.18 391.43 114.8-269.09-52.699-126.11c-19.142-33.777-19.546-71.25-97.858-67.721l1.1-23.978 348.94 0.849v26.869c-40.865 2.397-90.057-10.274-63.981 73.409l141.13 370.72 77.149-216.42c25.263-90.724 1.487-177.91-28.534-263.4-16.697-57.355-8.91-105.25 65.93-124.26-114.24-116.62-249.03-167.94-378.77-168.17zm474.58 342.25l-226.23 589.69c62.476-54.11 126.54-73.806 204.92-223.53 52.155-124.53 46.786-239.9 21.307-366.16zm-963.39 9.553c-22.081 174.08-20.061 225.07 34.599 367.23 71.25 136.15 126.5 164.84 204.92 218.25l-239.52-585.48zm497.65 220.89-167.65 404.5c117.68 33.589 222.98 29.385 319.37-7.982l-151.72-396.52z"/>
</svg>
