<?xml version="1.0" encoding="UTF-8" standalone="no"?>
<svg
   xmlns:dc="http://purl.org/dc/elements/1.1/"
   xmlns:cc="http://creativecommons.org/ns#"
   xmlns:rdf="http://www.w3.org/1999/02/22-rdf-syntax-ns#"
   xmlns:svg="http://www.w3.org/2000/svg"
   xmlns="http://www.w3.org/2000/svg"
   xmlns:sodipodi="http://sodipodi.sourceforge.net/DTD/sodipodi-0.dtd"
   xmlns:inkscape="http://www.inkscape.org/namespaces/inkscape"
   version="1.1"
   width="1100.6"
   height="543.57397"
   id="svg2"
   inkscape:version="0.91 r13725"
   viewBox="0 0 1100.6 543.57397"
   sodipodi:docname="zbrush-banner.svg">
  <metadata
     id="metadata16">
    <rdf:RDF>
      <cc:Work
         rdf:about="">
        <dc:format>image/svg+xml</dc:format>
        <dc:type
           rdf:resource="http://purl.org/dc/dcmitype/StillImage" />
        <dc:title></dc:title>
      </cc:Work>
    </rdf:RDF>
  </metadata>
  <defs
     id="defs14">
    <style
       id="style4326">

      .cls-3 {
        fill: #104b4b;
      }

      .cls-4 {
        fill: #081b1a;
      }

      .cls-6 {
        fill: #052626;
      }

      .cls-8 {
        fill: #0a3535;
      }

      .cls-10 {
        fill: #0b7b7a;
      }

      .cls-11 {
        fill: #0b7473;
      }

      .cls-13 {
        fill: #0b3f3f;
      }
    </style>
  </defs>
  <sodipodi:namedview
     pagecolor="#ffffff"
     bordercolor="#666666"
     borderopacity="1"
     objecttolerance="10"
     gridtolerance="10"
     guidetolerance="10"
     inkscape:pageopacity="0"
     inkscape:pageshadow="2"
     inkscape:window-width="1922"
     inkscape:window-height="1038"
     id="namedview12"
     showgrid="false"
     showguides="true"
     inkscape:guide-bbox="true"
     inkscape:zoom="0.70710678"
     inkscape:cx="591.96893"
     inkscape:cy="146.57093"
     inkscape:window-x="1440"
     inkscape:window-y="0"
     inkscape:window-maximized="0"
     inkscape:current-layer="svg2"
     fit-margin-top="0"
     fit-margin-left="0"
     fit-margin-right="0"
     fit-margin-bottom="0">
    <sodipodi:guide
       position="547.6208,-115.21675"
       orientation="1,0"
       id="guide4359" />
  </sodipodi:namedview>
  <g
     transform="translate(401.27,39.109)"
     style="fill-rule:evenodd"
     id="g4">
    <path
       style="fill:#cce4e4;fill-opacity:1"
       inkscape:connector-curvature="0"
       d="m -401.27,-39.109 1100.6,0 0,465.56 -552.43,77.507 -547.71,-77.585 z"
       id="path4246" />
    <path
       style="fill:#8ec6c5;fill-opacity:1"
       inkscape:connector-curvature="0"
       d="M 249.18086,99.2732 391.84665,469.61896 148.83225,504.465 15.571,485.09393 -35.717563,364.53663 C 72.361214,186.12604 127.72882,167.35437 249.18086,99.2732 Z"
       id="path4262"
       sodipodi:nodetypes="cccccc" />
  </g>
  <path
     style="fill:#8ec6c5;fill-opacity:1;fill-rule:evenodd;stroke:none;stroke-width:1px;stroke-linecap:butt;stroke-linejoin:miter;stroke-opacity:1"
     d="m 593.26259,89.611421 18.03122,51.972349 36.416,-1.06066 -18.38477,33.23402 -248.75514,216.27112 -10.29595,-30.71625 4.49264,-3.82843 -5.19974,-18.7561 28.53427,-46.29772 32.17336,-20.5061 -25.0594,-68.75357 60.76829,-60.64697 86.94072,-3.88909 -14.46227,-40.305084 z"
     id="path4402"
     inkscape:connector-curvature="0"
     sodipodi:nodetypes="ccccccccccccccc" />
  <path
     style="fill:#000000"
     d="m 570.56024,403.2983 c -3.40187,-0.93262 -6.94029,-3.14266 -8.58532,-5.36223 -1.60629,-2.16731 -2.16183,-7.13988 -2.16542,-19.38249 l -0.003,-11.17851 5.37701,0 5.37701,0 0.008,12.59351 c 0.009,13.88459 0.16148,14.63286 3.35795,16.4997 2.38352,1.39205 9.47225,1.62168 12.36691,0.40061 3.27164,-1.38009 3.51084,-2.51996 3.51084,-16.7307 l 0,-12.76312 5.42843,0 5.42843,0 -0.19292,13.72552 c -0.18894,13.44188 -0.22237,13.77811 -1.61791,16.27061 -1.15195,2.05743 -2.16906,2.92389 -5.30838,4.52212 -3.83368,1.95172 -3.98566,1.97883 -11.87603,2.11772 -5.74682,0.10117 -8.86736,-0.0991 -11.10564,-0.71273 z m 49.37233,-0.0107 c -4.02606,-1.08391 -5.92927,-2.13491 -8.31566,-4.5921 -1.86638,-1.92175 -3.70822,-6.03145 -3.01416,-6.72552 0.16601,-0.16601 2.45387,-0.4537 5.08414,-0.63932 l 4.78231,-0.33749 0.7413,1.78966 c 0.99366,2.39889 3.26634,3.91562 6.91358,4.61394 6.16417,1.18022 12.43325,-0.84069 12.81702,-4.1317 0.26253,-2.25131 -2.16122,-3.44085 -9.96104,-4.8887 -9.27584,-1.72183 -13.35023,-3.16239 -15.95649,-5.64168 -3.44474,-3.27689 -3.74118,-7.30701 -0.79503,-10.8083 2.98571,-3.54831 8.04466,-5.1009 16.65236,-5.11059 6.46655,-0.007 11.43552,0.98469 14.53832,2.90232 2.40344,1.4854 4.68312,4.81714 4.68312,6.84435 l 0,1.56661 -5.0381,0 -5.0381,0 -1.14991,-1.94895 c -1.44489,-2.44891 -4.49706,-3.38009 -9.83947,-3.00193 -4.17058,0.29521 -6.66846,1.51312 -6.66846,3.25139 0,1.69972 2.65315,2.73003 11.62812,4.51564 9.53583,1.89719 13.60283,3.56187 15.82734,6.47835 4.78115,6.2684 0.0385,14.13745 -9.69929,16.09308 -4.38792,0.88122 -14.54284,0.75335 -18.1919,-0.22907 z m -254.26463,-4.68437 0,-4.99588 4.15454,-3.63563 c 2.285,-1.9996 10.98607,-9.62108 19.33572,-16.93665 l 15.18118,-13.30101 -17.07171,-0.1498 -17.07172,-0.1498 0,-4.8027 0,-4.80271 27.45104,0 27.45104,0 0,4.48698 c 0,4.25905 -0.0826,4.55376 -1.62606,5.80151 -5.07943,4.10626 -37.994,33.48655 -37.994,33.9143 0,0.29502 8.73799,0.51127 20.65903,0.51127 l 20.65903,0 0,4.528 0,4.52801 -30.56404,0 -30.56405,0 z m 70.1841,-21.88915 0,-26.88504 17.40453,0.0191 c 26.45013,0.029 32.07858,0.85081 37.47784,5.47238 4.24225,3.63121 5.47611,8.00816 3.47795,12.33758 -1.22316,2.65022 -2.77994,4.1795 -6.28824,6.17712 -1.40085,0.79764 -2.16495,1.45352 -1.698,1.45752 1.67367,0.0143 7.67557,3.30131 9.4458,5.17307 2.22165,2.34908 3.00621,4.33864 3.00621,7.62334 0,3.33034 -1.1048,5.83573 -3.92027,8.89016 -3.00764,3.2629 -7.51925,5.25839 -13.61091,6.02011 -2.63788,0.32984 -13.90837,0.59972 -25.04553,0.59972 l -20.24938,0 0,-26.88504 z m 42.49653,16.55224 c 5.87918,-2.46489 5.90307,-8.93327 0.0427,-11.56874 -1.70744,-0.76785 -4.25224,-0.93892 -14.52223,-0.97625 l -12.45202,-0.0452 -0.16172,6.18964 c -0.0889,3.4043 -0.0191,6.56133 0.15526,7.01563 0.45497,1.18565 23.92091,0.64988 26.93797,-0.61504 z m -2.59347,-23.00087 c 5.71228,-2.36088 5.77073,-8.06387 0.10465,-10.21069 -0.93939,-0.35593 -6.3404,-0.6037 -13.15951,-0.6037 l -11.56617,0 0,5.56567 c 0,3.06112 0.19102,5.75954 0.4245,5.99648 0.69957,0.70995 22.2834,0.043 24.19653,-0.74776 z m 33.11105,15.20403 0,-18.17213 16.27252,0.18037 c 15.18412,0.16829 16.44641,0.26078 18.87216,1.38271 6.52786,3.01922 8.48218,9.5713 4.26416,14.29607 -1.42115,1.59188 -6.32267,4.01519 -8.1373,4.02307 -1.90143,0.008 -1.55596,0.6748 1.27756,2.46493 2.23028,1.40902 12.12686,11.90399 12.63663,13.40068 0.11525,0.33837 -2.15517,0.55394 -5.83408,0.55394 l -6.02276,0 -6.29283,-6.54587 c -3.46105,-3.60023 -6.94852,-6.88161 -7.74993,-7.29195 -0.80141,-0.41034 -3.04142,-0.92729 -4.97781,-1.14877 l -3.5207,-0.40268 -0.15831,7.55313 -0.1583,7.55314 -5.2355,0.16274 -5.23551,0.16274 z m 28.76396,-4.34403 c 1.06101,-0.78877 1.56928,-1.73874 1.69071,-3.15999 0.29334,-3.43315 -1.32457,-4.04383 -11.32555,-4.27479 l -8.37511,-0.19342 0,4.65796 0,4.65796 8.24643,-0.27996 c 7.07879,-0.24031 8.46124,-0.43964 9.76352,-1.40777 z m 120.66025,4.36164 0,-18.11202 5.07658,0 5.07659,0 0.15892,6.93351 0.15892,6.93351 9.76352,0.15486 9.76352,0.15487 0,-7.08838 0,-7.08837 5.377,0 5.37701,0 0,18.11202 0,18.11203 -5.37701,0 -5.377,0 0,-7.92401 0,-7.92401 -9.90502,0 -9.90502,0 0,7.92401 0,7.92401 -5.09401,0 -5.094,0 z m 34.1452,-32.17877 c -7.69219,-2.65816 -30.0155,-18.36596 -41.14124,-28.94902 -7.7195,-7.34297 -8.99295,-11.11759 -6.58798,-19.52732 1.56738,-5.48087 1.45452,-7.94921 -0.5458,-11.93712 -3.20367,-6.38696 -9.09097,-11.19757 -20.01998,-16.35868 -16.07951,-7.59339 -30.57876,-11.25366 -60.37233,-15.24074 -18.14271,-2.42791 -24.55983,-2.86371 -42.09132,-2.85844 l -16.90428,0.005 -2.88189,3.38493 c -7.97035,9.36155 -36.26597,36.83543 -43.68166,42.41308 -29.1089,21.89399 -56.10742,34.33744 -76.41011,35.21694 -10.12775,0.43872 -12.70579,-0.82042 -12.72668,-6.21586 -0.0429,-11.07305 13.04985,-29.77171 33.14607,-47.33826 17.83758,-15.59223 34.08672,-26.01025 63.57397,-40.75999 13.92864,-6.9672 26.69459,-11.87666 39.81425,-15.31152 l 4.94745,-1.2953 3.22002,-4.30211 c 10.60055,-14.1629 25.65451,-30.70362 40.48935,-44.48817 l 5.48214,-5.09401 -15.91737,-10.43808 c -17.68898,-11.59988 -25.57819,-15.93868 -34.39602,-18.9167 -12.64236,-4.26967 -20.10167,-3.71385 -33.23192,2.47619 -10.182,4.80014 -19.81746,11.86119 -22.82398,16.72586 -2.17218,3.51465 -3.4468,8.2394 -3.41763,12.66836 0.039,5.91838 -0.65412,7.97674 -3.60045,10.69257 -5.57791,5.14153 -29.79843,14.80881 -37.10218,14.80881 -5.15959,0 -5.22189,-2.9149 -0.23386,-10.94234 7.89288,-12.70234 22.3031,-29.05716 34.58866,-39.25628 12.9037,-10.71226 31.5897,-20.55919 46.00131,-24.24123 10.79312,-2.75754 26.29227,-3.84532 36.57138,-2.56668 15.4653,1.92376 24.86065,4.78671 54.78914,16.69535 l 13.52539,5.3818 5.15264,-3.55422 c 18.1601,-12.52656 27.60721,-15.72626 38.706,-13.10955 8.69902,2.05093 13.38569,6.55264 14.10801,13.55123 0.69748,6.75793 -3.5462,14.27988 -13.29449,23.56457 -10.60794,10.10345 -18.63724,15.37959 -28.46341,18.70362 -4.87931,1.65058 -5.94479,1.80524 -12.41249,1.80165 -8.13277,-0.005 -13.31536,-1.2639 -22.21275,-5.3978 l -5.02445,-2.33447 -6.79753,6.74867 c -3.73865,3.71177 -9.28644,9.55037 -12.32843,12.97468 -5.79728,6.52586 -20.42493,23.88653 -20.42493,24.2411 0,0.11331 3.50213,0.36554 7.78251,0.56055 22.3196,1.01684 44.20494,7.29207 68.62759,19.67768 35.94954,18.23133 63.80954,45.27934 83.02672,80.60685 6.33251,11.64124 9.23142,19.01075 9.23142,23.46773 0,2.3174 -0.24328,2.96051 -1.49133,3.94223 -1.79951,1.41549 -2.47247,1.42889 -6.24753,0.12435 z M 402.19395,324.67474 c 6.59462,-2.2067 11.61121,-4.61926 19.79107,-9.51786 15.52297,-9.29609 32.79638,-22.98689 45.45483,-36.02723 8.76875,-9.0333 16.13292,-17.04274 15.89159,-17.28407 -0.39447,-0.39448 -10.18791,1.74573 -19.24244,4.20512 -24.53285,6.66365 -50.28815,19.31353 -62.47958,30.68724 -8.90863,8.3111 -16.03139,22.15316 -13.79718,26.81282 1.73621,3.62101 5.93806,3.9494 14.38171,1.12398 z M 635.08432,153.45059 c 6.23676,-1.986 10.69033,-5.86943 9.97944,-8.70186 -0.812,-3.23524 -10.3712,-4.11994 -19.31845,-1.78792 -3.57032,0.93057 -18.39503,7.95916 -18.39503,8.72132 0,0.5074 7.07374,2.25693 11.81062,2.92109 4.78497,0.67091 11.78901,0.16391 15.92342,-1.15263 z m 79.1527,196.69735 c -4.63018,-2.01519 -6.85457,-9.24883 -4.08517,-13.28487 2.28432,-3.32912 4.08986,-4.29705 8.01559,-4.29705 4.16044,0 6.566,1.39831 8.31981,4.83613 3.9169,7.67769 -4.28575,16.21215 -12.25023,12.74579 z m 6.78357,-1.66531 c 5.70518,-2.38377 6.25046,-9.71263 0.98366,-13.22064 -4.76205,-3.17183 -11.3696,0.36311 -11.37572,6.08587 0,2.73327 1.68635,5.64289 3.99484,6.88094 2.30634,1.23691 3.89363,1.29989 6.39722,0.25383 z m -6.99814,-6.8606 0,-4.81101 3.07259,0 c 4.37371,0 6.19974,2.09353 3.82605,4.38651 -0.98875,0.95511 -1.73783,1.81477 0.29008,3.113 l 1.31549,2.12251 -1.28063,-0.0218 c -0.81272,-0.0139 -1.6984,-0.68586 -2.42429,-1.83951 -1.49402,-2.37446 -2.76548,-2.36521 -2.99568,0.0218 -0.10986,1.13943 -0.48681,1.83951 -0.9905,1.83951 -0.64303,0 -0.81311,-1.00619 -0.81311,-4.81101 z m 5.66,-1.981 c 0,-0.83014 -0.37735,-1.132 -1.415,-1.132 -0.77825,0 -1.60603,-0.0637 -1.8395,-0.14151 -0.23348,-0.0778 -0.50589,0.43159 -0.60534,1.13201 -0.15859,1.1166 0.068,1.2735 1.8395,1.2735 1.64299,0 2.02034,-0.21141 2.02034,-1.132 z M 557.69088,114.68787 c -4.96419,-1.13497 -9.93048,-3.95701 -13.13607,-7.46443 -5.20601,-5.69621 -7.04453,-11.788914 -5.48788,-18.186398 1.48636,-6.10866 4.44156,-11.47385 8.73045,-15.850213 6.49282,-6.62526 13.29444,-9.421738 19.78422,-8.134273 10.05265,1.994279 18.96288,10.451565 25.3525,24.06372 2.91251,6.204682 3.89426,10.344721 3.55741,15.001594 -0.31906,4.41108 -1.60145,6.19637 -5.60702,7.80592 -6.73328,2.70563 -26.31665,4.33637 -33.19361,2.76408 z"
     id="path4400"
     inkscape:connector-curvature="0"
     sodipodi:nodetypes="cscccccssscccsssscccssscsssssscsscccssssssccccsscccccccssssccccccccsssscsssssccccssccccccsscsscccssscssscssscccccccsscccsccccccccccccccccccccccccccccsssssscssssssscsscsssssssssssscssssscscssssssssccssssssssssssssssscssscssscsssccscssssccsssssssssss" />
</svg>
