<svg xmlns="http://www.w3.org/2000/svg" xmlns:xlink="http://www.w3.org/1999/xlink" preserveAspectRatio="xMidYMid" width="386" height="346" viewBox="0 0 386 346">
  <defs>
    <style>

      .cls-3 {
        fill: #104b4b;
      }

      .cls-4 {
        fill: #081b1a;
      }

      .cls-6 {
        fill: #052626;
      }

      .cls-8 {
        fill: #0a3535;
      }

      .cls-10 {
        fill: #0b7b7a;
      }

      .cls-11 {
        fill: #0b7473;
      }

      .cls-13 {
        fill: #0b3f3f;
      }
    </style>
  </defs>
  <g id="groupe-1">
    <path d="M194.000,0.000 C194.000,0.000 146.000,142.000 146.000,142.000 C146.000,142.000 239.000,142.000 239.000,142.000 C239.000,142.000 194.000,0.000 194.000,0.000 Z" id="path-1" class="cls-3" fill-rule="evenodd"/>
    <path d="M193.000,1.000 C193.000,1.000 238.000,142.000 238.000,142.000 C238.000,142.000 303.000,143.000 303.000,143.000 C303.000,143.000 193.000,1.000 193.000,1.000 Z" id="path-2" class="cls-4" fill-rule="evenodd"/>
    <path d="M194.000,1.000 C194.000,1.000 147.000,142.000 147.000,142.000 C147.000,142.000 82.000,143.000 82.000,143.000 C82.000,143.000 194.000,1.000 194.000,1.000 Z" id="path-3" class="cls-4" fill-rule="evenodd"/>
    <path d="M238.000,142.000 C238.000,142.000 303.000,142.000 303.000,142.000 C303.000,142.000 302.000,209.000 302.000,209.000 C302.000,209.000 270.000,243.000 270.000,243.000 C270.000,243.000 238.000,142.000 238.000,142.000 Z" id="path-4" class="cls-6" fill-rule="evenodd"/>
    <path d="M147.000,142.000 C147.000,142.000 83.000,142.000 83.000,142.000 C83.000,142.000 84.000,209.000 84.000,209.000 C84.000,209.000 114.000,244.000 114.000,244.000 C114.000,244.000 147.000,142.000 147.000,142.000 Z" id="path-5" class="cls-6" fill-rule="evenodd"/>
    <path d="M302.000,208.000 C302.000,208.000 270.000,242.000 270.000,242.000 C270.000,242.000 303.000,345.000 303.000,345.000 C303.000,345.000 302.000,208.000 302.000,208.000 Z" id="path-6" class="cls-8" fill-rule="evenodd"/>
    <path d="M84.000,205.000 C84.000,205.000 114.000,240.000 114.000,240.000 C114.000,240.000 83.000,342.000 83.000,342.000 C83.000,342.000 84.000,205.000 84.000,205.000 Z" id="path-7" class="cls-8" fill-rule="evenodd"/>
    <path d="M146.000,142.000 C146.000,142.000 239.000,142.000 239.000,142.000 C239.000,142.000 271.000,243.000 271.000,243.000 C271.000,243.000 194.000,337.000 194.000,337.000 C194.000,337.000 113.000,241.000 113.000,241.000 C113.000,241.000 146.000,142.000 146.000,142.000 Z" id="path-8" class="cls-10" fill-rule="evenodd"/>
    <path d="M386.000,346.000 C358.336,346.000 330.664,346.000 303.000,346.000 C302.667,298.338 301.333,255.662 301.000,208.000 C329.477,172.688 352.569,145.549 384.000,107.000 C384.000,187.325 386.000,265.675 386.000,346.000 Z" id="path-9" class="cls-11" fill-rule="evenodd"/>
    <path d="M0.000,344.000 C27.664,344.000 55.336,344.000 83.000,344.000 C83.333,296.338 84.667,255.662 85.000,208.000 C56.523,172.688 34.431,146.549 3.000,108.000 C3.000,188.325 0.000,263.675 0.000,344.000 Z" id="path-10" class="cls-11" fill-rule="evenodd"/>
    <path d="M195.000,3.000 C257.994,37.997 321.006,73.004 384.000,108.000 C339.821,160.537 384.227,108.686 301.000,208.000 C301.000,187.002 301.000,162.998 301.000,142.000 C277.253,110.832 194.747,6.168 195.000,3.000 Z" id="path-11" class="cls-13" fill-rule="evenodd"/>
    <path d="M193.000,2.000 C130.079,36.996 65.139,73.003 2.218,108.000 C46.347,160.537 1.992,108.686 85.123,208.000 C85.123,187.002 85.123,162.998 85.123,142.000 C108.842,110.832 193.253,5.168 193.000,2.000 Z" id="path-12" class="cls-13" fill-rule="evenodd"/>
  </g>
</svg>
